<svg width="441" height="326" viewBox="0 0 441 326" fill="none" xmlns="http://www.w3.org/2000/svg">
<g clip-path="url(#clip0)">
<path d="M317.348 193.395L320.817 191.259C321.147 191.05 321.472 190.828 321.806 190.62C314.366 189.343 307.585 185.57 302.587 179.925C297.589 174.28 294.673 167.102 294.322 159.579C294.067 154.404 295.047 149.244 297.183 144.521C299.171 140.103 302.106 136.174 305.782 133.01C309.458 129.846 313.785 127.526 318.458 126.212L318.286 139.833L325.786 125.007C325.817 125.002 325.849 125.002 325.879 125.007C330.226 124.805 334.569 125.458 338.663 126.931C342.756 128.403 346.518 130.665 349.735 133.588C352.952 136.511 355.56 140.037 357.41 143.966C359.261 147.894 360.318 152.148 360.52 156.484C360.548 157.114 360.52 157.735 360.52 158.337C363.13 155.367 365.499 152.184 367.069 148.696C370.245 141.63 370.32 133.629 370.055 123.905C369.553 104.631 368.722 85.2145 367.635 65.8532C359.804 64.9856 352.54 61.3606 347.147 55.6295C341.754 49.8984 338.587 42.4368 338.214 34.5852C338.168 33.5706 338.182 32.5745 338.214 31.583C338.214 31.3375 338.214 31.0873 338.251 30.8418C338.316 29.8827 338.405 28.933 338.553 27.9971C338.553 27.8396 338.609 27.6913 338.637 27.5338C338.773 26.74 338.936 25.9555 339.125 25.1802C339.199 24.893 339.269 24.6011 339.347 24.3139C339.58 23.4707 339.812 22.6414 340.132 21.8213C340.23 21.548 340.346 21.2839 340.448 21.0152C340.685 20.4129 340.94 19.8199 341.21 19.2315C341.354 18.9211 341.493 18.6153 341.646 18.3049C341.683 18.2261 341.716 18.1474 341.758 18.0686C345.255 11.1786 351.061 5.72881 358.168 2.66647C365.274 -0.39586 373.232 -0.877075 380.658 1.30648L380.435 19.0323L387.866 4.39205C393.961 7.87244 398.781 13.2057 401.621 19.613C404.462 26.0202 405.175 33.1657 403.656 40.0058H403.693C403.642 40.2421 403.568 40.4691 403.512 40.7007C403.41 41.1362 403.298 41.5671 403.177 41.998C403.02 42.5493 402.843 43.0914 402.662 43.6334C402.523 44.0365 402.388 44.4488 402.235 44.8473C402.012 45.431 401.77 46.0009 401.501 46.5707C401.352 46.9043 401.218 47.2425 401.036 47.5715C400.612 48.4239 400.148 49.2579 399.643 50.0733C399.471 50.3559 399.276 50.6246 399.095 50.9072C398.742 51.4539 398.385 51.996 397.999 52.5241C397.762 52.8484 397.507 53.1588 397.256 53.4785C396.894 53.9418 396.522 54.4051 396.137 54.8267C395.863 55.1371 395.584 55.4429 395.296 55.7533C394.892 56.1796 394.474 56.5919 394.042 56.9996C393.759 57.2729 393.471 57.5463 393.174 57.8057C392.686 58.2366 392.175 58.6489 391.66 59.052C391.4 59.2559 391.149 59.469 390.88 59.6636C390.096 60.2442 389.287 60.7894 388.451 61.299C388.293 61.3917 388.126 61.4704 387.986 61.5631C387.29 61.9754 386.593 62.36 385.845 62.7213C385.534 62.8742 385.209 63.0086 384.889 63.1522C384.289 63.4209 383.686 63.6804 383.068 63.9166C382.71 64.051 382.344 64.1761 381.977 64.3012C381.368 64.5097 380.751 64.6996 380.119 64.871C379.747 64.973 379.381 65.0749 379.004 65.1629C378.326 65.3251 377.634 65.4594 376.938 65.5752C376.891 65.5752 376.849 65.5752 376.803 65.603C377.261 73.7694 377.668 81.9405 378.024 90.1162C380 86.0708 382.783 82.4706 386.203 79.5366C389.623 76.6026 393.608 74.3966 397.913 73.0539C402.218 71.7113 406.753 71.2602 411.239 71.7285C415.726 72.1967 420.069 73.5744 424.002 75.7771L418.146 91.784L430.193 80.2433C436.642 86.1399 440.483 94.3473 440.874 103.065C441.028 106.124 440.745 109.19 440.034 112.169C438.52 118.617 435.1 124.463 430.215 128.947C425.33 133.432 419.208 136.348 412.641 137.319C406.074 138.289 399.367 137.268 393.389 134.389C387.411 131.51 382.438 126.904 379.116 121.171C379.116 122 379.176 122.834 379.199 123.664C379.418 132.244 379.692 142.918 375.405 152.453C372.502 158.916 367.826 164.165 363.205 168.868C360.2 171.93 357.084 174.891 353.888 177.758C350.747 181.967 346.646 185.368 341.925 187.682C336.677 191.716 331.243 195.493 325.624 199.014L322.21 201.21C319.057 203.161 315.825 205.162 312.653 207.233C313.21 207.178 313.763 207.118 314.329 207.094C321.35 206.766 328.294 208.673 334.158 212.54C340.022 216.406 344.502 222.033 346.95 228.605L326.246 245.418L349.003 240.151C348.997 245.74 347.57 251.236 344.857 256.126C342.144 261.016 338.233 265.141 333.488 268.114C328.744 271.087 323.322 272.811 317.728 273.127C312.134 273.442 306.552 272.338 301.502 269.918C302.013 270.557 302.528 271.192 303.039 271.826C304.056 273.091 305.069 274.347 306.058 275.593C319.526 292.61 323.279 308.77 316.605 321.089L308.496 316.715C314.998 304.725 305.245 289.381 298.822 281.292C297.851 280.069 296.858 278.836 295.854 277.585C287.249 266.929 277.496 254.828 277.742 239.998C278.09 217.667 299.867 204.199 317.348 193.395Z" fill="#F2F2F2"/>
<path d="M382.446 312.643C383.839 310.09 382.26 306.963 380.458 304.684C378.656 302.404 376.459 300.051 376.506 297.136C376.571 292.967 381.006 290.507 384.554 288.297C387.182 286.655 389.606 284.71 391.776 282.501C392.687 281.651 393.44 280.647 394.001 279.536C394.73 277.905 394.711 276.052 394.665 274.263C394.51 268.315 394.216 262.372 393.782 256.436" stroke="#3F3D56" stroke-width="4" stroke-miterlimit="10"/>
<path d="M400.521 256.121C400.469 255.032 400.144 253.974 399.576 253.043C399.008 252.113 398.216 251.339 397.27 250.793L395.812 253.674L395.854 250.19C394.856 249.892 393.802 249.838 392.779 250.031C391.755 250.224 390.794 250.659 389.975 251.3C389.155 251.942 388.502 252.77 388.071 253.715C387.639 254.66 387.441 255.695 387.494 256.732C387.575 258.452 388.338 260.07 389.615 261.229C390.247 261.803 390.987 262.247 391.791 262.536C392.595 262.825 393.449 262.953 394.302 262.913C395.156 262.872 395.994 262.665 396.767 262.302C397.541 261.939 398.235 261.427 398.81 260.797C399.386 260.166 399.831 259.428 400.12 258.626C400.41 257.824 400.538 256.972 400.498 256.121H400.521Z" fill="#57B793"/>
<path d="M388.897 300.134C388.214 301.457 387.097 302.505 385.731 303.103C384.366 303.702 382.836 303.814 381.398 303.421C379.96 303.028 378.701 302.154 377.832 300.945C376.963 299.736 376.537 298.266 376.625 296.781C376.713 295.296 377.311 293.887 378.317 292.789C379.323 291.691 380.677 290.971 382.151 290.751C383.626 290.53 385.132 290.822 386.417 291.577C387.701 292.332 388.687 293.505 389.208 294.899L385.139 298.202L389.616 297.164C389.617 298.197 389.37 299.215 388.897 300.134Z" fill="#57B793"/>
<path d="M385.678 287.491C384.823 287.532 383.968 287.404 383.163 287.115C382.357 286.825 381.617 286.38 380.984 285.804C380.352 285.229 379.839 284.534 379.476 283.761C379.113 282.987 378.907 282.15 378.87 281.296C378.818 280.279 379.011 279.264 379.432 278.336C379.822 277.467 380.399 276.694 381.121 276.071C381.843 275.448 382.693 274.991 383.612 274.731L383.579 277.414L385.056 274.495C386.783 274.415 388.472 275.022 389.751 276.184C391.029 277.345 391.793 278.966 391.874 280.689C391.954 282.413 391.345 284.097 390.181 285.373C389.016 286.648 387.392 287.41 385.664 287.491H385.678Z" fill="#57B793"/>
<path d="M401.501 276.969C399.777 277.05 398.09 276.444 396.814 275.285C395.537 274.126 394.774 272.509 394.693 270.788C394.611 269.068 395.218 267.386 396.38 266.113C397.542 264.839 399.164 264.078 400.888 263.997C402.107 263.937 403.318 264.223 404.38 264.821L403.229 267.972L405.597 265.702C406.868 266.86 407.626 268.475 407.706 270.191C407.735 270.792 407.679 271.394 407.538 271.979C407.213 273.353 406.448 274.583 405.358 275.484C404.269 276.384 402.914 276.906 401.501 276.969Z" fill="#57B793"/>
<path opacity="0.1" d="M399.643 257.835C398.139 258.002 396.676 258.47 395.166 258.562C393.657 258.655 391.999 258.293 391.042 257.121C390.527 256.491 390.271 255.694 389.835 255.009C389.424 254.368 388.861 253.838 388.195 253.466C387.802 254.286 387.586 255.179 387.561 256.088C387.536 256.997 387.703 257.901 388.051 258.741C388.399 259.581 388.92 260.339 389.58 260.965C390.241 261.592 391.026 262.073 391.884 262.377C392.743 262.681 393.656 262.802 394.565 262.732C395.474 262.661 396.357 262.401 397.158 261.968C397.959 261.535 398.66 260.938 399.216 260.218C399.771 259.497 400.168 258.668 400.382 257.784C400.131 257.793 399.885 257.812 399.643 257.835Z" fill="black"/>
<path opacity="0.1" d="M401.501 276.969C400.377 277.026 399.257 276.791 398.251 276.287C397.246 275.782 396.389 275.026 395.764 274.092C395.139 273.158 394.768 272.079 394.686 270.959C394.605 269.839 394.817 268.717 395.301 267.703C395.818 268.052 396.263 268.497 396.611 269.014C397.075 269.714 397.354 270.52 397.902 271.164C398.914 272.355 400.651 272.744 402.225 272.67C403.8 272.596 405.314 272.155 406.87 272.012C407.083 272.012 407.306 271.975 407.525 271.97C407.202 273.343 406.439 274.574 405.352 275.476C404.265 276.379 402.913 276.903 401.501 276.969Z" fill="black"/>
<path opacity="0.1" d="M385.678 287.491C384.823 287.532 383.968 287.404 383.163 287.115C382.357 286.825 381.617 286.38 380.984 285.804C380.352 285.229 379.839 284.534 379.476 283.761C379.113 282.987 378.907 282.15 378.87 281.296C378.818 280.279 379.011 279.264 379.432 278.336C379.972 278.689 380.444 279.136 380.825 279.656C381.331 280.37 381.647 281.19 382.218 281.848C383.319 283.071 385.167 283.502 386.835 283.46C388.502 283.418 390.002 283.029 391.609 282.909C391.212 284.188 390.43 285.314 389.369 286.134C388.308 286.954 387.019 287.428 385.678 287.491Z" fill="black"/>
<path opacity="0.1" d="M388.897 300.134C388.546 300.912 388.045 301.614 387.422 302.2C386.8 302.785 386.068 303.242 385.268 303.545C384.468 303.848 383.616 303.991 382.761 303.966C381.906 303.941 381.064 303.748 380.284 303.398C379.504 303.048 378.8 302.548 378.213 301.927C377.627 301.306 377.168 300.576 376.864 299.778C376.561 298.98 376.417 298.13 376.443 297.277C376.468 296.424 376.661 295.584 377.012 294.806C377.547 295.161 378.029 295.59 378.443 296.08C379.06 296.835 379.469 297.688 380.189 298.397C381.522 299.698 383.672 300.25 385.585 300.287C386.691 300.301 387.797 300.25 388.897 300.134Z" fill="black"/>
<path d="M372.619 309.701C372.619 309.701 377.76 309.544 379.311 308.441C380.862 307.338 387.206 306.023 387.61 307.792C388.014 309.562 395.343 316.595 389.533 316.623C383.723 316.651 376.037 315.696 374.49 314.77C372.944 313.843 372.619 309.701 372.619 309.701Z" fill="#656380"/>
<path opacity="0.2" d="M389.635 316.007C383.83 316.053 376.139 315.08 374.592 314.153C373.417 313.44 372.944 310.869 372.79 309.683H372.619C372.619 309.683 372.944 313.82 374.476 314.779C376.009 315.738 383.709 316.669 389.519 316.632C391.195 316.632 391.776 316.021 391.743 315.14C391.525 315.664 390.884 315.997 389.635 316.007Z" fill="black"/>
<path d="M90.2879 298.35C86.9162 292.124 90.7523 284.498 95.1365 278.947C99.5206 273.397 104.889 267.624 104.773 260.55C104.606 250.385 93.7943 244.385 85.1561 238.997C78.7461 234.998 72.8332 230.257 67.5406 224.871C65.4182 222.708 63.3608 220.4 62.1255 217.639C60.3421 213.664 60.3885 209.147 60.5046 204.792C60.8762 190.275 61.5945 175.786 62.6595 161.325" stroke="#3F3D56" stroke-width="4" stroke-miterlimit="10"/>
<path d="M46.233 160.533C46.3602 157.881 47.1532 155.303 48.5392 153.037C49.9252 150.77 51.8598 148.887 54.1653 147.561L57.7228 154.58L57.616 146.083C60.8478 145.133 64.2987 145.232 67.4704 146.366C70.6421 147.5 73.3704 149.61 75.2614 152.392C77.1524 155.174 78.1082 158.483 77.9908 161.843C77.8735 165.202 76.689 168.437 74.6084 171.08C72.5279 173.724 69.6589 175.64 66.4158 176.551C63.1727 177.462 59.7232 177.321 56.5655 176.149C53.4077 174.977 50.7051 172.834 48.8479 170.029C46.9907 167.225 46.075 163.904 46.233 160.547V160.533Z" fill="#57B793"/>
<path d="M74.5719 267.814C76.1696 270.92 78.7509 273.413 81.9147 274.905C85.0785 276.398 88.6478 276.806 92.068 276.066C95.4881 275.326 98.5677 273.481 100.828 270.816C103.089 268.151 104.404 264.815 104.569 261.328C104.68 259.136 104.327 256.945 103.533 254.898C102.373 251.895 100.324 249.315 97.6588 247.502C94.9936 245.689 91.8384 244.728 88.6124 244.746C85.3865 244.765 82.2426 245.762 79.5986 247.606C76.9546 249.45 74.9357 252.053 73.8103 255.069L83.735 263.121L72.8164 260.587C72.8119 263.102 73.414 265.581 74.5719 267.814Z" fill="#57B793"/>
<path d="M82.416 237.042C86.3123 237.22 90.1381 235.962 93.1649 233.508C96.1918 231.054 98.2084 227.576 98.8308 223.735C99.4532 219.893 98.638 215.958 96.5403 212.678C94.4426 209.398 91.209 207.001 87.455 205.945L87.5386 212.473L83.9626 205.371H83.9208C79.7101 205.175 75.5939 206.656 72.4776 209.487C69.3613 212.319 67.5002 216.269 67.3038 220.47C67.1073 224.67 68.5916 228.777 71.43 231.885C74.2685 234.994 78.2286 236.851 82.4393 237.047L82.416 237.042Z" fill="#57B793"/>
<path d="M43.8414 211.436C46.3015 211.555 48.7558 211.103 51.0106 210.114C53.2654 209.125 55.2589 207.627 56.8338 205.738C58.4088 203.848 59.5219 201.62 60.0856 199.228C60.6492 196.836 60.6478 194.346 60.0815 191.955C59.5152 189.564 58.3994 187.337 56.8224 185.449C55.2454 183.562 53.2501 182.066 50.9943 181.08C48.7384 180.093 46.2835 179.644 43.8235 179.766C41.3635 179.888 38.9657 180.579 36.8193 181.784L39.6059 189.461L33.8517 183.916C32.3135 185.312 31.0664 186.997 30.1818 188.875C29.2972 190.753 28.7926 192.786 28.6966 194.859C28.6229 196.325 28.7589 197.795 29.1007 199.223C29.8906 202.582 31.7574 205.591 34.4178 207.796C37.0782 210 40.3868 211.278 43.8414 211.436Z" fill="#57B793"/>
<path opacity="0.1" d="M48.3694 164.758C52.0383 165.161 55.6051 166.296 59.2833 166.523C62.9615 166.75 67.0066 165.875 69.3334 163.021C70.5873 161.483 71.2143 159.537 72.2731 157.86C73.2765 156.297 74.6518 155.006 76.2765 154.102C77.2882 156.111 77.8599 158.312 77.9539 160.558C78.0478 162.805 77.6618 165.045 76.8214 167.131C75.981 169.217 74.7054 171.101 73.0793 172.658C71.4532 174.215 69.5139 175.409 67.3899 176.161C65.266 176.912 63.006 177.205 60.76 177.019C58.514 176.833 56.3334 176.172 54.3628 175.081C52.3923 173.99 50.6769 172.494 49.3305 170.691C47.9841 168.888 47.0375 166.82 46.5535 164.624C47.1712 164.652 47.775 164.693 48.3694 164.758Z" fill="black"/>
<path opacity="0.1" d="M43.8414 211.436C46.5798 211.562 49.3043 210.979 51.7506 209.745C54.1968 208.511 56.2816 206.667 57.8028 204.392C59.3239 202.117 60.2297 199.488 60.4321 196.761C60.6346 194.034 60.1269 191.3 58.9583 188.827C57.6966 189.673 56.6115 190.756 55.7631 192.014C54.6299 193.719 53.9472 195.688 52.6143 197.254C50.1389 200.154 45.9127 201.104 42.0766 200.933C38.2405 200.761 34.5391 199.668 30.7215 199.32C30.1921 199.274 29.6533 199.237 29.1193 199.223C29.9083 202.579 31.7724 205.586 34.429 207.79C37.0857 209.994 40.3901 211.274 43.8414 211.436Z" fill="black"/>
<path opacity="0.1" d="M82.416 237.042C85.1277 237.169 87.8268 236.601 90.2558 235.392C92.6848 234.182 94.7627 232.372 96.2912 230.134C97.8197 227.896 98.748 225.305 98.9873 222.607C99.2266 219.91 98.769 217.196 97.6583 214.725C96.3497 215.592 95.2117 216.691 94.3005 217.968C93.0652 219.705 92.2942 221.707 90.8499 223.31C88.1702 226.289 83.6653 227.34 79.6016 227.243C75.668 227.16 71.8783 226.196 67.9679 225.895C68.936 229.009 70.8424 231.75 73.4276 233.744C76.0129 235.739 79.1514 236.89 82.416 237.042Z" fill="black"/>
<path opacity="0.1" d="M74.572 267.814C76.1696 270.921 78.7509 273.413 81.9147 274.906C85.0785 276.398 88.6478 276.806 92.068 276.066C95.4881 275.327 98.5677 273.481 100.828 270.816C103.089 268.151 104.404 264.816 104.569 261.328C104.68 259.136 104.327 256.945 103.533 254.898C102.226 255.754 101.052 256.799 100.05 257.997C98.5407 259.85 97.5422 261.917 95.796 263.631C92.545 266.809 87.3017 268.125 82.6343 268.264C79.9403 268.273 77.2481 268.123 74.572 267.814Z" fill="black"/>
<path d="M200.268 307.607L138.964 320.116L137.571 319.977L83.6979 314.556V246.452L149.646 235.332L197.481 240.892L197.495 241.193L197.5 241.341L200.268 307.607Z" fill="#67AFD0"/>
<path opacity="0.1" d="M200.268 307.607L138.964 320.116L137.571 319.977V250.158L197.495 241.193L200.268 307.607Z" fill="black"/>
<path opacity="0.05" d="M197.5 241.341L197.481 241.355L137.571 250.158L83.6979 246.452L149.646 235.332L197.481 240.892L197.495 241.193L197.5 241.341Z" fill="black"/>
<path d="M267.609 310.387L206.305 322.896L204.912 322.757L151.039 317.336V249.231L216.987 238.112L264.822 243.672L264.836 243.973L264.841 244.121L267.609 310.387Z" fill="#FF6584"/>
<path opacity="0.1" d="M267.609 310.387L206.305 322.896L204.912 322.757V252.938L264.836 243.973L267.609 310.387Z" fill="#FF6584"/>
<path opacity="0.05" d="M264.841 244.121L264.822 244.135L204.912 252.938L151.039 249.231L216.987 238.112L264.822 243.672L264.836 243.973L264.841 244.121Z" fill="black"/>
<path d="M225.346 243.672L164.043 256.181L162.649 256.042L108.777 250.621V182.516L174.724 171.397L222.56 176.957L222.574 177.258L222.578 177.406L225.346 243.672Z" fill="#FF6584"/>
<path opacity="0.1" d="M225.346 243.672L164.043 256.181L162.649 256.042V186.223L222.574 177.258L225.346 243.672Z" fill="black"/>
<path opacity="0.05" d="M222.578 177.406L222.56 177.42L162.649 186.223L108.777 182.516L174.724 171.397L222.56 176.957L222.574 177.258L222.578 177.406Z" fill="black"/>
<path d="M260.178 246.526L228.184 253.058L227.455 252.984L199.339 250.153V214.609L233.757 208.804L258.724 211.709L258.733 211.866V211.94L260.178 246.526Z" fill="#3F3D56"/>
<path opacity="0.1" d="M260.178 246.526L228.184 253.058L227.455 252.984V216.546L258.733 211.866L260.178 246.526Z" fill="black"/>
<path opacity="0.05" d="M258.733 211.94L258.724 211.95L227.455 216.546L199.339 214.609L233.757 208.804L258.724 211.709L258.733 211.866V211.94Z" fill="black"/>
<path d="M174.26 177.494L142.266 184.022L141.537 183.953L113.421 181.122V145.578L147.839 139.773L172.806 142.677L172.816 142.835V142.909L174.26 177.494Z" fill="#3F3D56"/>
<path opacity="0.1" d="M174.26 177.494L142.266 184.022L141.537 183.953V147.514L172.816 142.835L174.26 177.494Z" fill="black"/>
<path opacity="0.05" d="M172.816 142.909L172.806 142.918L141.537 147.514L113.421 145.578L147.839 139.773L172.806 142.677L172.816 142.835V142.909Z" fill="black"/>
<path d="M230.455 176.104L198.461 182.632L197.732 182.563L169.616 179.732V144.188L204.034 138.383L229.001 141.288L229.011 141.445V141.519L230.455 176.104Z" fill="#67AFD0"/>
<path opacity="0.1" d="M230.455 176.104L198.461 182.632L197.732 182.563V146.124L229.011 141.445L230.455 176.104Z" fill="black"/>
<path opacity="0.05" d="M229.011 141.519L229.001 141.528L197.732 146.124L169.616 144.188L204.034 138.383L229.001 141.288L229.011 141.445V141.519Z" fill="black"/>
<path d="M247.174 140.43L215.18 146.958L214.451 146.889L186.335 144.058V108.514L220.753 102.709L245.72 105.614L245.73 105.771V105.845L247.174 140.43Z" fill="#3F3D56"/>
<path opacity="0.1" d="M247.174 140.43L215.18 146.958L214.451 146.889V110.45L245.73 105.771L247.174 140.43Z" fill="black"/>
<path opacity="0.05" d="M245.73 105.845L245.72 105.854L214.451 110.45L186.335 108.514L220.753 102.709L245.72 105.614L245.73 105.771V105.845Z" fill="black"/>
<path d="M268.965 67.7666C268.626 70.7781 266.322 73.2058 265.468 76.106C264.186 80.4842 266.396 85.1867 269.443 88.6151C271.898 91.3392 274.871 93.5502 278.189 95.12C281.507 96.6899 285.104 97.5874 288.772 97.7606C289.85 97.8531 290.935 97.7351 291.967 97.4131C292.887 97.0399 293.715 96.4743 294.396 95.7545C296.681 93.4612 297.912 90.2876 298.4 87.0862C298.887 83.8848 298.702 80.6278 298.511 77.3986C298.511 76.7303 298.388 76.0677 298.149 75.4435C297.838 74.8498 297.41 74.325 296.89 73.9007C295.243 72.3906 293.428 71.074 291.48 69.9766C290.644 69.5133 289.748 69.05 289.213 68.2485C288.847 67.6102 288.609 66.9068 288.512 66.1775L287.913 63.1383C287.807 62.262 287.507 61.4201 287.035 60.6735C285.981 59.2558 283.961 59.0613 282.191 58.9918L275.69 58.737C273.669 58.6582 271.013 58.0791 269.039 58.4775C267.181 58.8435 267.808 60.5392 268.143 62.0773C268.626 63.9377 268.902 65.8457 268.965 67.7666Z" fill="#FFC0C6"/>
<path opacity="0.1" d="M268.965 67.7666C268.626 70.7781 266.322 73.2058 265.468 76.106C264.186 80.4842 266.396 85.1867 269.443 88.6151C271.898 91.3392 274.871 93.5502 278.189 95.12C281.507 96.6899 285.104 97.5874 288.772 97.7606C289.85 97.8531 290.935 97.7351 291.967 97.4131C292.887 97.0399 293.715 96.4743 294.396 95.7545C296.681 93.4612 297.912 90.2876 298.4 87.0862C298.887 83.8848 298.702 80.6278 298.511 77.3986C298.511 76.7303 298.388 76.0677 298.149 75.4435C297.838 74.8498 297.41 74.325 296.89 73.9007C295.243 72.3906 293.428 71.074 291.48 69.9766C290.644 69.5133 289.748 69.05 289.213 68.2485C288.847 67.6102 288.609 66.9068 288.512 66.1775L287.913 63.1383C287.807 62.262 287.507 61.4201 287.035 60.6735C285.981 59.2558 283.961 59.0613 282.191 58.9918L275.69 58.737C273.669 58.6582 271.013 58.0791 269.039 58.4775C267.181 58.8435 267.808 60.5392 268.143 62.0773C268.626 63.9377 268.902 65.8457 268.965 67.7666Z" fill="black"/>
<path d="M310.256 203.402L307.498 233.572C306.778 241.485 306.044 249.431 304.632 257.242C304.168 259.934 303.573 262.612 302.895 265.266C301.01 272.637 298.274 279.842 297.392 287.398C297.364 287.616 297.341 287.861 297.318 288.061C297.136 289.728 296.979 291.415 296.389 292.972C295.924 294.125 295.269 295.177 294.791 296.317C293.862 298.596 293.714 301.116 293.598 303.586C290.25 301.7 286.584 300.444 282.781 299.879C280.924 299.606 278.903 299.416 277.673 298.026C276.279 296.516 276.442 294.204 276.674 292.175C277.405 285.874 278.132 279.576 278.857 273.281C279.098 270.573 279.564 267.889 280.25 265.257C280.501 264.381 280.803 263.52 281.109 262.658C281.532 261.472 281.959 260.286 282.28 259.067C282.724 257.11 283.031 255.123 283.199 253.123C283.947 246.785 284.848 240.461 285.637 234.128L285.679 233.794C286.863 224.195 287.764 214.549 287.504 204.88C287.467 203.448 287.407 202.017 287.314 200.58C287.184 198.5 286.993 197.398 288.707 196.096C290.616 194.659 293.128 193.654 295.311 192.714C296.486 192.204 309.425 187.617 309.708 188.627C310.309 190.773 310.621 192.988 310.637 195.215C310.663 197.949 310.536 200.682 310.256 203.402Z" fill="#605D82"/>
<path opacity="0.1" d="M304.632 257.242C304.168 259.934 303.573 262.612 302.895 265.266C301.01 272.637 298.274 279.842 297.392 287.398C297.364 287.616 297.341 287.861 297.318 288.061C291.549 279.842 286.692 271.002 281.063 262.695C281.485 261.509 281.913 260.323 282.233 259.104C282.695 257.136 283.018 255.137 283.199 253.123C283.947 246.785 284.848 240.461 285.637 234.128L285.679 233.794C286.005 235.138 286.472 236.444 287.072 237.691C290.853 245.354 299.835 249.227 304.228 256.561C304.374 256.789 304.508 257.016 304.632 257.242Z" fill="black"/>
<path d="M257.828 189.869C258.018 196.012 259.003 202.105 259.987 208.174L262.017 220.683C263.127 227.54 264.288 234.531 267.539 240.67C269.972 245.266 273.474 249.185 276.646 253.304C284.439 263.432 290.295 274.908 297.684 285.332C299.835 288.362 302.904 291.642 306.569 291.007C308.974 290.595 310.721 288.593 312.606 287.055C314.835 285.239 317.52 283.909 319.275 281.63C321.031 279.351 321.375 275.57 318.997 273.949C318.184 273.397 317.195 273.189 316.275 272.837C312.592 271.447 310.205 267.852 308.691 264.219C307.177 260.587 306.253 256.691 304.233 253.313C299.839 245.979 290.853 242.106 287.072 234.438C284.955 230.148 284.75 225.172 284.592 220.414L284.179 208.225C284.133 206.891 284.1 205.505 284.643 204.287C286.088 201.044 290.453 200.738 293.992 200.326C298.006 199.858 301.893 198.635 305.449 196.721C307.488 195.623 309.476 194.224 310.558 192.186C311.552 190.332 311.687 188.15 311.803 186.047L313.029 163.952C313.136 162.053 313.229 160.084 312.564 158.305C310.879 153.829 305.213 152.365 300.424 152.578C291.517 152.977 283.297 156.799 274.881 159.384C272.796 160.023 270.702 160.598 268.551 161.029C266.694 161.404 264.371 161.251 262.588 161.853C259.393 162.928 259.472 169.906 259.021 172.797C258.092 178.438 257.692 184.154 257.828 189.869Z" fill="#605D82"/>
<path d="M305.361 291.943C306.146 292.735 306.402 293.893 306.606 294.987C307.741 301.055 308.332 307.212 308.371 313.384C308.32 313.96 308.434 314.539 308.7 315.052C308.923 315.357 309.223 315.596 309.569 315.747C311.84 316.827 314.473 315.321 316.368 313.667C319.874 310.605 322.842 306.49 323.042 301.844C323.093 300.648 322.958 299.439 323.167 298.258C323.474 296.506 324.5 294.982 325.401 293.453C326.943 290.847 328.189 288.078 329.116 285.197C329.46 284.113 329.692 282.751 328.838 281.996C328.539 281.759 328.196 281.581 327.83 281.472L317.566 277.673C316.675 277.344 314.464 283.01 314.116 283.631C313.256 285.146 312.402 286.003 310.679 286.355C308.956 286.708 306.829 286.198 305.185 287.074C302.398 288.551 303.787 290.363 305.361 291.943Z" fill="#535070"/>
<path d="M289.534 295.441C289.344 295.062 289.078 294.727 288.754 294.454C288.279 294.153 287.739 293.97 287.179 293.921C285.229 293.588 282.916 293.37 281.564 294.82C280.301 296.177 280.519 298.387 279.465 299.916C279.131 300.38 278.676 300.797 278.388 301.306C278.03 302.086 277.87 302.942 277.923 303.799C277.868 306.157 277.812 308.524 277.979 310.878C278.114 312.852 278.443 314.922 279.683 316.47C281.671 318.953 285.256 319.31 288.433 319.467L291.011 319.602C291.719 319.685 292.438 319.618 293.119 319.407C293.541 319.213 293.92 318.937 294.233 318.594C294.546 318.251 294.786 317.848 294.94 317.41C296.282 314.084 294.159 310.503 292.85 307.167C291.34 303.326 291.61 299.068 289.534 295.441Z" fill="#535070"/>
<path d="M268.221 50.7867C268.189 50.4495 268.238 50.1093 268.365 49.7953C268.742 49.1328 269.726 49.332 270.469 49.4988C273.455 50.2493 276.604 49.5683 279.683 49.7443C282.762 49.9204 286.227 51.4539 286.845 54.4653C289.079 52.8882 291.004 50.916 292.525 48.6463C293.379 47.3722 294.122 45.9128 294.006 44.384C293.839 42.1787 291.986 40.5293 290.291 39.1302L285.182 34.9605C284.509 34.3447 283.732 33.8522 282.888 33.5057C281.708 33.1026 280.417 33.2972 279.173 33.2972C275.457 33.2972 271.472 31.6062 268.161 33.2972C266.768 34.0061 265.732 35.2245 264.729 36.4106L260.164 41.8034C259.818 42.1471 259.566 42.5728 259.43 43.0404C259.3 43.6983 259.639 44.3469 259.76 45.0094C259.973 46.214 259.453 47.502 259.853 48.6602C260.517 50.5783 262.857 50.8516 264.288 51.9543C264.817 52.362 265.653 53.7565 266.289 53.7379C267.409 53.7148 268.189 51.6763 268.221 50.7867Z" fill="#3F3D56"/>
<path d="M275.968 66.6918C284.048 66.6918 290.597 60.1579 290.597 52.0979C290.597 44.0379 284.048 37.504 275.968 37.504C267.889 37.504 261.339 44.0379 261.339 52.0979C261.339 60.1579 267.889 66.6918 275.968 66.6918Z" fill="#FFC0C6"/>
<path d="M279.395 84.0331C278.9 82.6186 277.967 81.3977 276.73 80.5467C275.494 79.6956 274.019 79.2584 272.517 79.2981C272.087 79.3801 271.641 79.3233 271.245 79.136C271.02 78.9649 270.84 78.7425 270.72 78.4874C269.833 76.8901 269.119 75.2036 268.588 73.456C268.356 72.6822 268.036 71.7695 267.251 71.5703C266.619 71.4082 265.974 71.8159 265.551 72.3116C265.176 72.8436 264.77 73.3526 264.334 73.8358C262.477 75.4759 259.226 73.9795 257.28 75.4852C256.959 75.7307 256.695 76.0458 256.351 76.2728C256.016 76.4761 255.655 76.632 255.278 76.7361C251.501 77.962 247.798 79.4053 244.188 81.0587C245.488 88.8606 246.816 96.8108 249.863 104.108C251.312 107.583 252.951 110.988 254.112 114.569C256.685 122.505 256.797 130.998 256.829 139.342C256.829 145.049 256.829 150.878 254.971 156.28C254.554 157.503 254.043 158.717 253.927 159.986C253.81 161.256 254.191 162.692 255.236 163.452C255.841 163.85 256.535 164.093 257.256 164.161C260.466 164.624 263.698 163.781 266.856 163.049C275.322 161.094 283.961 159.972 292.576 158.879L307.019 157.026C308.055 156.953 309.069 156.691 310.01 156.252C312.653 154.811 312.903 150.845 311.259 148.325C310.474 147.116 309.364 146.124 308.7 144.846C308.036 143.567 307.985 141.769 309.123 140.884C311.445 139.078 310.748 135.728 310.86 132.8C311.17 124.609 311.128 116.424 310.735 108.245C310.616 106.549 310.588 104.848 310.651 103.149C310.813 100.267 311.529 97.4455 312.244 94.6426L316.633 77.4079C315.486 75.601 313.289 74.452 311.213 73.9332C309.137 73.4143 306.968 73.2614 304.92 72.6266C300.74 71.3294 296.988 68.04 292.608 68.3458C292.276 68.3517 291.949 68.4308 291.651 68.5774C290.667 69.138 290.82 70.5557 290.76 71.6861C290.62 74.1926 288.772 76.2821 286.738 77.7507C284.704 79.2194 282.372 80.285 280.501 81.9575C280.176 82.2019 279.908 82.5144 279.717 82.873C279.526 83.2316 279.417 83.6276 279.395 84.0331Z" fill="#3F3D56"/>
<path d="M221.431 100.383C220.462 101.011 219.432 101.541 218.357 101.963C217.335 102.366 216.244 102.686 215.408 103.39C214.994 103.748 214.646 104.176 214.381 104.655C213.886 105.531 213.636 106.523 213.657 107.529C213.677 108.534 213.968 109.515 214.498 110.371C215.029 111.226 215.779 111.923 216.672 112.39C217.565 112.858 218.567 113.077 219.574 113.026C220.916 112.957 222.184 112.415 223.414 111.882L233.734 107.402C235.48 106.647 237.365 105.766 238.192 104.052C238.287 103.892 238.323 103.704 238.294 103.519C238.214 103.318 238.062 103.152 237.867 103.056C235.542 101.547 233.507 99.6323 231.862 97.404C231.439 96.8295 230.933 95.4766 230.32 95.1292C228.137 93.92 223.182 99.2525 221.431 100.383Z" fill="#FFC0C6"/>
<path d="M331.74 96.746L335.544 101.082C336.361 102.009 337.179 102.936 337.922 103.936C339.75 106.449 341.217 109.204 342.278 112.123C343.105 114.286 343.792 116.594 343.504 118.892C343.311 120.07 342.992 121.224 342.552 122.334C341.855 124.468 340.99 126.544 339.965 128.542C339.109 130.058 338.142 131.509 337.072 132.883C334.126 136.778 330.902 140.455 327.426 143.887C326.126 145.17 325.568 147.25 325.016 148.983C323.971 152.184 321.486 154.681 319.085 157.044C318.313 157.859 317.458 158.591 316.535 159.231C315.153 160.121 313.536 160.579 311.891 160.547C311.173 160.551 310.463 160.404 309.806 160.116C308.162 159.338 307.326 157.443 307.154 155.636C307.002 153.994 307.277 152.341 307.953 150.836C310.136 146.013 315.741 143.924 319.703 140.403C322.025 138.341 323.803 135.746 325.559 133.184C326.748 131.583 327.741 129.846 328.517 128.009C329.4 125.651 329.056 122.862 329.832 120.471C330.157 119.457 330.76 118.544 331.09 117.539C331.42 116.533 331.531 115.343 330.914 114.476C330.451 113.923 329.859 113.49 329.191 113.216C326.66 111.938 323.827 110.288 323.344 107.495C323.15 105.947 323.555 104.385 324.477 103.126C325.393 101.882 326.465 100.761 327.667 99.7898C328.768 98.7984 330.63 97.7004 331.74 96.746Z" fill="#FFC0C6"/>
<path d="M218.988 106.434C218.32 105.081 217.479 103.7 216.123 103.028C215.463 102.744 214.752 102.598 214.033 102.598C213.314 102.598 212.603 102.744 211.943 103.028C210.629 103.595 209.398 104.337 208.283 105.234L205.005 107.647C204.261 108.134 203.604 108.74 203.059 109.44C202.539 110.29 202.194 111.235 202.046 112.22C201.582 114.476 201.206 116.798 201.531 119.082C202.051 122.788 204.28 125.994 206.732 128.811C208.265 130.562 210.16 132.332 212.491 132.411C213.499 132.443 214.618 132.045 215.036 131.132C215.182 130.769 215.259 130.383 215.264 129.992C215.514 125.878 214.038 121.861 212.319 118.113C211.855 117.094 211.353 116.038 211.39 114.921C211.376 114.732 211.425 114.543 211.53 114.384C211.677 114.23 211.875 114.133 212.087 114.11C214.442 113.647 218.501 115.473 220.149 112.864C221.217 111.141 219.75 107.967 218.988 106.434Z" fill="#FFC0C6"/>
<path d="M267.451 46.1954C267.422 45.8579 267.472 45.5183 267.599 45.204C267.975 44.5368 268.96 44.7407 269.703 44.9075C272.689 45.658 275.838 44.977 278.917 45.153C281.996 45.3291 285.456 46.8626 286.079 49.874C288.31 48.2944 290.235 46.3226 291.758 44.055C292.613 42.7763 293.356 41.3169 293.24 39.788C293.073 37.5827 291.215 35.9334 289.525 34.5388L284.416 30.3692C283.745 29.7534 282.969 29.2609 282.126 28.9144C280.942 28.5113 279.656 28.7059 278.411 28.7059C274.696 28.7059 270.711 27.0149 267.4 28.7059C266.006 29.4148 264.971 30.6332 263.967 31.8193L259.398 37.2121C259.054 37.5566 258.803 37.9821 258.668 38.4491C258.538 39.107 258.877 39.7556 258.998 40.4181C259.212 41.6227 258.692 42.9106 259.091 44.0643C259.755 45.9869 262.096 46.2603 263.526 47.363C264.056 47.7707 264.892 49.1652 265.528 49.1466C266.629 49.1235 267.409 47.085 267.451 46.1954Z" fill="#3F3D56"/>
<path d="M236.381 86.1875C235.791 86.5694 235.273 87.0507 234.848 87.6098C234.314 88.4206 234.203 89.463 233.743 90.2969C232.758 92.1223 230.45 92.7756 229.015 94.272C228.783 94.4766 228.62 94.7488 228.551 95.0504C228.542 95.4579 228.679 95.8553 228.936 96.1716L235.875 107.05C238.197 107.254 240.398 105.808 242.711 106.003C243.57 106.072 244.457 106.369 245.284 106.114C245.875 105.851 246.429 105.513 246.933 105.109C248.326 104.238 250.146 104.136 251.303 102.991C252.459 101.847 252.557 100.165 252.543 98.6039C252.564 97.2488 252.425 95.896 252.129 94.5732C251.108 90.4035 247.908 87.1882 245.902 83.4911C244.922 81.6889 244.392 80.6372 242.326 81.8742C240.259 83.1112 238.336 84.7605 236.381 86.1875Z" fill="#3F3D56"/>
<path d="M320.631 80.6881C321.935 81.5328 323.112 82.5594 324.124 83.7366C325.178 85.0941 325.777 86.7619 326.794 88.1518C327.811 89.5417 329.116 90.5425 330.231 91.7841C331.926 93.6651 333.073 95.9538 334.197 98.2286C331.446 101.8 328.448 105.175 325.225 108.328C324.865 108.75 324.391 109.059 323.859 109.218C323.499 109.257 323.134 109.205 322.799 109.069C322.463 108.932 322.167 108.714 321.936 108.435C321.435 107.916 321.082 107.268 320.604 106.725C319.477 105.566 317.974 104.842 316.363 104.682C314.766 104.527 313.158 104.504 311.557 104.613C311.205 104.654 310.849 104.595 310.53 104.441C310.293 104.279 310.101 104.059 309.973 103.802C308.115 100.615 308.696 96.6117 309.36 92.9701L310.879 84.6308C311.1 83.0386 311.526 81.4815 312.146 79.9978C312.722 78.77 314.004 76.6852 315.592 77.0558C317.181 77.4265 319.289 79.7244 320.631 80.6881Z" fill="#3F3D56"/>
<path d="M188.193 141.82L156.199 148.348L155.469 148.279L127.353 145.448V109.904L161.772 104.099L186.739 107.003L186.748 107.161V107.235L188.193 141.82Z" fill="#67AFD0"/>
<path opacity="0.1" d="M188.193 141.82L156.199 148.348L155.469 148.279V111.84L186.748 107.161L188.193 141.82Z" fill="black"/>
<path opacity="0.05" d="M186.748 107.235L186.739 107.244L155.469 111.84L127.353 109.904L161.772 104.099L186.739 107.003L186.748 107.161V107.235Z" fill="black"/>
<path d="M204.912 106.61L172.918 113.142L172.189 113.068L144.073 110.237V74.6929L178.491 68.8878L203.458 71.7927L203.467 71.9502V72.0243L204.912 106.61Z" fill="#3F3D56"/>
<path opacity="0.1" d="M204.912 106.61L172.918 113.142L172.189 113.068V76.6295L203.467 71.9502L204.912 106.61Z" fill="black"/>
<path opacity="0.05" d="M203.467 72.0244L203.458 72.0336L172.189 76.6295L144.073 74.6929L178.491 68.8878L203.458 71.7927L203.467 71.9502V72.0244Z" fill="black"/>
</g>
<defs>
<clipPath id="clip0">
<rect width="441" height="326" fill="white"/>
</clipPath>
</defs>
</svg>
