<svg width="341" height="260" viewBox="0 0 341 260" fill="none" xmlns="http://www.w3.org/2000/svg">
<path opacity="0.1" d="M334.398 70.2473C331.024 62.4454 326.463 55.2077 320.875 48.789L133.215 46.9473L287.72 25.3411C277.739 21.3847 267.113 19.2863 256.371 19.1505C241.591 7.38743 223.391 0.689168 204.481 0.0521267C185.57 -0.584915 166.958 4.8733 151.413 15.6148C138.988 9.25321 125.214 5.94675 111.243 5.97209C69.5468 5.97209 34.8041 34.7267 27.011 72.854L334.398 70.2473Z" fill="#FFBEC7"/>
<path opacity="0.1" d="M340.997 102.226C341.006 91.8853 339.021 81.6392 335.15 72.0439L9.91405 106.035C6.57206 112.074 4.01519 118.513 2.30499 125.195L103.027 140.141L0 151.04C3.09915 194.204 40.2631 228.288 85.6624 228.288C108.515 228.288 129.283 219.652 144.669 205.567C160.103 219.918 181.071 228.745 204.169 228.745C238.444 228.745 268.025 209.315 281.8 181.222C309.437 172.489 330.905 150.561 338.253 123.128L210.884 103.46H340.984C340.99 103.049 340.997 102.637 340.997 102.226Z" fill="#67AFD0"/>
<path opacity="0.1" d="M9.07468 238.609C13.6782 238.609 17.4101 238.098 17.4101 237.468C17.4101 236.838 13.6782 236.327 9.07468 236.327C4.47115 236.327 0.739258 236.838 0.739258 237.468C0.739258 238.098 4.47115 238.609 9.07468 238.609Z" fill="#FFBEC7"/>
<path opacity="0.1" d="M41.0056 241.833C45.6091 241.833 49.341 241.322 49.341 240.692C49.341 240.062 45.6091 239.551 41.0056 239.551C36.4021 239.551 32.6702 240.062 32.6702 240.692C32.6702 241.322 36.4021 241.833 41.0056 241.833Z" fill="#FFBEC7"/>
<path opacity="0.1" d="M78.6183 237.468C83.2218 237.468 86.9537 236.957 86.9537 236.327C86.9537 235.697 83.2218 235.186 78.6183 235.186C74.0147 235.186 70.2828 235.697 70.2828 236.327C70.2828 236.957 74.0147 237.468 78.6183 237.468Z" fill="#FFBEC7"/>
<path opacity="0.1" d="M28.2249 250.682C31.4983 250.682 34.152 250.319 34.152 249.872C34.152 249.425 31.4983 249.062 28.2249 249.062C24.9514 249.062 22.2977 249.425 22.2977 249.872C22.2977 250.319 24.9514 250.682 28.2249 250.682Z" fill="#FFBEC7"/>
<path opacity="0.1" d="M61.3696 249.872C64.6431 249.872 67.2968 249.509 67.2968 249.062C67.2968 248.615 64.6431 248.252 61.3696 248.252C58.0962 248.252 55.4425 248.615 55.4425 249.062C55.4425 249.509 58.0962 249.872 61.3696 249.872Z" fill="#FFBEC7"/>
<path d="M41.1864 240.435C41.1864 240.435 29.4936 202.275 43.0136 186.992C53.1311 175.555 64.6108 176.925 69.7535 178.339C71.0841 178.692 72.3218 179.329 73.3809 180.205C74.44 181.081 75.2951 182.176 75.8872 183.414C77.6853 187.271 77.3593 193.542 64.6689 200.858C43.4204 213.107 42.1 229.908 42.1 229.908L41.1864 240.435Z" fill="#FFBEC7"/>
<path d="M67.923 183.752C67.923 183.752 33.4579 194.481 41.1864 240.435" stroke="#482079" stroke-miterlimit="10"/>
<path d="M47.7947 187.599C47.7947 187.599 52.5403 190.781 51.023 195.567" stroke="#482079" stroke-miterlimit="10"/>
<path d="M64.4655 190.428C64.4655 190.428 61.5601 187.49 58.0348 189.11" stroke="#482079" stroke-miterlimit="10"/>
<path d="M50.8421 205.213C50.8421 205.213 45.7479 202.642 44.4308 205.856" stroke="#482079" stroke-miterlimit="10"/>
<path d="M38.2357 210.575C38.2357 210.575 42.0612 210.272 42.1322 212.095" stroke="#482079" stroke-miterlimit="10"/>
<path d="M40.7216 240.74C40.7216 240.74 54.4159 213.005 58.1769 213.612C59.9621 213.901 60.7853 215.65 61.1598 217.408C61.6239 219.687 61.3632 222.053 60.4141 224.177C58.4771 228.597 53.2408 237.034 40.7216 240.74Z" fill="#FFBEC7"/>
<path d="M58.0639 218.877C58.0639 218.877 43.6916 239.628 40.9153 240.538" stroke="#482079" stroke-miterlimit="10"/>
<path d="M59.3874 222.114H56.0332" stroke="#482079" stroke-miterlimit="10"/>
<path d="M55.3682 229.706L50.1125 229.931" stroke="#482079" stroke-miterlimit="10"/>
<path d="M52.1689 223.634L52.7403 226.36" stroke="#482079" stroke-miterlimit="10"/>
<path d="M46.5775 231.933L46.6808 234.411" stroke="#482079" stroke-miterlimit="10"/>
<path d="M41.1186 240.74C41.1186 240.74 27.4242 213.005 23.6633 213.612C21.878 213.901 21.0548 215.65 20.6803 217.408C20.2199 219.681 20.4817 222.04 21.4293 224.158C23.3695 228.597 28.5896 237.034 41.1186 240.74Z" fill="#FFBEC7"/>
<path d="M23.7666 218.877C23.7666 218.877 38.1389 239.628 40.9152 240.538" stroke="#482079" stroke-miterlimit="10"/>
<path d="M22.4463 222.114H25.8005" stroke="#482079" stroke-miterlimit="10"/>
<path d="M26.4622 229.706L31.721 229.931" stroke="#482079" stroke-miterlimit="10"/>
<path d="M29.6647 223.634L29.0933 226.36" stroke="#482079" stroke-miterlimit="10"/>
<path d="M35.2561 231.933L35.1528 234.411" stroke="#482079" stroke-miterlimit="10"/>
<path d="M64.6302 247.217C65.0036 246.915 65.276 246.507 65.4114 246.047C65.4714 245.816 65.4499 245.572 65.3506 245.355C65.2513 245.137 65.0802 244.961 64.8658 244.854C64.3655 244.662 63.8296 245.009 63.426 245.356C63.0225 245.703 62.5544 246.105 62.025 246.031C62.2952 245.783 62.4966 245.47 62.6098 245.122C62.7229 244.774 62.7438 244.403 62.6706 244.044C62.6484 243.896 62.5859 243.756 62.4898 243.639C62.2122 243.344 61.7086 243.472 61.3761 243.704C60.3172 244.443 60.0234 245.873 60.017 247.162C59.9588 246.69 59.9523 246.212 59.9976 245.738C59.9976 245.263 59.862 244.732 59.4585 244.478C59.2088 244.342 58.9265 244.275 58.6417 244.286C58.1639 244.286 57.6377 244.314 57.3117 244.662C56.9081 245.092 57.0114 245.812 57.3633 246.288C57.7559 246.728 58.2209 247.099 58.7386 247.384C59.1267 247.62 59.4575 247.938 59.7071 248.316C59.736 248.369 59.7597 248.425 59.7781 248.483H62.7578C63.4373 248.149 64.0674 247.723 64.6302 247.217Z" fill="#FFBEC7"/>
<path d="M12.4514 236.047C12.8251 235.745 13.0976 235.337 13.2327 234.877C13.2922 234.646 13.2706 234.401 13.1714 234.184C13.0721 233.967 12.9013 233.789 12.6871 233.682C12.1867 233.492 11.654 233.839 11.2473 234.186C10.8405 234.534 10.3789 234.932 9.8462 234.858C10.1172 234.611 10.3192 234.298 10.4324 233.95C10.5455 233.602 10.566 233.23 10.4919 232.872C10.4677 232.724 10.4041 232.585 10.3078 232.47C10.0302 232.174 9.5266 232.3 9.19409 232.534C8.13521 233.274 7.84144 234.704 7.83498 235.993C7.77683 235.519 7.77033 235.041 7.81561 234.566C7.81561 234.09 7.68326 233.563 7.27972 233.309C7.02882 233.172 6.74552 233.106 6.45974 233.116C5.98518 233.097 5.45574 233.145 5.12969 233.492C4.72615 233.923 4.83269 234.643 5.18134 235.099C5.57337 235.542 6.0398 235.914 6.55981 236.199C6.9489 236.433 7.27994 236.751 7.5283 237.131C7.5575 237.184 7.58233 237.24 7.60255 237.298H10.5823C11.2594 236.967 11.8882 236.547 12.4514 236.047Z" fill="#FFBEC7"/>
<path d="M29.8422 247.217C30.2156 246.915 30.488 246.507 30.6235 246.047C30.6834 245.816 30.662 245.572 30.5626 245.355C30.4633 245.137 30.2922 244.961 30.0779 244.854C29.5775 244.662 29.0416 245.009 28.6381 245.356C28.2345 245.703 27.7664 246.105 27.237 246.031C27.5072 245.783 27.7087 245.47 27.8218 245.122C27.9349 244.774 27.9559 244.403 27.8826 244.044C27.8604 243.896 27.7979 243.756 27.7019 243.639C27.4242 243.344 26.9206 243.472 26.5881 243.704C25.5292 244.443 25.2355 245.873 25.229 247.162C25.1708 246.69 25.1644 246.212 25.2096 245.738C25.2096 245.263 25.0773 244.732 24.6737 244.478C24.4227 244.342 24.1395 244.275 23.8538 244.286C23.3792 244.286 22.8498 244.314 22.5237 244.662C22.1202 245.092 22.2235 245.812 22.5754 246.288C22.9679 246.728 23.433 247.099 23.9506 247.384C24.3388 247.62 24.6695 247.938 24.9191 248.316C24.948 248.369 24.9718 248.425 24.9901 248.483H27.9698C28.6493 248.149 29.2794 247.723 29.8422 247.217Z" fill="#FFBEC7"/>
<path d="M79.1607 224.637C79.1607 224.637 80.2777 226.093 78.6441 228.288C77.0106 230.484 75.6677 232.338 76.21 233.707C76.21 233.707 78.6732 229.629 80.678 229.571C82.6827 229.513 81.3656 227.089 79.1607 224.637Z" fill="#FFBEC7"/>
<path opacity="0.1" d="M79.1606 224.637C79.2579 224.778 79.335 224.931 79.3898 225.093C81.3462 227.382 82.3857 229.516 80.5068 229.571C78.7538 229.622 76.6555 232.74 76.1519 233.527C76.168 233.589 76.1874 233.646 76.21 233.707C76.21 233.707 78.6731 229.629 80.6779 229.571C82.6827 229.513 81.3655 227.089 79.1606 224.637Z" fill="black"/>
<path d="M81.2365 226.492C81.2365 227.003 81.1784 227.417 81.1074 227.417C81.0364 227.417 80.9783 227.003 80.9783 226.492C80.9783 225.981 81.0525 226.222 81.1235 226.222C81.1946 226.222 81.2365 225.981 81.2365 226.492Z" fill="#FFD037"/>
<path d="M81.9498 227.102C81.4979 227.346 81.104 227.494 81.0717 227.424C81.0394 227.353 81.3752 227.102 81.8271 226.868C82.2791 226.633 82.0983 226.8 82.1338 226.868C82.1694 226.935 82.4018 226.858 81.9498 227.102Z" fill="#FFD037"/>
<path d="M73.2593 224.637C73.2593 224.637 72.1424 226.093 73.7759 228.288C75.4094 230.484 76.7556 232.338 76.21 233.707C76.21 233.707 73.7468 229.629 71.742 229.571C69.7373 229.513 71.0673 227.089 73.2593 224.637Z" fill="#FFBEC7"/>
<path opacity="0.1" d="M73.2593 224.637C73.1625 224.777 73.0864 224.931 73.0334 225.093C71.077 227.382 70.0343 229.516 71.9131 229.571C73.6661 229.622 75.7677 232.74 76.2713 233.527C76.2519 233.589 76.2326 233.646 76.21 233.707C76.21 233.707 73.7468 229.629 71.742 229.571C69.7373 229.513 71.0673 227.089 73.2593 224.637Z" fill="black"/>
<path d="M71.1836 226.492C71.1836 227.003 71.2417 227.417 71.3127 227.417C71.3838 227.417 71.4419 227.003 71.4419 226.492C71.4419 225.981 71.3708 226.222 71.2998 226.222C71.2288 226.222 71.1836 225.981 71.1836 226.492Z" fill="#FFD037"/>
<path d="M70.4701 227.102C70.922 227.346 71.3159 227.494 71.3514 227.424C71.3869 227.353 71.0447 227.102 70.596 226.868C70.1473 226.633 70.3216 226.8 70.2732 226.868C70.2247 226.935 70.0214 226.858 70.4701 227.102Z" fill="#FFD037"/>
<path d="M71.5387 233.515C71.5387 233.515 74.6637 233.421 75.6031 232.753C76.5425 232.084 80.4068 231.287 80.6425 232.358C80.8781 233.428 85.3332 237.68 81.8079 237.709C78.2826 237.738 73.6177 237.163 72.6783 236.594C71.7388 236.025 71.5387 233.515 71.5387 233.515Z" fill="#A8A8A8"/>
<path opacity="0.2" d="M81.8724 237.336C78.3471 237.365 73.679 236.79 72.7396 236.221C72.0229 235.787 71.7389 234.231 71.6452 233.511H71.5387C71.5387 233.511 71.7388 236.022 72.6783 236.591C73.6177 237.16 78.2826 237.735 81.8078 237.706C82.828 237.706 83.1766 237.336 83.1573 236.803C83.012 237.131 82.6278 237.33 81.8724 237.336Z" fill="black"/>
<path opacity="0.1" d="M197.697 260C256.43 260 304.043 257.85 304.043 255.198C304.043 252.546 256.43 250.396 197.697 250.396C138.963 250.396 91.3507 252.546 91.3507 255.198C91.3507 257.85 138.963 260 197.697 260Z" fill="#FFBEC7"/>
<path d="M186.863 111.627C186.863 111.627 193.642 124.398 194.168 126.22C194.305 126.726 194.601 127.175 195.012 127.502C195.423 127.83 195.928 128.018 196.454 128.039C196.454 128.039 203.207 129.646 204.821 129.862C206.436 130.077 220.427 131.254 220.427 131.254C220.427 131.254 223.978 131.363 224.407 130.077C224.801 128.901 231.661 122.72 235.632 128.113C235.998 128.612 236.241 129.19 236.341 129.8C236.441 130.41 236.395 131.034 236.207 131.623C235.477 133.937 233.979 137.611 232.372 135.326C230.112 132.112 227.484 133.015 227.484 134.728C227.484 136.441 223.868 135.805 222.687 136.046C222.041 136.178 219.82 136.766 217.899 137.28C215.67 137.88 213.386 138.258 211.081 138.408C207.269 138.656 201.648 138.862 199.656 138.113C197.251 137.203 193.058 136.994 191.263 136.946C190.668 136.932 190.094 136.726 189.626 136.361C187.135 134.419 185.027 132.033 183.412 129.325C180.613 124.504 174.857 114.52 175.244 111.627C175.631 108.735 186.863 111.627 186.863 111.627Z" fill="#EFB7B9"/>
<path opacity="0.05" d="M186.863 111.627C186.863 111.627 193.642 124.398 194.168 126.22C194.305 126.726 194.601 127.175 195.012 127.502C195.423 127.83 195.928 128.018 196.454 128.039C196.454 128.039 203.207 129.646 204.821 129.862C206.436 130.077 220.427 131.254 220.427 131.254C220.427 131.254 223.978 131.363 224.407 130.077C224.801 128.901 231.661 122.72 235.632 128.113C235.998 128.612 236.241 129.19 236.341 129.8C236.441 130.41 236.395 131.034 236.207 131.623C235.477 133.937 233.979 137.611 232.372 135.326C230.112 132.112 227.484 133.015 227.484 134.728C227.484 136.441 223.868 135.805 222.687 136.046C222.041 136.178 219.82 136.766 217.899 137.28C215.67 137.88 213.386 138.258 211.081 138.408C207.269 138.656 201.648 138.862 199.656 138.113C197.251 137.203 193.058 136.994 191.263 136.946C190.668 136.932 190.094 136.726 189.626 136.361C187.135 134.419 185.027 132.033 183.412 129.325C180.613 124.504 174.857 114.52 175.244 111.627C175.631 108.735 186.863 111.627 186.863 111.627Z" fill="black"/>
<path d="M291.046 231.249C291.034 238.079 288.375 244.64 283.625 249.567C278.874 254.494 272.397 257.406 265.543 257.696C258.69 257.986 251.988 255.632 246.835 251.124C241.681 246.617 238.473 240.303 237.879 233.499C237.84 233.068 237.811 232.637 237.798 232.213V232.19C237.785 231.871 237.779 231.55 237.779 231.226C237.779 224.193 240.585 217.448 245.58 212.475C250.574 207.502 257.349 204.709 264.412 204.709C271.476 204.709 278.25 207.502 283.245 212.475C288.24 217.448 291.046 224.193 291.046 231.226V231.249Z" fill="#65617D"/>
<path d="M264.412 245.697C272.435 245.697 278.94 239.221 278.94 231.233C278.94 223.244 272.435 216.768 264.412 216.768C256.389 216.768 249.885 223.244 249.885 231.233C249.885 239.221 256.389 245.697 264.412 245.697Z" fill="#DCE0ED"/>
<path d="M264.412 239.911C269.226 239.911 273.129 236.026 273.129 231.233C273.129 226.44 269.226 222.554 264.412 222.554C259.598 222.554 255.696 226.44 255.696 231.233C255.696 236.026 259.598 239.911 264.412 239.911Z" fill="#65617D"/>
<path d="M194.469 180.875L130.335 182.161V172.749C130.91 165.173 138.729 162.515 145.831 161.683C151.384 161.055 157.006 161.475 162.402 162.92C176.009 166.507 184.677 167.202 188.948 167.269C189.886 167.283 190.79 167.619 191.507 168.22C192.225 168.821 192.712 169.65 192.887 170.567C193.09 171.644 193.29 172.817 193.477 173.974C193.619 174.88 193.755 175.774 193.878 176.606C194.233 179.004 194.469 180.875 194.469 180.875Z" fill="#65617D"/>
<path d="M245.633 232.946H112.406C111.377 232.956 110.368 232.665 109.504 232.109C108.64 231.553 107.96 230.756 107.547 229.818C106.543 227.43 107.947 225.907 109.445 225.013C112.511 223.204 114.835 220.373 116.005 217.022C117.426 212.844 118.814 206.306 119.359 196.091C119.921 185.526 123.763 180.303 127.914 177.77C133.276 174.504 139.155 175.729 139.155 175.729L193.174 176.16C194.135 176.594 195.025 177.172 195.811 177.873C200.625 182.334 193.606 188.159 193.606 188.159C178.54 204.014 189.946 220.086 189.946 220.086H217.586C222.75 220.112 227.801 218.573 232.065 215.672C235.8 213.101 237.23 210.616 237.805 209.112C238.231 207.961 238.664 206.814 239.18 205.702C246.431 190.045 237.685 164.576 233.912 155.052C232.975 152.683 232.346 151.301 232.346 151.301L241.014 150.658L246.502 150.243H246.557C258.637 170.988 263.127 192.305 264.635 208.1C264.777 209.588 264.893 211.031 264.987 212.416C265.158 215.05 264.784 217.691 263.889 220.175C262.993 222.66 261.595 224.934 259.781 226.859C257.966 228.783 255.775 230.317 253.341 231.364C250.908 232.411 248.284 232.949 245.633 232.946Z" fill="#FFBEC7"/>
<path opacity="0.1" d="M193.881 176.606H130.335V173.974H193.481C193.623 174.864 193.758 175.758 193.881 176.606Z" fill="black"/>
<path opacity="0.1" d="M195.815 177.892H128.427C128.252 177.893 128.079 177.858 127.917 177.789C133.28 174.524 139.158 175.748 139.158 175.748L193.177 176.179C194.139 176.613 195.028 177.191 195.815 177.892Z" fill="black"/>
<path d="M196.376 174.601H104.848C104.119 174.601 103.528 175.189 103.528 175.915V175.919C103.528 176.645 104.119 177.233 104.848 177.233H196.376C197.105 177.233 197.697 176.645 197.697 175.919V175.915C197.697 175.189 197.105 174.601 196.376 174.601Z" fill="#DCE0ED"/>
<path opacity="0.1" d="M264.635 208.106C261.565 211.43 259.305 212.738 259.412 209.231C259.735 198.624 241.01 150.668 241.01 150.668L246.547 150.25C258.63 170.978 263.124 192.295 264.635 208.106Z" fill="black"/>
<path opacity="0.1" d="M290.884 228.327C287.704 229.086 283.782 229.857 278.94 230.577C277.138 230.84 275.201 231.093 273.129 231.336C268.18 231.92 262.456 232.432 255.844 232.824C253.972 232.935 252.027 233.037 250.011 233.129C246.234 233.3 242.191 233.431 237.882 233.521L237.802 232.235V232.213C243.822 229.793 253.297 223.335 254.821 206.515C258.626 205.055 262.717 204.484 266.778 204.846C270.84 205.208 274.764 206.493 278.248 208.603C281.732 210.713 284.684 213.59 286.875 217.014C289.066 220.438 290.439 224.317 290.887 228.353L290.884 228.327Z" fill="black"/>
<path d="M232.778 232.946C232.778 232.946 263.35 229.641 252.82 183.263C252.82 183.263 267.925 197.052 277.322 204.715C286.72 212.378 303.471 222.943 303.471 222.943C303.471 222.943 293.47 232.248 232.778 232.946Z" fill="#FFBEC7"/>
<path opacity="0.1" d="M232.778 232.946C232.778 232.946 263.35 229.641 252.82 183.263C252.82 183.263 267.925 197.052 277.322 204.715C286.72 212.378 303.471 222.943 303.471 222.943C303.471 222.943 293.47 232.248 232.778 232.946Z" fill="white"/>
<path d="M151.103 257.75C165.812 257.75 177.736 245.878 177.736 231.232C177.736 216.587 165.812 204.715 151.103 204.715C136.394 204.715 124.469 216.587 124.469 231.232C124.469 245.878 136.394 257.75 151.103 257.75Z" fill="#65617D"/>
<path d="M151.103 245.697C159.126 245.697 165.63 239.221 165.63 231.233C165.63 223.244 159.126 216.768 151.103 216.768C143.08 216.768 136.576 223.244 136.576 231.233C136.576 239.221 143.08 245.697 151.103 245.697Z" fill="#DCE0ED"/>
<path d="M151.103 239.911C155.917 239.911 159.819 236.026 159.819 231.233C159.819 226.44 155.917 222.554 151.103 222.554C146.289 222.554 142.386 226.44 142.386 231.233C142.386 236.026 146.289 239.911 151.103 239.911Z" fill="#65617D"/>
<path opacity="0.1" d="M180.964 223.268C180.964 206.145 167.306 192.263 150.457 192.263C133.609 192.263 119.95 206.145 119.95 223.268C119.95 223.992 119.975 224.709 120.024 225.418H180.89C180.94 224.709 180.964 223.992 180.964 223.268Z" fill="black"/>
<path d="M179.835 222.734C179.835 206.245 166.683 192.877 150.457 192.877C134.232 192.877 121.08 206.245 121.08 222.734C121.08 223.432 121.106 224.119 121.151 224.804H179.764C179.809 224.119 179.835 223.432 179.835 222.734Z" fill="#FFBEC7"/>
<path opacity="0.1" d="M179.835 222.734C179.835 223.213 179.835 223.698 179.799 224.161C179.799 224.377 179.776 224.589 179.764 224.804H121.151C121.151 224.589 121.125 224.377 121.115 224.161C121.093 223.689 121.08 223.197 121.08 222.734C121.08 206.245 134.232 192.877 150.457 192.877C166.683 192.877 179.835 206.245 179.835 222.734Z" fill="white"/>
<path opacity="0.1" d="M179.799 224.177C179.799 224.393 179.776 224.605 179.764 224.82H121.151C121.151 224.605 121.125 224.393 121.115 224.177H179.799Z" fill="black"/>
<path opacity="0.1" d="M183.708 225.447H111.673C109.77 225.447 108.228 226.982 108.228 228.875C108.228 230.768 109.77 232.303 111.673 232.303H183.708C185.611 232.303 187.153 230.768 187.153 228.875C187.153 226.982 185.611 225.447 183.708 225.447Z" fill="black"/>
<path d="M183.708 224.804H111.673C109.77 224.804 108.228 226.339 108.228 228.232C108.228 230.125 109.77 231.66 111.673 231.66H183.708C185.611 231.66 187.153 230.125 187.153 228.232C187.153 226.339 185.611 224.804 183.708 224.804Z" fill="#DCE0ED"/>
<path opacity="0.1" d="M259.381 180.089C261.327 179.213 261.109 174.548 258.893 169.669C256.678 164.791 253.304 161.546 251.358 162.422C249.412 163.299 249.63 167.964 251.845 172.842C254.061 177.72 257.435 180.965 259.381 180.089Z" fill="black"/>
<path d="M259.703 179.766C261.65 178.89 261.431 174.225 259.216 169.347C257.001 164.468 253.627 161.224 251.681 162.1C249.734 162.976 249.953 167.641 252.168 172.52C254.383 177.398 257.757 180.642 259.703 179.766Z" fill="#DCE0ED"/>
<path opacity="0.1" d="M246.499 150.25V155.286H236.652C235.735 155.287 234.82 155.214 233.915 155.068C232.979 152.699 232.349 151.317 232.349 151.317L241.017 150.674L246.499 150.25Z" fill="black"/>
<path d="M246.499 154.631H236.652C228.004 154.631 220.995 148.202 220.995 140.241V138.907C220.995 130.961 228.004 124.52 236.652 124.52L246.499 125.41V154.631Z" fill="#FFBEC7"/>
<path d="M230.276 133.037C230.276 133.037 236.168 136.171 232.778 141.475C232.778 141.475 228.62 148.263 222.083 147.621L219.704 133.037C219.704 133.037 227.532 132.314 230.276 133.037Z" fill="#FFBEC7"/>
<path opacity="0.1" d="M228.013 132.755C228.95 132.79 229.866 133.034 230.696 133.469C231.525 133.904 232.245 134.519 232.804 135.268C233.853 136.715 234.48 138.823 232.785 141.475C232.785 141.475 228.627 148.263 222.089 147.62L219.71 133.037C219.71 133.037 224.607 132.571 228.013 132.755Z" fill="black"/>
<path opacity="0.1" d="M246.176 125.41H248.074C249.668 125.41 251.197 126.041 252.324 127.163C253.452 128.285 254.085 129.808 254.085 131.395V148.649C254.085 150.236 253.452 151.759 252.324 152.881C251.197 154.003 249.668 154.634 248.074 154.634H246.176V125.41Z" fill="black"/>
<path d="M246.499 125.41H248.397C249.991 125.41 251.52 126.041 252.647 127.163C253.774 128.285 254.408 129.808 254.408 131.395V148.649C254.408 150.236 253.774 151.759 252.647 152.881C251.52 154.003 249.991 154.634 248.397 154.634H246.499V125.41Z" fill="#DCE0ED"/>
<path d="M176.593 162.939C176.593 162.939 178.114 163.492 180.144 164.264C183.373 165.501 187.925 167.308 189.507 168.298C191.088 169.288 196.986 170.914 201.403 172.058C204.677 172.903 208.048 173.317 211.43 173.289C214.865 173.257 219.026 173.225 220.175 173.225C220.376 173.223 220.577 173.238 220.776 173.27C221.983 173.469 221.935 174.276 221.906 174.469V174.511C214.803 178.795 206.194 197.975 205.658 201.189C205.254 203.6 201.706 210.282 199.956 213.477C199.369 214.547 198.988 215.226 198.988 215.226L201.141 217.688L207.382 220.474L213.299 223.046C213.299 223.046 219.542 223.367 219.649 223.046C219.756 222.724 219.756 219.404 219.756 219.404C218.996 218.916 218.275 218.37 217.599 217.771C216.167 216.53 214.837 215.177 213.622 213.725C210.18 209.652 217.066 201.832 217.066 201.832L230.302 184.69C230.302 184.69 231.377 182.762 236.543 175.048C241.708 167.333 236.543 163.155 236.543 163.155L227.452 159.397C211.685 153.522 192.667 148.813 192.667 148.813L192.396 148.778L188.364 148.276L176.593 162.939Z" fill="#EFB7B9"/>
<path d="M217.215 220.474C217.215 220.474 218.345 221.802 217.499 221.921C216.653 222.04 214.432 221.561 214.432 221.561L200.347 214.168C200.347 214.168 198.814 213.082 198.452 215.213C198.09 217.344 197.845 217.141 197.845 217.141C197.845 217.141 195.989 221.117 197.845 221.94C199.701 222.763 210.852 226.019 210.852 226.019C210.852 226.019 227.035 229.677 228.569 225.457C230.102 221.236 225.825 221.963 225.825 221.963C225.825 221.963 220.498 220.677 218.68 218.106C218.668 218.106 216.046 218.829 217.215 220.474Z" fill="#444053"/>
<path opacity="0.05" d="M236.53 163.155L227.439 159.397C211.672 153.522 192.654 148.813 192.654 148.813L192.383 148.778L188.351 148.276L176.593 162.939C176.593 162.939 178.114 163.492 180.144 164.264C183.373 165.501 187.925 167.308 189.507 168.298C191.088 169.288 196.986 170.914 201.403 172.058C204.677 172.903 208.048 173.317 211.43 173.289C214.865 173.257 219.026 173.225 220.175 173.225C220.376 173.223 220.577 173.238 220.776 173.27C221.983 173.469 221.935 174.276 221.906 174.469V174.511C214.803 178.795 206.193 197.975 205.658 201.189C205.254 203.6 201.706 210.282 199.956 213.477L199.721 213.908C199.253 213.831 198.668 213.998 198.462 215.213C198.097 217.341 197.855 217.141 197.855 217.141C197.855 217.141 195.999 221.117 197.855 221.94C199.711 222.763 210.852 226.019 210.852 226.019C210.852 226.019 227.035 229.677 228.569 225.456C230.102 221.236 225.825 221.963 225.825 221.963C225.825 221.963 220.498 220.677 218.681 218.106C218.519 218.152 218.362 218.21 218.209 218.279C218.019 218.125 217.815 217.958 217.599 217.771C216.167 216.53 214.837 215.177 213.622 213.725C210.18 209.652 217.066 201.832 217.066 201.832L230.302 184.69C230.302 184.69 231.377 182.762 236.543 175.048C241.708 167.333 236.53 163.155 236.53 163.155Z" fill="black"/>
<path d="M165.753 91.2556L166.244 91.8727L166.518 92.2167L168.229 94.3606C168.229 94.3606 172.313 95.6655 175.893 96.5109C179.622 97.3884 182.801 97.7709 180.274 95.672C178.705 94.3702 178.601 92.1909 179.173 89.8542C179.654 88.056 180.343 86.3194 181.226 84.6793C181.353 84.435 181.479 84.1971 181.604 83.9657C182.406 82.489 183.294 81.0605 184.264 79.6875C181.969 78.105 179.588 76.6489 177.133 75.3258C174.176 73.8023 171.748 73.1369 173.288 76.1519C174.276 78.0804 173.953 80.2468 173.029 82.32C172.958 82.4839 172.881 82.6414 172.8 82.8118C171.971 84.4183 170.948 85.9177 169.753 87.2764C168.528 88.7069 167.191 90.0375 165.753 91.2556Z" fill="#EFB7B9"/>
<path d="M186.201 140.218L188.39 142.208L190.504 150.308H186.976L183.079 145.261L186.201 140.218Z" fill="#444053"/>
<path opacity="0.1" d="M183.079 145.261L185.436 148.311L186.976 150.308H190.504L190.142 148.922L188.603 143.021L188.39 142.208L186.201 140.218L183.211 145.046L183.079 145.261Z" fill="black"/>
<path opacity="0.1" d="M183.079 145.261L185.436 148.311L186.976 150.308H190.504L190.142 148.922L188.603 143.021L188.39 142.208L186.201 140.218L183.211 145.046L183.079 145.261Z" fill="black"/>
<path d="M171.351 166.575C171.351 166.575 172.871 167.128 174.902 167.899C178.13 169.137 182.682 170.943 184.264 171.933C185.846 172.923 191.744 174.549 196.16 175.694C199.434 176.539 202.805 176.954 206.187 176.928C209.622 176.896 213.783 176.864 214.932 176.864C215.133 176.862 215.334 176.877 215.533 176.909C216.74 177.108 216.692 177.915 216.663 178.108V178.149C209.561 182.434 200.951 201.613 200.415 204.828C200.011 207.238 196.463 213.921 194.714 217.116C194.126 218.186 193.745 218.864 193.745 218.864L195.898 221.326L202.135 224.11L208.053 226.681C208.053 226.681 214.296 227.003 214.403 226.681C214.509 226.36 214.509 223.04 214.509 223.04C213.75 222.551 213.029 222.005 212.353 221.407C210.921 220.165 209.591 218.812 208.376 217.36C204.934 213.287 211.82 205.467 211.82 205.467L225.056 188.326C225.056 188.326 226.131 186.397 231.297 178.683C236.462 170.969 231.297 166.79 231.297 166.79L223.013 162.075C210.1 154.255 191.912 149.755 191.912 149.755L191.64 149.719L187.608 149.218L171.351 166.575Z" fill="#EFB7B9"/>
<path opacity="0.1" d="M193.742 218.861L195.895 221.323L202.135 224.11L208.053 226.681C208.053 226.681 214.296 227.003 214.403 226.681C214.51 226.36 214.51 223.039 214.51 223.039C213.75 222.551 213.029 222.005 212.353 221.407C211.685 221.763 210.926 222.432 211.659 223.467C211.659 223.467 212.789 224.791 211.943 224.913C211.097 225.035 208.876 224.553 208.876 224.553L194.791 217.161L194.71 217.106C194.116 218.183 193.742 218.861 193.742 218.861Z" fill="black"/>
<path d="M211.972 224.11C211.972 224.11 213.102 225.434 212.253 225.556C211.404 225.678 209.186 225.193 209.186 225.193L195.104 217.8C195.104 217.8 193.571 216.717 193.206 218.845C192.841 220.973 192.602 220.773 192.602 220.773C192.602 220.773 190.746 224.753 192.602 225.575C194.459 226.398 205.596 229.642 205.596 229.642C205.596 229.642 221.776 233.296 223.31 229.079C224.843 224.862 220.566 225.582 220.566 225.582C220.566 225.582 215.239 224.296 213.425 221.725C213.434 221.738 210.8 222.461 211.972 224.11Z" fill="#444053"/>
<path opacity="0.1" d="M172.209 81.5035C174.075 82.7892 176.923 84.8238 179.354 84.8238C179.981 84.8237 180.607 84.7742 181.226 84.6759C182.125 82.9461 183.14 81.2785 184.264 79.6842C184.264 79.6842 170.059 69.8262 173.288 76.1486C174.353 78.2507 173.304 79.2825 172.209 81.5035Z" fill="black"/>
<path d="M167.732 72.6097C167.73 74.5395 168.214 76.4389 169.14 78.1345C170.065 79.8302 171.402 81.268 173.029 82.3167C173.395 82.5539 173.774 82.7685 174.166 82.9595C176.428 84.0831 178.996 84.4416 181.482 83.9807C183.967 83.5198 186.233 82.2647 187.938 80.4056C189.642 78.5465 190.691 76.1848 190.925 73.6787C191.16 71.1725 190.567 68.6586 189.237 66.518C187.907 64.3774 185.913 62.7269 183.556 61.8168C181.199 60.9066 178.608 60.7865 176.176 61.4746C173.745 62.1627 171.605 63.6214 170.081 65.6297C168.557 67.638 167.732 70.0862 167.732 72.6032V72.6097Z" fill="#EFB7B9"/>
<path opacity="0.1" d="M171.351 166.575C171.351 166.575 172.871 167.128 174.902 167.899C176.177 166.781 177.484 165.701 178.03 165.505C179.215 165.074 183.089 162.824 182.982 162.181C182.876 161.538 184.596 159.076 186.101 158.645C187.605 158.215 186.746 155.968 186.746 155.968C186.746 155.968 189.652 154.898 190.375 153.397C191.098 151.895 193.313 149.967 192.557 150.076C192.23 150.023 191.917 149.902 191.64 149.719L187.608 149.218L171.351 166.575Z" fill="black"/>
<path d="M162.524 162.718C162.524 162.718 167.477 166.79 167.706 168.61C167.935 170.429 171.241 170.326 171.241 170.326C171.241 170.326 176.193 165.611 177.375 165.183C178.556 164.756 182.433 162.502 182.327 161.86C182.22 161.217 183.941 158.755 185.445 158.324C186.95 157.893 186.091 155.646 186.091 155.646C186.091 155.646 188.996 154.576 189.72 153.075C190.443 151.574 192.657 149.645 191.902 149.755C191.689 149.784 191.008 149.433 190.142 148.922C189.08 148.279 187.734 147.408 186.637 146.672C185.474 145.888 184.587 145.264 184.587 145.264C184.587 145.264 184.08 145.174 183.211 145.049C178.527 144.374 163.27 142.651 159.729 148.263C159.257 149.005 158.903 149.815 158.68 150.664C157.095 156.643 162.524 162.718 162.524 162.718Z" fill="#444053"/>
<path opacity="0.1" d="M167.703 149.726C167.703 149.726 162.647 152.567 160.762 152.567C158.877 152.567 167.703 149.726 167.703 149.726Z" fill="black"/>
<path opacity="0.1" d="M171.079 151.895C171.079 151.895 163.551 154.415 163.551 156.395C163.551 158.375 162.847 151.092 171.079 151.895Z" fill="black"/>
<path opacity="0.1" d="M189.103 140.546L188.996 140.691C189.045 140.653 189.082 140.603 189.103 140.546Z" fill="black"/>
<path opacity="0.1" d="M165.753 91.2555L166.244 91.8726L166.518 92.2166L168.229 94.3605C168.229 94.3605 172.313 95.6654 175.893 96.5108C179.622 97.3883 182.801 97.7708 180.274 95.6719C178.705 94.3701 178.601 92.1909 179.173 89.8541L179.06 89.7095C179.06 89.7095 179.173 91.8759 177.885 91.9176C176.148 91.9723 176.125 91.3905 174.524 90.7187C172.461 89.8509 170.347 88.4013 169.753 87.2731C168.528 88.7047 167.191 90.0364 165.753 91.2555Z" fill="black"/>
<path opacity="0.1" d="M158.68 150.655C159.56 151.029 160.552 151.053 161.45 150.719C164.784 149.645 170.059 147.061 172.532 148.193C174.514 149.099 182.498 149.073 185.445 148.311C186.178 148.122 186.598 147.887 186.533 147.611C186.492 147.292 186.53 146.969 186.646 146.669C186.988 145.579 187.918 144.065 188.612 143.021L188.399 142.208L186.21 140.218L183.221 145.039C178.537 144.364 163.28 142.642 159.739 148.254C159.263 148.995 158.906 149.805 158.68 150.655Z" fill="black"/>
<path d="M156.501 148.148C156.501 148.148 157.792 151.147 161.127 150.076C164.461 149.006 169.736 146.418 172.209 147.55C174.682 148.681 186.524 148.36 186.201 146.968C185.878 145.576 189.106 141.182 189.106 141.182C189.106 141.182 187.344 140.861 186.252 135.13C186.091 134.294 185.946 133.343 185.823 132.263C185.556 130.051 185.494 127.82 185.636 125.597C186.072 119.393 188.254 116.86 188.254 116.86C188.254 116.86 191.266 113.434 188.683 108.719C187.331 106.247 181.872 99.3972 181.797 96.3437C181.73 93.573 179.069 90.3524 179.069 90.3524C179.069 90.3524 179.182 92.5187 177.894 92.5605C176.158 92.6152 176.135 92.0334 174.534 91.3616C172.18 90.3716 169.762 88.6263 169.604 87.4595C169.604 87.4595 159.738 86.9678 157.585 96.9319C155.432 106.896 156.187 112.36 156.51 113.54C156.833 114.72 159.629 129.933 157.369 136.361C155.109 142.789 156.501 148.148 156.501 148.148Z" fill="#A36468"/>
<path opacity="0.1" d="M172.587 130.643C174.366 133.632 176.747 136.222 179.58 138.251C181.468 138.267 183.355 138.392 185.229 138.627C185.068 137.791 184.906 136.84 184.8 135.76C184.533 133.548 184.47 131.317 184.612 129.094C184.303 128.939 184.029 128.72 183.811 128.452C183.593 128.183 183.435 127.872 183.347 127.538C182.808 125.715 178.007 117.037 178.007 117.037C178.007 117.037 166.776 114.144 166.386 117.037C165.995 119.93 169.788 125.821 172.587 130.643Z" fill="black"/>
<path d="M176.309 111.627C176.309 111.627 183.089 124.398 183.615 126.22C183.752 126.726 184.047 127.175 184.458 127.502C184.869 127.83 185.375 128.018 185.9 128.039C185.9 128.039 192.654 129.646 194.268 129.862C195.882 130.077 209.883 131.254 209.883 131.254C209.883 131.254 213.434 131.363 213.864 130.077C214.258 128.901 221.118 122.72 225.089 128.113C225.455 128.612 225.697 129.19 225.797 129.8C225.897 130.41 225.851 131.034 225.663 131.623C224.934 133.937 223.436 137.611 221.828 135.326C219.568 132.112 216.94 133.015 216.94 134.728C216.94 136.441 213.325 135.805 212.143 136.046C211.498 136.178 209.276 136.766 207.356 137.28C205.121 137.881 202.831 138.259 200.521 138.408C196.709 138.656 191.088 138.862 189.096 138.113C186.695 137.203 182.501 136.994 180.703 136.946C180.108 136.932 179.534 136.726 179.066 136.361C176.576 134.419 174.47 132.033 172.855 129.325C170.056 124.504 164.3 114.52 164.687 111.627C165.075 108.735 176.309 111.627 176.309 111.627Z" fill="#EFB7B9"/>
<path opacity="0.1" d="M174.05 93.933C174.05 93.933 177.681 99.934 179.363 104.219C181.045 108.503 183.089 116.005 183.089 116.005L172.971 114.826L172.113 113.434C172.113 113.434 164.888 117.934 165.75 119.862C166.612 121.791 163.813 116.969 164.029 111.505C164.245 106.041 163.251 96.2891 164.029 93.933C164.807 91.577 171.67 92.1105 174.05 93.933Z" fill="black"/>
<path d="M164.042 110.862C163.826 116.327 166.624 121.148 165.763 119.219C164.901 117.291 172.125 112.791 172.125 112.791L172.974 114.183L183.089 115.362C183.089 115.362 181.045 107.86 179.363 103.576C178.353 101.152 177.197 98.7905 175.903 96.5045C174.866 94.6305 174.05 93.2902 174.05 93.2902C172.658 92.2199 169.704 91.5931 167.348 91.7409C166.98 91.7617 166.615 91.8058 166.253 91.8727C165.285 92.0624 164.503 92.4288 164.158 93.0074C164.105 93.0969 164.062 93.1917 164.029 93.2902C163.254 95.6462 164.248 105.398 164.042 110.862Z" fill="#A36468"/>
<path opacity="0.1" d="M159.522 125.822C159.522 125.822 163.8 131.687 165.091 131.848C165.081 131.861 159.593 130.643 159.522 125.822Z" fill="black"/>
<path opacity="0.1" d="M159.522 134.179C159.522 134.179 167.593 142.295 170.176 142.375C172.758 142.455 159.522 134.179 159.522 134.179Z" fill="black"/>
<path opacity="0.1" d="M159.522 137.566C159.522 137.566 164.688 143.593 165.01 143.593C165.333 143.593 159.432 141.504 159.522 137.566Z" fill="black"/>
<path opacity="0.1" d="M164.148 93.0073C164.979 92.8841 165.781 92.6164 166.518 92.2166C166.796 92.0719 167.07 91.9112 167.338 91.7409C168.397 91.0355 169.383 90.2281 170.282 89.3302C171.767 87.8934 173.249 86.3249 173.862 84.3545C174 83.9004 174.102 83.4361 174.166 82.966C174.534 80.4942 174.224 77.7654 175.999 76.0843C176.333 75.7708 176.716 75.5135 177.133 75.3225C179.651 74.13 183.302 74.9015 185.181 72.7511C186.375 71.3883 186.346 69.4951 187.263 68.0133C187.663 67.3705 188.399 66.8144 189.051 66.223C188.102 64.7836 186.841 63.5733 185.362 62.6806C183.883 61.7879 182.222 61.2352 180.501 61.0628C178.78 60.8905 177.042 61.1028 175.414 61.6844C173.785 62.2659 172.308 63.202 171.09 64.4244C169.871 65.6467 168.942 67.1244 168.37 68.7498C167.798 70.3752 167.597 72.1072 167.783 73.8195C167.969 75.5317 168.537 77.1811 169.444 78.6473C170.352 80.1134 171.577 81.3594 173.029 82.2942C172.958 82.4581 172.881 82.6156 172.8 82.786C170.582 87.2859 165.753 91.233 165.753 91.233L166.244 91.8502C165.265 92.0719 164.494 92.4287 164.148 93.0073Z" fill="black"/>
<path d="M184.535 72.4361C182.349 74.9304 177.756 73.4776 175.351 75.7629C173.239 77.7654 174.079 81.2592 173.217 84.0331C172.603 86.0035 171.121 87.5688 169.636 89.0088C167.474 91.1045 164.707 93.2323 161.75 92.6312C159.997 92.2744 158.279 90.9695 156.585 91.5705C155.742 91.8727 155.138 92.5991 154.509 93.2387C152.37 95.4084 149.591 96.8399 146.577 97.324C145.981 97.4579 145.36 97.429 144.779 97.2404C143.875 96.874 143.387 95.8905 142.564 95.3665C140.95 94.338 138.877 95.3923 137.202 96.3115C132.516 98.8376 127.344 100.341 122.029 100.722C116.714 101.103 111.379 100.352 106.378 98.5197L108.99 97.234C108.435 96.1058 106.934 95.8583 105.978 95.0323C104.009 93.3319 105.168 89.9313 107.25 88.3723C109.332 86.8134 112.028 86.2702 114.184 84.8142C114.623 84.5185 115.069 84.1263 115.111 83.6024C115.104 83.2176 114.981 82.8437 114.759 82.5289C113.61 80.5135 112.338 78.3503 112.596 76.0457C112.99 72.5101 116.867 70.3372 120.428 70.0897C123.989 69.8422 127.514 70.9094 131.081 70.9704C132.372 70.9929 133.725 70.8676 134.832 70.2022C136.379 69.2765 137.157 67.5119 138.096 65.9787C139.773 63.2565 142.176 61.0511 145.037 59.6081C148.265 57.9849 151.92 57.416 155.277 56.0724C158.706 54.7032 161.824 52.5368 165.411 51.6657C170.618 50.38 176.196 52.0611 180.693 54.9667C182.86 56.3649 189.778 60.852 189.733 63.7223C189.697 65.4259 187.473 66.3484 186.63 67.6855C185.7 69.1801 185.729 71.0733 184.535 72.4361Z" fill="#965D7B"/>
<g opacity="0.1">
<path opacity="0.1" d="M114.443 80.9186C114.663 81.2342 114.786 81.6076 114.794 81.9921C114.782 82.1277 114.743 82.2596 114.681 82.381C113.732 80.7161 112.744 78.9515 112.586 77.0936C113.006 78.4211 113.745 79.6971 114.443 80.9186Z" fill="black"/>
<path opacity="0.1" d="M105.662 93.422C106.614 94.248 108.115 94.4955 108.674 95.6237L107.75 96.0801C107.128 95.7888 106.537 95.4368 105.985 95.0291C105.634 94.7184 105.361 94.3313 105.187 93.898C105.012 93.4648 104.94 92.9971 104.977 92.5316C105.142 92.8719 105.375 93.1749 105.662 93.422Z" fill="black"/>
<path opacity="0.1" d="M136.886 94.7044C138.561 93.7851 140.637 92.7309 142.248 93.7594C143.068 94.2833 143.558 95.2669 144.462 95.6333C145.042 95.8219 145.662 95.8508 146.257 95.7169C149.272 95.2328 152.053 93.8013 154.192 91.6316C154.819 90.9887 155.422 90.2655 156.268 89.9634C157.953 89.3623 159.671 90.6673 161.433 91.0241C164.39 91.6252 167.154 89.4973 169.32 87.4016C170.805 85.9649 172.284 84.3963 172.897 82.426C173.762 79.6521 172.923 76.1582 175.034 74.1558C177.446 71.8704 182.03 73.3233 184.219 70.829C185.41 69.4662 185.384 67.573 186.301 66.0912C187.076 64.8409 189.084 63.9538 189.368 62.4463C189.59 62.8398 189.713 63.2809 189.726 63.732C189.691 65.4355 187.466 66.358 186.624 67.6951C185.707 69.1769 185.733 71.0701 184.541 72.4329C182.353 74.9272 177.762 73.4743 175.357 75.7597C173.246 77.7621 174.085 81.256 173.22 84.0299C172.606 86.0002 171.128 87.5656 169.643 89.0055C167.477 91.1012 164.713 93.2291 161.756 92.628C160 92.2712 158.283 90.9662 156.591 91.5673C155.745 91.8694 155.141 92.5959 154.515 93.2355C152.376 95.4052 149.595 96.8367 146.58 97.3208C145.985 97.4547 145.365 97.4258 144.785 97.2372C143.881 96.8708 143.391 95.8872 142.571 95.3633C140.956 94.3348 138.884 95.389 137.208 96.3083C132.523 98.8344 127.35 100.338 122.035 100.719C116.721 101.099 111.385 100.349 106.385 98.5165L108.189 97.6261C112.93 99.0442 117.906 99.5161 122.83 99.0147C127.755 98.5133 132.531 97.0485 136.886 94.7044Z" fill="black"/>
</g>
<path opacity="0.1" d="M216.663 178.104L219.378 176.796V176.285C219.378 176.089 217.212 176.523 215.533 176.893C216.74 177.105 216.692 177.912 216.663 178.104Z" fill="black"/>
<path d="M219.023 148.546C222.635 148.546 225.563 144.999 225.563 140.623C225.563 136.247 222.635 132.7 219.023 132.7C215.41 132.7 212.482 136.247 212.482 140.623C212.482 144.999 215.41 148.546 219.023 148.546Z" fill="#FFBEC7"/>
<path d="M156.071 130.312L145.557 140.636L110.991 140.035L120.496 130.312H156.071Z" fill="#DDA2A6"/>
<path d="M156.071 165.63V130.312L145.557 140.636V175.195L156.071 165.63Z" fill="#B77B7F"/>
<path d="M110.991 140.035V175.196H145.557V140.636L110.991 140.035Z" fill="#DDA2A6"/>
<path opacity="0.3" d="M110.991 140.035V175.196H145.557V140.636L110.991 140.035Z" fill="white"/>
<path d="M142.748 150.314L117.041 145.92L113.69 162.724L140.156 167.565L142.748 150.314Z" fill="#DCE0ED"/>
<path d="M137.67 154.239L120.389 151.536L119.957 153.779L137.238 156.698L137.67 154.239Z" fill="#FFBEC7"/>
<path d="M132.918 159.038L123.088 157.617L122.655 160.108L132.918 161.541V159.038Z" fill="#FFBEC7"/>
<path d="M151.82 148.848L151.351 134.943L148.649 137.598L149.121 151.535L151.82 148.848Z" fill="#65617D"/>
<path d="M117.019 133.87L150.234 134.317L151.351 134.944L148.649 137.599L147.716 137.052L114.817 136.123L117.019 133.87Z" fill="#65617D"/>
</svg>
