<svg width="293" height="266" viewBox="0 0 293 266" fill="none" xmlns="http://www.w3.org/2000/svg">
<path d="M39.943 78.886C61.4506 78.886 78.886 61.4506 78.886 39.943C78.886 18.4354 61.4506 1 39.943 1C18.4354 1 1 18.4354 1 39.943C1 61.4506 18.4354 78.886 39.943 78.886Z" stroke="#D3D3D3" stroke-miterlimit="10" stroke-dasharray="12.04 12.04"/>
<path d="M293 245.81H5.84973V265.528H293V245.81Z" fill="#F2F2F2"/>
<path d="M59.1385 64.54C65.2079 70.261 93.6093 94.829 124.16 87.0172C127.209 92.2735 127.209 92.2735 127.209 92.2735C127.209 92.2735 86.7267 105.313 52.3721 69.6511C56.2054 66.9504 59.1385 64.54 59.1385 64.54Z" fill="#F4BD98"/>
<path d="M67.9378 67.9378C67.9378 67.9378 60.9681 52.4012 56.0313 52.7207C51.0944 53.0401 46.9417 63.9883 54.8116 76.6789C61.9555 73.6297 67.9378 67.9378 67.9378 67.9378Z" fill="white"/>
<path d="M127.209 92.3026C128.138 92.3897 133.104 92.564 133.104 92.564C133.104 92.564 142.833 91.3733 142.194 87.7723C139.319 88.5274 128.748 86.4074 124.16 87.0463C122.911 90.0375 122.911 90.0375 122.911 90.0375L127.209 92.3026Z" fill="#F4BD98"/>
<path d="M49.236 249.439C51.5301 250.833 57.222 252.053 61.8104 252.518C65.0048 252.837 68.8382 259.574 65.9922 259.574C63.2624 259.545 45.1413 259.807 40.0592 258.877C38.462 258.151 39.3332 253.97 39.6817 248.859C44.0087 247.436 49.236 249.439 49.236 249.439Z" fill="#482079"/>
<path d="M62.8268 124.508L52.5465 250.253H38.9266C38.9266 250.253 27.7751 138.564 33.3509 124.508C38.9266 110.453 62.8268 124.508 62.8268 124.508Z" fill="#0A3E5B"/>
<path d="M76.7951 59.6323C76.7951 59.6323 66.1374 90.444 62.8558 124.508C42.3243 124.508 28.356 124.508 28.356 124.508C28.356 124.508 37.2713 55.2763 59.7485 50.4556C67.3571 56.1765 76.7951 59.6323 76.7951 59.6323Z" fill="#482079"/>
<path d="M80.1057 45.0829L73.0779 53.2722L66.0211 49.4679L72.1196 39.0715L80.1057 45.0829Z" fill="#FCCFAC"/>
<path d="M77.5502 9.91528C71.8583 10.1766 57.5995 12.1223 62.2459 36.5162C66.2535 38.3457 71.2484 43.0212 71.2484 43.0212L78.2181 12.2385L77.5502 9.91528Z" fill="#0A3E5B"/>
<path d="M94.1902 31.9858C94.1902 41.1335 93.8417 48.5388 86.0589 48.5388C78.2761 48.5388 66.0211 41.1335 66.0211 31.9858C66.0211 22.8381 72.3229 15.4329 80.1057 15.4329C87.8885 15.4329 94.1902 22.8381 94.1902 31.9858Z" fill="#FCD7B9"/>
<path d="M95.0034 20.631C94.8582 21.2699 94.713 21.8797 94.5678 22.4605C94.3935 23.2156 93.8708 23.7092 93.0867 24.0287L87.9756 24.3191C84.3746 23.9416 80.1638 22.78 77.5792 21.9088C77.5792 21.9088 77.3469 21.8216 76.9694 21.6474C76.679 21.5022 76.2724 21.3279 75.8368 21.0956C74.6461 20.4858 73.078 19.5565 71.7421 18.4239C71.7131 18.3949 71.684 18.3658 71.655 18.3368C70.6386 17.4656 69.7674 16.4492 69.3318 15.3747C68.8962 14.2712 68.9543 13.1095 69.7674 11.8899C70.6095 10.6702 72.4972 10.1184 74.9365 9.9732C79.1764 9.71184 85.0426 10.7282 89.718 11.5704L95.0034 20.631Z" fill="#0A3E5B"/>
<path d="M78.218 20.0793C77.3468 22.1121 74.617 28.6462 70.5514 29.227C70.0577 31.2017 71.2193 39.1007 71.4807 42.3241C71.2483 42.9921 71.2483 42.9921 71.2483 42.9921L62.8267 33.4088L69.0703 15.4038L78.218 20.0793Z" fill="#0A3E5B"/>
<path d="M70.2704 34.7463C71.551 34.4468 72.2575 32.7862 71.8485 31.0371C71.4395 29.288 70.0698 28.1129 68.7893 28.4124C67.5087 28.7118 66.8022 30.3725 67.2112 32.1216C67.6202 33.8706 68.9899 35.0458 70.2704 34.7463Z" fill="#FCD7B9"/>
<path d="M76.7951 54.1145L62.8268 46.1575L57.9189 52.9529L76.7951 66.1662V54.1145Z" fill="white"/>
<path d="M96.5715 24.4644L94.0741 24.6096L88.7307 24.9L61.2005 26.4682C61.2005 26.352 61.2005 26.2649 61.2005 26.1487C60.7939 16.0427 68.1701 7.47583 77.8406 6.92406C82.6903 6.6627 87.1915 8.43416 90.5892 11.5705C92.5349 13.371 94.0741 15.5781 95.1486 18.1046C95.5551 19.0629 95.8746 20.0503 96.1069 21.0667C96.1359 21.1538 96.1359 21.2409 96.165 21.328C96.3682 22.3444 96.5135 23.3899 96.5715 24.4644Z" fill="#482079"/>
<path d="M170.711 36.458H111.469V95.7002H170.711V36.458Z" fill="#F8D42D"/>
<path d="M59.0805 66.5728C64.9176 72.526 92.2735 98.2847 123.114 91.7797C125.931 97.1522 125.931 97.1522 125.931 97.1522C125.931 97.1522 84.9554 108.478 52.1108 71.3934C56.0313 68.8379 59.0805 66.5728 59.0805 66.5728Z" fill="#FCCFAC"/>
<path d="M67.7346 70.319C67.7346 70.319 61.4328 54.492 56.496 54.6372C51.5591 54.7824 46.9417 65.5273 54.2599 78.5374C61.4909 75.7495 67.7346 70.319 67.7346 70.319Z" fill="white"/>
<path d="M125.931 97.1522C126.861 97.2974 132.872 98.7785 132.872 98.7785C132.872 98.7785 138.68 94.3353 138.157 90.6763C135.253 91.3152 127.703 91.3152 123.085 91.7798C121.691 94.7129 121.691 94.7129 121.691 94.7129L125.931 97.1522Z" fill="#FCCFAC"/>
<path d="M123.521 91.7216C124.305 91.1408 126.28 89.2242 127.18 88.382C127.325 88.2368 127.558 88.353 127.529 88.5563C127.441 89.2823 127.238 90.4439 127.122 90.6181C126.919 90.8795 125.089 93.0285 125.089 93.0285L123.521 91.7216Z" fill="#FCCFAC"/>
<path d="M147.044 36.458H135.166V57.6865H147.044V36.458Z" fill="#E5E5E5"/>
<path d="M106.039 22.2856L92.6437 23.042L92.7354 24.6656L106.131 23.9093L106.039 22.2856Z" fill="#F8D42D"/>
<path d="M246.594 69.7961C241.192 76.156 215.724 103.744 184.506 99.4172C182.066 104.993 182.066 104.993 182.066 104.993C182.066 104.993 223.739 113.415 253.912 74.1232C249.788 71.858 246.594 69.7961 246.594 69.7961Z" fill="#F4BD98"/>
<path d="M238.23 74.1231C238.23 74.1231 243.399 57.8896 248.365 57.6863C253.331 57.483 258.674 67.8794 252.257 81.3832C244.822 79.118 238.23 74.1231 238.23 74.1231Z" fill="white"/>
<path d="M179.104 104.47C178.088 104.18 173.325 103.425 173.325 103.425C173.325 103.425 170.45 97.2392 172.628 93.6672C175.358 95.642 179.453 98.0814 185.145 99.5043C185.406 101.305 182.473 104.906 182.473 104.906L179.104 104.47Z" fill="#F4BD98"/>
<path d="M183.46 99.6205C182.792 98.4299 181.282 94.8579 180.614 93.2607C180.498 92.9994 180.121 93.0284 180.034 93.2898C179.743 94.3062 179.337 95.8743 179.424 96.1647C179.54 96.6003 180.701 100.405 180.701 100.405L183.46 99.6205Z" fill="#F4BD98"/>
<path d="M252.953 249.439C250.659 250.833 244.967 252.053 240.379 252.518C237.185 252.837 233.351 259.574 236.197 259.574C238.927 259.545 257.048 259.807 262.13 258.877C263.727 258.151 262.856 253.97 262.508 248.859C258.181 247.436 252.953 249.439 252.953 249.439Z" fill="#F28D16"/>
<path d="M239.334 124.508L249.614 250.252H263.234C263.234 250.252 274.385 138.563 268.81 124.508C263.234 110.452 239.334 124.508 239.334 124.508Z" fill="#0A3E5B"/>
<path d="M232.132 64.1623C233.99 76.6497 237.562 105.138 236.284 130.897C256.584 133.888 270.378 130.897 270.378 130.897C270.378 130.897 278.451 61.723 243.312 49.3518C240.815 50.6877 238.753 51.9945 237.039 53.127C233.409 55.5374 231.493 59.8353 232.132 64.1623Z" fill="#F8D42D"/>
<path d="M230.738 44.7343L236.778 57.6862L244.038 51.1231L239.537 39.9426L230.738 44.7343Z" fill="#FCCFAC"/>
<path d="M240.35 11.0767C244.967 10.6411 251.705 13.5161 252.46 23.1284C253.041 30.9112 249.062 38.3165 242.412 42.3241C240.873 43.2534 239.827 43.9503 239.827 43.9503L237.417 12.4997L240.35 11.0767Z" fill="#0A3E5B"/>
<path d="M218.715 29.7206C217.379 38.7521 216.653 46.1574 224.349 47.29C232.045 48.4225 245.258 42.8758 246.594 33.8443C247.93 24.8128 242.789 16.5363 235.094 15.4037C227.369 14.2712 220.051 20.66 218.715 29.7206Z" fill="#FCD7B9"/>
<path d="M236.197 22.6056C231.377 23.4478 220.167 25.2483 217.873 22.5475C217.176 21.7344 214.475 10.9895 214.475 10.9895C229.547 15.2875 242.847 7.44659 245.781 13.4579C248.714 19.4693 236.197 22.6056 236.197 22.6056Z" fill="#0A3E5B"/>
<path d="M236.255 20.2823C236.807 22.4313 238.55 29.2848 242.499 30.4754C242.702 32.4792 240.379 40.1168 239.682 43.3113L239.798 44.0082L243.515 40.8719C247.233 37.7065 248.975 32.7987 248.075 28.007L246.013 17.0588L236.255 20.2823Z" fill="#0A3E5B"/>
<path d="M245.393 33.7737C246.053 32.1032 245.597 30.357 244.374 29.8735C243.151 29.3901 241.624 30.3524 240.964 32.023C240.303 33.6936 240.76 35.4398 241.983 35.9232C243.206 36.4067 244.733 35.4443 245.393 33.7737Z" fill="#FCD7B9"/>
<path d="M246.884 71.7708C241.773 78.3629 217.466 106.997 186.074 103.976C183.867 109.639 183.867 109.639 183.867 109.639C183.867 109.639 225.859 116.319 254.347 75.8073C250.166 73.7164 246.884 71.7708 246.884 71.7708Z" fill="#FCCFAC"/>
<path d="M238.724 76.4752C238.724 76.4752 243.225 60.0384 248.162 59.6319C253.099 59.1963 258.878 69.3894 253.041 83.1255C245.519 81.1798 238.724 76.4752 238.724 76.4752Z" fill="#FFBF73"/>
<path d="M181.863 109.639C180.817 109.436 175.997 109.059 175.997 109.059C175.997 109.059 172.628 103.105 174.516 99.3882C177.391 101.131 181.398 103.105 187.206 104.064C187.613 105.835 185.232 109.785 185.232 109.785L181.863 109.639Z" fill="#FCCFAC"/>
<path d="M185.783 104.47C185.028 103.338 183.228 99.9109 182.415 98.3717C182.27 98.1104 181.892 98.1685 181.863 98.4589C181.66 99.4753 181.398 101.102 181.485 101.392C181.66 101.828 183.112 105.516 183.112 105.516L185.783 104.47Z" fill="#FCCFAC"/>
</svg>
