<svg width="143" height="38" viewBox="0 0 143 38" fill="none" xmlns="http://www.w3.org/2000/svg">
<rect width="143" height="38" rx="19" fill="#E5E5E5" fill-opacity="0.5"/>
<path d="M44.05 10H47C47.74 10 48.3967 10.1467 48.97 10.44C49.5433 10.7333 49.9867 11.1467 50.3 11.68C50.62 12.2067 50.78 12.8133 50.78 13.5C50.78 14.1867 50.62 14.7967 50.3 15.33C49.9867 15.8567 49.5433 16.2667 48.97 16.56C48.3967 16.8533 47.74 17 47 17H44.05V10ZM46.94 16.13C47.5067 16.13 48.0033 16.02 48.43 15.8C48.8633 15.58 49.1967 15.2733 49.43 14.88C49.6633 14.48 49.78 14.02 49.78 13.5C49.78 12.98 49.6633 12.5233 49.43 12.13C49.1967 11.73 48.8633 11.42 48.43 11.2C48.0033 10.98 47.5067 10.87 46.94 10.87H45.05V16.13H46.94ZM54.4417 17.06C53.9151 17.06 53.4417 16.9433 53.0217 16.71C52.6017 16.4767 52.2717 16.1567 52.0317 15.75C51.7984 15.3367 51.6817 14.87 51.6817 14.35C51.6817 13.83 51.7984 13.3667 52.0317 12.96C52.2717 12.5467 52.6017 12.2267 53.0217 12C53.4417 11.7667 53.9151 11.65 54.4417 11.65C54.9684 11.65 55.4384 11.7667 55.8517 12C56.2717 12.2267 56.5984 12.5467 56.8317 12.96C57.0717 13.3667 57.1917 13.83 57.1917 14.35C57.1917 14.87 57.0717 15.3367 56.8317 15.75C56.5984 16.1567 56.2717 16.4767 55.8517 16.71C55.4384 16.9433 54.9684 17.06 54.4417 17.06ZM54.4417 16.22C54.7817 16.22 55.0851 16.1433 55.3517 15.99C55.6251 15.83 55.8384 15.61 55.9917 15.33C56.1451 15.0433 56.2217 14.7167 56.2217 14.35C56.2217 13.9833 56.1451 13.66 55.9917 13.38C55.8384 13.0933 55.6251 12.8733 55.3517 12.72C55.0851 12.5667 54.7817 12.49 54.4417 12.49C54.1017 12.49 53.7951 12.5667 53.5217 12.72C53.2551 12.8733 53.0417 13.0933 52.8817 13.38C52.7284 13.66 52.6517 13.9833 52.6517 14.35C52.6517 14.7167 52.7284 15.0433 52.8817 15.33C53.0417 15.61 53.2551 15.83 53.5217 15.99C53.7951 16.1433 54.1017 16.22 54.4417 16.22ZM66.5994 11.7V14.63C66.5994 15.41 66.406 16.01 66.0194 16.43C65.6327 16.85 65.0727 17.06 64.3394 17.06C63.4727 17.06 62.8727 16.7433 62.5394 16.11C62.366 16.43 62.1294 16.67 61.8294 16.83C61.536 16.9833 61.1694 17.06 60.7294 17.06C59.9894 17.06 59.426 16.85 59.0394 16.43C58.6594 16.01 58.4694 15.41 58.4694 14.63V11.7H59.4294V14.54C59.4294 15.1067 59.5327 15.5267 59.7394 15.8C59.946 16.0667 60.276 16.2 60.7294 16.2C61.1827 16.2 61.516 16.0633 61.7294 15.79C61.9494 15.5167 62.0594 15.1 62.0594 14.54V11.7H63.0194V14.54C63.0194 15.1 63.126 15.5167 63.3394 15.79C63.5594 16.0633 63.896 16.2 64.3494 16.2C64.796 16.2 65.1227 16.0667 65.3294 15.8C65.536 15.5267 65.6394 15.1067 65.6394 14.54V11.7H66.5994ZM71.2029 11.65C71.8762 11.65 72.4096 11.8467 72.8029 12.24C73.2029 12.6267 73.4029 13.1967 73.4029 13.95V17H72.4429V14.06C72.4429 13.5467 72.3196 13.16 72.0729 12.9C71.8262 12.64 71.4729 12.51 71.0129 12.51C70.4929 12.51 70.0829 12.6633 69.7829 12.97C69.4829 13.27 69.3329 13.7033 69.3329 14.27V17H68.3729V11.7H69.2929V12.5C69.4862 12.2267 69.7462 12.0167 70.0729 11.87C70.4062 11.7233 70.7829 11.65 71.2029 11.65ZM76.7895 17.06C76.2762 17.06 75.8795 16.92 75.5995 16.64C75.3195 16.3533 75.1795 15.9533 75.1795 15.44V9.58H76.1395V15.36C76.1395 15.6467 76.2062 15.8667 76.3395 16.02C76.4795 16.1733 76.6862 16.25 76.9595 16.25C77.1262 16.25 77.2829 16.2167 77.4295 16.15L77.4795 16.94C77.2595 17.02 77.0295 17.06 76.7895 17.06ZM80.5648 17.06C80.0381 17.06 79.5648 16.9433 79.1448 16.71C78.7248 16.4767 78.3948 16.1567 78.1548 15.75C77.9214 15.3367 77.8048 14.87 77.8048 14.35C77.8048 13.83 77.9214 13.3667 78.1548 12.96C78.3948 12.5467 78.7248 12.2267 79.1448 12C79.5648 11.7667 80.0381 11.65 80.5648 11.65C81.0914 11.65 81.5614 11.7667 81.9748 12C82.3948 12.2267 82.7214 12.5467 82.9548 12.96C83.1948 13.3667 83.3148 13.83 83.3148 14.35C83.3148 14.87 83.1948 15.3367 82.9548 15.75C82.7214 16.1567 82.3948 16.4767 81.9748 16.71C81.5614 16.9433 81.0914 17.06 80.5648 17.06ZM80.5648 16.22C80.9048 16.22 81.2081 16.1433 81.4748 15.99C81.7481 15.83 81.9614 15.61 82.1148 15.33C82.2681 15.0433 82.3448 14.7167 82.3448 14.35C82.3448 13.9833 82.2681 13.66 82.1148 13.38C81.9614 13.0933 81.7481 12.8733 81.4748 12.72C81.2081 12.5667 80.9048 12.49 80.5648 12.49C80.2248 12.49 79.9181 12.5667 79.6448 12.72C79.3781 12.8733 79.1648 13.0933 79.0048 13.38C78.8514 13.66 78.7748 13.9833 78.7748 14.35C78.7748 14.7167 78.8514 15.0433 79.0048 15.33C79.1648 15.61 79.3781 15.83 79.6448 15.99C79.9181 16.1433 80.2248 16.22 80.5648 16.22ZM89.6424 11.7V17H88.7224V16.16C88.5091 16.4533 88.2391 16.6767 87.9124 16.83C87.5858 16.9833 87.2258 17.06 86.8324 17.06C86.3191 17.06 85.8591 16.9467 85.4524 16.72C85.0458 16.4933 84.7258 16.1767 84.4924 15.77C84.2658 15.3567 84.1524 14.8833 84.1524 14.35C84.1524 13.8167 84.2658 13.3467 84.4924 12.94C84.7258 12.5333 85.0458 12.2167 85.4524 11.99C85.8591 11.7633 86.3191 11.65 86.8324 11.65C87.2124 11.65 87.5624 11.7233 87.8824 11.87C88.2024 12.01 88.4691 12.22 88.6824 12.5V11.7H89.6424ZM86.9124 16.22C87.2458 16.22 87.5491 16.1433 87.8224 15.99C88.0958 15.83 88.3091 15.61 88.4624 15.33C88.6158 15.0433 88.6924 14.7167 88.6924 14.35C88.6924 13.9833 88.6158 13.66 88.4624 13.38C88.3091 13.0933 88.0958 12.8733 87.8224 12.72C87.5491 12.5667 87.2458 12.49 86.9124 12.49C86.5724 12.49 86.2658 12.5667 85.9924 12.72C85.7258 12.8733 85.5124 13.0933 85.3524 13.38C85.1991 13.66 85.1224 13.9833 85.1224 14.35C85.1224 14.7167 85.1991 15.0433 85.3524 15.33C85.5124 15.61 85.7258 15.83 85.9924 15.99C86.2658 16.1433 86.5724 16.22 86.9124 16.22ZM96.4588 9.58V17H95.5388V16.16C95.3255 16.4533 95.0555 16.6767 94.7288 16.83C94.4022 16.9833 94.0422 17.06 93.6488 17.06C93.1355 17.06 92.6755 16.9467 92.2688 16.72C91.8622 16.4933 91.5422 16.1767 91.3088 15.77C91.0822 15.3567 90.9688 14.8833 90.9688 14.35C90.9688 13.8167 91.0822 13.3467 91.3088 12.94C91.5422 12.5333 91.8622 12.2167 92.2688 11.99C92.6755 11.7633 93.1355 11.65 93.6488 11.65C94.0288 11.65 94.3788 11.7233 94.6988 11.87C95.0188 12.01 95.2855 12.22 95.4988 12.5V9.58H96.4588ZM93.7288 16.22C94.0622 16.22 94.3655 16.1433 94.6388 15.99C94.9122 15.83 95.1255 15.61 95.2788 15.33C95.4322 15.0433 95.5088 14.7167 95.5088 14.35C95.5088 13.9833 95.4322 13.66 95.2788 13.38C95.1255 13.0933 94.9122 12.8733 94.6388 12.72C94.3655 12.5667 94.0622 12.49 93.7288 12.49C93.3888 12.49 93.0822 12.5667 92.8088 12.72C92.5422 12.8733 92.3288 13.0933 92.1688 13.38C92.0155 13.66 91.9388 13.9833 91.9388 14.35C91.9388 14.7167 92.0155 15.0433 92.1688 15.33C92.3288 15.61 92.5422 15.83 92.8088 15.99C93.0822 16.1433 93.3888 16.22 93.7288 16.22ZM103.231 17.06C102.704 17.06 102.231 16.9433 101.811 16.71C101.391 16.4767 101.061 16.1567 100.821 15.75C100.587 15.3367 100.471 14.87 100.471 14.35C100.471 13.83 100.587 13.3667 100.821 12.96C101.061 12.5467 101.391 12.2267 101.811 12C102.231 11.7667 102.704 11.65 103.231 11.65C103.757 11.65 104.227 11.7667 104.641 12C105.061 12.2267 105.387 12.5467 105.621 12.96C105.861 13.3667 105.981 13.83 105.981 14.35C105.981 14.87 105.861 15.3367 105.621 15.75C105.387 16.1567 105.061 16.4767 104.641 16.71C104.227 16.9433 103.757 17.06 103.231 17.06ZM103.231 16.22C103.571 16.22 103.874 16.1433 104.141 15.99C104.414 15.83 104.627 15.61 104.781 15.33C104.934 15.0433 105.011 14.7167 105.011 14.35C105.011 13.9833 104.934 13.66 104.781 13.38C104.627 13.0933 104.414 12.8733 104.141 12.72C103.874 12.5667 103.571 12.49 103.231 12.49C102.891 12.49 102.584 12.5667 102.311 12.72C102.044 12.8733 101.831 13.0933 101.671 13.38C101.517 13.66 101.441 13.9833 101.441 14.35C101.441 14.7167 101.517 15.0433 101.671 15.33C101.831 15.61 102.044 15.83 102.311 15.99C102.584 16.1433 102.891 16.22 103.231 16.22ZM110.138 11.65C110.812 11.65 111.345 11.8467 111.738 12.24C112.138 12.6267 112.338 13.1967 112.338 13.95V17H111.378V14.06C111.378 13.5467 111.255 13.16 111.008 12.9C110.762 12.64 110.408 12.51 109.948 12.51C109.428 12.51 109.018 12.6633 108.718 12.97C108.418 13.27 108.268 13.7033 108.268 14.27V17H107.308V11.7H108.228V12.5C108.422 12.2267 108.682 12.0167 109.008 11.87C109.342 11.7233 109.718 11.65 110.138 11.65ZM119.591 16.69C119.451 16.81 119.277 16.9033 119.071 16.97C118.864 17.03 118.651 17.06 118.431 17.06C117.897 17.06 117.484 16.9167 117.191 16.63C116.897 16.3433 116.751 15.9333 116.751 15.4V10.54H117.711V11.7H119.231V12.49H117.711V15.36C117.711 15.6467 117.781 15.8667 117.921 16.02C118.067 16.1733 118.274 16.25 118.541 16.25C118.834 16.25 119.084 16.1667 119.291 16L119.591 16.69ZM123.576 11.65C124.249 11.65 124.783 11.8467 125.176 12.24C125.576 12.6267 125.776 13.1967 125.776 13.95V17H124.816V14.06C124.816 13.5467 124.693 13.16 124.446 12.9C124.199 12.64 123.846 12.51 123.386 12.51C122.866 12.51 122.456 12.6633 122.156 12.97C121.856 13.27 121.706 13.7033 121.706 14.27V17H120.746V9.58H121.706V12.45C121.906 12.1967 122.166 12 122.486 11.86C122.813 11.72 123.176 11.65 123.576 11.65ZM129.972 16.22C130.605 16.22 131.115 16.0067 131.502 15.58L132.022 16.2C131.789 16.48 131.492 16.6933 131.132 16.84C130.779 16.9867 130.382 17.06 129.942 17.06C129.382 17.06 128.885 16.9467 128.452 16.72C128.019 16.4867 127.682 16.1633 127.442 15.75C127.209 15.3367 127.092 14.87 127.092 14.35C127.092 13.8367 127.205 13.3733 127.432 12.96C127.665 12.5467 127.982 12.2267 128.382 12C128.789 11.7667 129.245 11.65 129.752 11.65C130.232 11.65 130.669 11.76 131.062 11.98C131.455 12.1933 131.769 12.4967 132.002 12.89C132.235 13.2833 132.355 13.7367 132.362 14.25L128.152 15.07C128.285 15.4367 128.509 15.72 128.822 15.92C129.142 16.12 129.525 16.22 129.972 16.22ZM129.752 12.46C129.419 12.46 129.119 12.5367 128.852 12.69C128.592 12.8433 128.389 13.06 128.242 13.34C128.095 13.6133 128.022 13.9333 128.022 14.3V14.4L131.412 13.76C131.325 13.3733 131.132 13.06 130.832 12.82C130.532 12.58 130.172 12.46 129.752 12.46ZM46.98 21.88C47.6267 21.88 48.19 22.0067 48.67 22.26C49.15 22.5133 49.5233 22.8867 49.79 23.38C50.0567 23.8733 50.19 24.47 50.19 25.17V29H48.57V27.32H45.37V29H43.77V25.17C43.77 24.47 43.9033 23.8733 44.17 23.38C44.4367 22.8867 44.81 22.5133 45.29 22.26C45.77 22.0067 46.3333 21.88 46.98 21.88ZM48.57 26.02V25.02C48.57 24.44 48.4267 24.0033 48.14 23.71C47.8533 23.41 47.4633 23.26 46.97 23.26C46.47 23.26 46.0767 23.41 45.79 23.71C45.51 24.0033 45.37 24.44 45.37 25.02V26.02H48.57ZM54.859 23.54C55.359 23.54 55.8123 23.6567 56.219 23.89C56.6323 24.1167 56.9557 24.44 57.189 24.86C57.4223 25.2733 57.539 25.7567 57.539 26.31C57.539 26.8633 57.4223 27.35 57.189 27.77C56.9557 28.1833 56.6323 28.5067 56.219 28.74C55.8123 28.9667 55.359 29.08 54.859 29.08C54.1723 29.08 53.6323 28.8633 53.239 28.43V30.94H51.679V23.62H53.169V24.24C53.5557 23.7733 54.119 23.54 54.859 23.54ZM54.589 27.8C54.989 27.8 55.3157 27.6667 55.569 27.4C55.829 27.1267 55.959 26.7633 55.959 26.31C55.959 25.8567 55.829 25.4967 55.569 25.23C55.3157 24.9567 54.989 24.82 54.589 24.82C54.189 24.82 53.859 24.9567 53.599 25.23C53.3457 25.4967 53.219 25.8567 53.219 26.31C53.219 26.7633 53.3457 27.1267 53.599 27.4C53.859 27.6667 54.189 27.8 54.589 27.8ZM61.7633 23.54C62.2633 23.54 62.7166 23.6567 63.1233 23.89C63.5366 24.1167 63.8599 24.44 64.0933 24.86C64.3266 25.2733 64.4433 25.7567 64.4433 26.31C64.4433 26.8633 64.3266 27.35 64.0933 27.77C63.8599 28.1833 63.5366 28.5067 63.1233 28.74C62.7166 28.9667 62.2633 29.08 61.7633 29.08C61.0766 29.08 60.5366 28.8633 60.1433 28.43V30.94H58.5833V23.62H60.0733V24.24C60.4599 23.7733 61.0233 23.54 61.7633 23.54ZM61.4933 27.8C61.8933 27.8 62.2199 27.6667 62.4733 27.4C62.7333 27.1267 62.8633 26.7633 62.8633 26.31C62.8633 25.8567 62.7333 25.4967 62.4733 25.23C62.2199 24.9567 61.8933 24.82 61.4933 24.82C61.0933 24.82 60.7633 24.9567 60.5033 25.23C60.2499 25.4967 60.1233 25.8567 60.1233 26.31C60.1233 26.7633 60.2499 27.1267 60.5033 27.4C60.7633 27.6667 61.0933 27.8 61.4933 27.8ZM70.7296 29.12C70.1763 29.12 69.6396 29.0467 69.1196 28.9C68.6063 28.7467 68.1929 28.55 67.8796 28.31L68.4296 27.09C68.7296 27.31 69.0863 27.4867 69.4996 27.62C69.9129 27.7533 70.3263 27.82 70.7396 27.82C71.1996 27.82 71.5396 27.7533 71.7596 27.62C71.9796 27.48 72.0896 27.2967 72.0896 27.07C72.0896 26.9033 72.0229 26.7667 71.8896 26.66C71.7629 26.5467 71.5963 26.4567 71.3896 26.39C71.1896 26.3233 70.9163 26.25 70.5696 26.17C70.0363 26.0433 69.5996 25.9167 69.2596 25.79C68.9196 25.6633 68.6263 25.46 68.3796 25.18C68.1396 24.9 68.0196 24.5267 68.0196 24.06C68.0196 23.6533 68.1296 23.2867 68.3496 22.96C68.5696 22.6267 68.8996 22.3633 69.3396 22.17C69.7863 21.9767 70.3296 21.88 70.9696 21.88C71.4163 21.88 71.8529 21.9333 72.2796 22.04C72.7063 22.1467 73.0796 22.3 73.3996 22.5L72.8996 23.73C72.2529 23.3633 71.6063 23.18 70.9596 23.18C70.5063 23.18 70.1696 23.2533 69.9496 23.4C69.7363 23.5467 69.6296 23.74 69.6296 23.98C69.6296 24.22 69.7529 24.4 69.9996 24.52C70.2529 24.6333 70.6363 24.7467 71.1496 24.86C71.6829 24.9867 72.1196 25.1133 72.4596 25.24C72.7996 25.3667 73.0896 25.5667 73.3296 25.84C73.5763 26.1133 73.6996 26.4833 73.6996 26.95C73.6996 27.35 73.5863 27.7167 73.3596 28.05C73.1396 28.3767 72.8063 28.6367 72.3596 28.83C71.9129 29.0233 71.3696 29.12 70.7296 29.12ZM77.9366 28.74C77.7832 28.8533 77.5932 28.94 77.3666 29C77.1466 29.0533 76.9166 29.08 76.6766 29.08C76.0299 29.08 75.5332 28.9167 75.1866 28.59C74.8399 28.2633 74.6666 27.7833 74.6666 27.15V22.43H76.2266V23.74H77.5566V24.94H76.2266V27.13C76.2266 27.3567 76.2832 27.5333 76.3966 27.66C76.5099 27.78 76.6732 27.84 76.8866 27.84C77.1266 27.84 77.3399 27.7733 77.5266 27.64L77.9366 28.74ZM81.2116 29.08C80.645 29.08 80.135 28.9633 79.6816 28.73C79.235 28.49 78.885 28.16 78.6316 27.74C78.3783 27.32 78.2516 26.8433 78.2516 26.31C78.2516 25.7767 78.3783 25.3 78.6316 24.88C78.885 24.46 79.235 24.1333 79.6816 23.9C80.135 23.66 80.645 23.54 81.2116 23.54C81.7783 23.54 82.285 23.66 82.7316 23.9C83.1783 24.1333 83.5283 24.46 83.7816 24.88C84.035 25.3 84.1616 25.7767 84.1616 26.31C84.1616 26.8433 84.035 27.32 83.7816 27.74C83.5283 28.16 83.1783 28.49 82.7316 28.73C82.285 28.9633 81.7783 29.08 81.2116 29.08ZM81.2116 27.8C81.6116 27.8 81.9383 27.6667 82.1916 27.4C82.4516 27.1267 82.5816 26.7633 82.5816 26.31C82.5816 25.8567 82.4516 25.4967 82.1916 25.23C81.9383 24.9567 81.6116 24.82 81.2116 24.82C80.8116 24.82 80.4816 24.9567 80.2216 25.23C79.9616 25.4967 79.8316 25.8567 79.8316 26.31C79.8316 26.7633 79.9616 27.1267 80.2216 27.4C80.4816 27.6667 80.8116 27.8 81.2116 27.8ZM86.6944 24.33C86.881 24.07 87.131 23.8733 87.4444 23.74C87.7644 23.6067 88.131 23.54 88.5444 23.54V24.98C88.371 24.9667 88.2544 24.96 88.1944 24.96C87.7477 24.96 87.3977 25.0867 87.1444 25.34C86.891 25.5867 86.7644 25.96 86.7644 26.46V29H85.2044V23.62H86.6944V24.33ZM92.1331 27.83C92.4131 27.83 92.6598 27.79 92.8731 27.71C93.0931 27.6233 93.2965 27.49 93.4831 27.31L94.3131 28.21C93.8065 28.79 93.0665 29.08 92.0931 29.08C91.4865 29.08 90.9498 28.9633 90.4831 28.73C90.0165 28.49 89.6565 28.16 89.4031 27.74C89.1498 27.32 89.0231 26.8433 89.0231 26.31C89.0231 25.7833 89.1465 25.31 89.3931 24.89C89.6465 24.4633 89.9898 24.1333 90.4231 23.9C90.8631 23.66 91.3565 23.54 91.9031 23.54C92.4165 23.54 92.8831 23.65 93.3031 23.87C93.7231 24.0833 94.0565 24.3967 94.3031 24.81C94.5565 25.2167 94.6831 25.7 94.6831 26.26L90.7031 27.03C90.8165 27.2967 90.9931 27.4967 91.2331 27.63C91.4798 27.7633 91.7798 27.83 92.1331 27.83ZM91.9031 24.72C91.5098 24.72 91.1898 24.8467 90.9431 25.1C90.6965 25.3533 90.5665 25.7033 90.5531 26.15L93.1731 25.64C93.0998 25.36 92.9498 25.1367 92.7231 24.97C92.4965 24.8033 92.2231 24.72 91.9031 24.72Z" fill="#E5E5E5"/>
<path d="M28.9985 4C26.1052 4.97744 23.8504 5.95489 24.1719 10.1905C27.0652 9.53884 29.6415 7.90977 28.9985 4ZM19.8095 9.88095C17.0238 9.88095 13 12.3571 13 17C13 23.5 17.3333 30 19.8095 30C21.6667 30 23.2143 28.7619 24.4524 28.7619C25.6905 28.7619 26.9286 30 28.7857 30C31.2619 30 34.0476 26.2857 34.6667 22.881C32.5 21.3333 30.9524 20.4048 30.9524 17.619C30.9524 15.7619 32.5 13.9048 34.3571 12.3571C33.4286 11.1191 31.5714 9.88095 29.7143 9.88095C27.8571 9.88095 25.8601 11.3503 24.4524 11.4286C23.2143 11.4286 21.6667 9.88095 19.8095 9.88095Z" fill="#E5E5E5"/>
</svg>
