<svg width="948" height="679" viewBox="0 0 948 679" fill="none" xmlns="http://www.w3.org/2000/svg">
<path d="M294.591 498.433C294.672 497.609 294.07 496.875 293.245 496.793L279.811 495.469C278.986 495.387 278.252 495.99 278.171 496.814C278.089 497.638 278.692 498.373 279.516 498.454L291.458 499.632L290.281 511.574C290.199 512.398 290.802 513.133 291.626 513.214C292.45 513.295 293.185 512.693 293.266 511.868L294.591 498.433ZM263.126 524.818L294.05 499.446L292.147 497.127L261.223 522.498L263.126 524.818Z" fill="#2AD2BE"/>
<path d="M658.68 4.8H663.4C664.584 4.8 665.635 5.03467 666.552 5.504C667.469 5.97333 668.179 6.63467 668.68 7.488C669.192 8.33067 669.448 9.30133 669.448 10.4C669.448 11.4987 669.192 12.4747 668.68 13.328C668.179 14.1707 667.469 14.8267 666.552 15.296C665.635 15.7653 664.584 16 663.4 16H658.68V4.8ZM663.304 14.608C664.211 14.608 665.005 14.432 665.688 14.08C666.381 13.728 666.915 13.2373 667.288 12.608C667.661 11.968 667.848 11.232 667.848 10.4C667.848 9.568 667.661 8.83733 667.288 8.208C666.915 7.568 666.381 7.072 665.688 6.72C665.005 6.368 664.211 6.192 663.304 6.192H660.28V14.608H663.304ZM675.499 14.752C676.512 14.752 677.328 14.4107 677.947 13.728L678.779 14.72C678.405 15.168 677.931 15.5093 677.355 15.744C676.789 15.9787 676.155 16.096 675.451 16.096C674.555 16.096 673.76 15.9147 673.067 15.552C672.373 15.1787 671.835 14.6613 671.451 14C671.077 13.3387 670.891 12.592 670.891 11.76C670.891 10.9387 671.072 10.1973 671.435 9.536C671.808 8.87467 672.315 8.36267 672.955 8C673.605 7.62667 674.336 7.44 675.147 7.44C675.915 7.44 676.613 7.616 677.243 7.968C677.872 8.30933 678.373 8.79467 678.747 9.424C679.12 10.0533 679.312 10.7787 679.323 11.6L672.587 12.912C672.8 13.4987 673.157 13.952 673.659 14.272C674.171 14.592 674.784 14.752 675.499 14.752ZM675.147 8.736C674.613 8.736 674.133 8.85867 673.707 9.104C673.291 9.34933 672.965 9.696 672.731 10.144C672.496 10.5813 672.379 11.0933 672.379 11.68V11.84L677.803 10.816C677.664 10.1973 677.355 9.696 676.875 9.312C676.395 8.928 675.819 8.736 675.147 8.736ZM683.904 16.096C683.21 16.096 682.544 16.0053 681.904 15.824C681.264 15.632 680.762 15.392 680.4 15.104L681.04 13.888C681.413 14.1547 681.866 14.368 682.4 14.528C682.933 14.688 683.472 14.768 684.016 14.768C685.36 14.768 686.032 14.384 686.032 13.616C686.032 13.36 685.941 13.1573 685.76 13.008C685.578 12.8587 685.349 12.752 685.072 12.688C684.805 12.6133 684.421 12.5333 683.92 12.448C683.237 12.3413 682.677 12.2187 682.24 12.08C681.813 11.9413 681.445 11.7067 681.136 11.376C680.826 11.0453 680.672 10.5813 680.672 9.984C680.672 9.216 680.992 8.60267 681.632 8.144C682.272 7.67467 683.13 7.44 684.208 7.44C684.773 7.44 685.338 7.50933 685.904 7.648C686.469 7.78667 686.933 7.97333 687.296 8.208L686.64 9.424C685.946 8.976 685.13 8.752 684.192 8.752C683.541 8.752 683.045 8.85867 682.704 9.072C682.362 9.28533 682.192 9.568 682.192 9.92C682.192 10.1973 682.288 10.416 682.48 10.576C682.672 10.736 682.906 10.8533 683.184 10.928C683.472 11.0027 683.872 11.088 684.384 11.184C685.066 11.3013 685.616 11.4293 686.032 11.568C686.458 11.696 686.821 11.92 687.12 12.24C687.418 12.56 687.568 13.008 687.568 13.584C687.568 14.352 687.237 14.9653 686.576 15.424C685.925 15.872 685.034 16.096 683.904 16.096ZM693.951 15.504C693.727 15.696 693.45 15.8453 693.119 15.952C692.789 16.048 692.447 16.096 692.095 16.096C691.242 16.096 690.581 15.8667 690.111 15.408C689.642 14.9493 689.407 14.2933 689.407 13.44V5.664H690.943V7.52H693.375V8.784H690.943V13.376C690.943 13.8347 691.055 14.1867 691.279 14.432C691.514 14.6773 691.845 14.8 692.271 14.8C692.741 14.8 693.141 14.6667 693.471 14.4L693.951 15.504ZM695.8 7.52H697.336V16H695.8V7.52ZM696.568 5.888C696.269 5.888 696.018 5.792 695.816 5.6C695.624 5.408 695.528 5.17333 695.528 4.896C695.528 4.61867 695.624 4.384 695.816 4.192C696.018 3.98933 696.269 3.888 696.568 3.888C696.866 3.888 697.112 3.984 697.304 4.176C697.506 4.35733 697.608 4.58667 697.608 4.864C697.608 5.152 697.506 5.39733 697.304 5.6C697.112 5.792 696.866 5.888 696.568 5.888ZM704.797 7.44C705.874 7.44 706.727 7.75467 707.357 8.384C707.997 9.00267 708.317 9.91467 708.317 11.12V16H706.781V11.296C706.781 10.4747 706.583 9.856 706.189 9.44C705.794 9.024 705.229 8.816 704.493 8.816C703.661 8.816 703.005 9.06133 702.525 9.552C702.045 10.032 701.805 10.7253 701.805 11.632V16H700.269V7.52H701.741V8.8C702.05 8.36267 702.466 8.02667 702.989 7.792C703.522 7.55733 704.125 7.44 704.797 7.44ZM719.206 7.52V16H717.734V14.656C717.393 15.1253 716.961 15.4827 716.438 15.728C715.915 15.9733 715.339 16.096 714.71 16.096C713.889 16.096 713.153 15.9147 712.502 15.552C711.851 15.1893 711.339 14.6827 710.966 14.032C710.603 13.3707 710.422 12.6133 710.422 11.76C710.422 10.9067 710.603 10.1547 710.966 9.504C711.339 8.85333 711.851 8.34667 712.502 7.984C713.153 7.62133 713.889 7.44 714.71 7.44C715.318 7.44 715.878 7.55733 716.39 7.792C716.902 8.016 717.329 8.352 717.67 8.8V7.52H719.206ZM714.838 14.752C715.371 14.752 715.857 14.6293 716.294 14.384C716.731 14.128 717.073 13.776 717.318 13.328C717.563 12.8693 717.686 12.3467 717.686 11.76C717.686 11.1733 717.563 10.656 717.318 10.208C717.073 9.74933 716.731 9.39733 716.294 9.152C715.857 8.90667 715.371 8.784 714.838 8.784C714.294 8.784 713.803 8.90667 713.366 9.152C712.939 9.39733 712.598 9.74933 712.342 10.208C712.097 10.656 711.974 11.1733 711.974 11.76C711.974 12.3467 712.097 12.8693 712.342 13.328C712.598 13.776 712.939 14.128 713.366 14.384C713.803 14.6293 714.294 14.752 714.838 14.752ZM726.576 15.504C726.352 15.696 726.075 15.8453 725.744 15.952C725.414 16.048 725.072 16.096 724.72 16.096C723.867 16.096 723.206 15.8667 722.736 15.408C722.267 14.9493 722.032 14.2933 722.032 13.44V5.664H723.568V7.52H726V8.784H723.568V13.376C723.568 13.8347 723.68 14.1867 723.904 14.432C724.139 14.6773 724.47 14.8 724.896 14.8C725.366 14.8 725.766 14.6667 726.096 14.4L726.576 15.504ZM728.425 7.52H729.961V16H728.425V7.52ZM729.193 5.888C728.894 5.888 728.643 5.792 728.441 5.6C728.249 5.408 728.153 5.17333 728.153 4.896C728.153 4.61867 728.249 4.384 728.441 4.192C728.643 3.98933 728.894 3.888 729.193 3.888C729.491 3.888 729.737 3.984 729.929 4.176C730.131 4.35733 730.233 4.58667 730.233 4.864C730.233 5.152 730.131 5.39733 729.929 5.6C729.737 5.792 729.491 5.888 729.193 5.888ZM736.526 16.096C735.683 16.096 734.926 15.9093 734.254 15.536C733.582 15.1627 733.054 14.6507 732.67 14C732.296 13.3387 732.11 12.592 732.11 11.76C732.11 10.928 732.296 10.1867 732.67 9.536C733.054 8.87467 733.582 8.36267 734.254 8C734.926 7.62667 735.683 7.44 736.526 7.44C737.368 7.44 738.12 7.62667 738.782 8C739.454 8.36267 739.976 8.87467 740.35 9.536C740.734 10.1867 740.926 10.928 740.926 11.76C740.926 12.592 740.734 13.3387 740.35 14C739.976 14.6507 739.454 15.1627 738.782 15.536C738.12 15.9093 737.368 16.096 736.526 16.096ZM736.526 14.752C737.07 14.752 737.555 14.6293 737.982 14.384C738.419 14.128 738.76 13.776 739.006 13.328C739.251 12.8693 739.374 12.3467 739.374 11.76C739.374 11.1733 739.251 10.656 739.006 10.208C738.76 9.74933 738.419 9.39733 737.982 9.152C737.555 8.90667 737.07 8.784 736.526 8.784C735.982 8.784 735.491 8.90667 735.054 9.152C734.627 9.39733 734.286 9.74933 734.03 10.208C733.784 10.656 733.662 11.1733 733.662 11.76C733.662 12.3467 733.784 12.8693 734.03 13.328C734.286 13.776 734.627 14.128 735.054 14.384C735.491 14.6293 735.982 14.752 736.526 14.752ZM747.578 7.44C748.655 7.44 749.508 7.75467 750.138 8.384C750.778 9.00267 751.098 9.91467 751.098 11.12V16H749.562V11.296C749.562 10.4747 749.364 9.856 748.97 9.44C748.575 9.024 748.01 8.816 747.274 8.816C746.442 8.816 745.786 9.06133 745.306 9.552C744.826 10.032 744.586 10.7253 744.586 11.632V16H743.05V7.52H744.522V8.8C744.831 8.36267 745.247 8.02667 745.77 7.792C746.303 7.55733 746.906 7.44 747.578 7.44Z" fill="#E5E5E5"/>
<path d="M893.048 216.8C894.499 216.8 895.64 217.147 896.472 217.84C897.304 218.533 897.72 219.488 897.72 220.704C897.72 221.92 897.304 222.875 896.472 223.568C895.64 224.261 894.499 224.608 893.048 224.608H890.28V228H888.68V216.8H893.048ZM893 223.216C894.013 223.216 894.787 223.003 895.32 222.576C895.853 222.139 896.12 221.515 896.12 220.704C896.12 219.893 895.853 219.275 895.32 218.848C894.787 218.411 894.013 218.192 893 218.192H890.28V223.216H893ZM899.706 219.52H901.242V228H899.706V219.52ZM900.474 217.888C900.175 217.888 899.925 217.792 899.722 217.6C899.53 217.408 899.434 217.173 899.434 216.896C899.434 216.619 899.53 216.384 899.722 216.192C899.925 215.989 900.175 215.888 900.474 215.888C900.773 215.888 901.018 215.984 901.21 216.176C901.413 216.357 901.514 216.587 901.514 216.864C901.514 217.152 901.413 217.397 901.21 217.6C901.018 217.792 900.773 217.888 900.474 217.888ZM907.871 228.096C907.007 228.096 906.233 227.909 905.551 227.536C904.879 227.163 904.351 226.651 903.967 226C903.583 225.339 903.391 224.592 903.391 223.76C903.391 222.928 903.583 222.187 903.967 221.536C904.351 220.875 904.879 220.363 905.551 220C906.233 219.627 907.007 219.44 907.871 219.44C908.639 219.44 909.321 219.595 909.919 219.904C910.527 220.213 910.996 220.661 911.327 221.248L910.159 222C909.892 221.595 909.561 221.291 909.167 221.088C908.772 220.885 908.335 220.784 907.855 220.784C907.3 220.784 906.799 220.907 906.351 221.152C905.913 221.397 905.567 221.749 905.311 222.208C905.065 222.656 904.943 223.173 904.943 223.76C904.943 224.357 905.065 224.885 905.311 225.344C905.567 225.792 905.913 226.139 906.351 226.384C906.799 226.629 907.3 226.752 907.855 226.752C908.335 226.752 908.772 226.651 909.167 226.448C909.561 226.245 909.892 225.941 910.159 225.536L911.327 226.272C910.996 226.859 910.527 227.312 909.919 227.632C909.321 227.941 908.639 228.096 907.871 228.096ZM916.502 224.048L914.742 225.68V228H913.206V216.128H914.742V223.744L919.366 219.52H921.222L917.654 223.024L921.574 228H919.686L916.502 224.048ZM930.813 219.52V228H929.357V226.72C929.048 227.157 928.637 227.499 928.125 227.744C927.624 227.979 927.074 228.096 926.477 228.096C925.346 228.096 924.456 227.787 923.805 227.168C923.154 226.539 922.829 225.616 922.829 224.4V219.52H924.365V224.224C924.365 225.045 924.562 225.669 924.957 226.096C925.352 226.512 925.917 226.72 926.653 226.72C927.464 226.72 928.104 226.475 928.573 225.984C929.042 225.493 929.277 224.8 929.277 223.904V219.52H930.813ZM938.233 219.44C939.055 219.44 939.791 219.621 940.441 219.984C941.092 220.347 941.599 220.853 941.961 221.504C942.335 222.155 942.521 222.907 942.521 223.76C942.521 224.613 942.335 225.371 941.961 226.032C941.599 226.683 941.092 227.189 940.441 227.552C939.791 227.915 939.055 228.096 938.233 228.096C937.625 228.096 937.065 227.979 936.553 227.744C936.052 227.509 935.625 227.168 935.273 226.72V231.104H933.737V219.52H935.209V220.864C935.551 220.395 935.983 220.043 936.505 219.808C937.028 219.563 937.604 219.44 938.233 219.44ZM938.105 226.752C938.649 226.752 939.135 226.629 939.561 226.384C939.999 226.128 940.34 225.776 940.585 225.328C940.841 224.869 940.969 224.347 940.969 223.76C940.969 223.173 940.841 222.656 940.585 222.208C940.34 221.749 939.999 221.397 939.561 221.152C939.135 220.907 938.649 220.784 938.105 220.784C937.572 220.784 937.087 220.912 936.649 221.168C936.223 221.413 935.881 221.76 935.625 222.208C935.38 222.656 935.257 223.173 935.257 223.76C935.257 224.347 935.38 224.869 935.625 225.328C935.871 225.776 936.212 226.128 936.649 226.384C937.087 226.629 937.572 226.752 938.105 226.752Z" fill="#E5E5E5"/>
<circle cx="916.874" cy="268.874" r="30.8744" fill="#F0CF28" fill-opacity="0.5"/>
<circle cx="916.874" cy="268.874" r="17.9072" fill="#E5E5E5" fill-opacity="0.5"/>
<circle cx="453.5" cy="420.5" r="19.5" fill="#2AD2BE"/>
<circle cx="431.5" cy="334.5" r="19.5" fill="#2AD2BE"/>
<circle cx="444.5" cy="246.5" r="19.5" fill="#2AD2BE"/>
<circle cx="493.5" cy="169.5" r="19.5" fill="#2AD2BE"/>
<circle cx="557.5" cy="123.5" r="19.5" fill="#2AD2BE"/>
<path fill-rule="evenodd" clip-rule="evenodd" d="M678.17 77.4722L671.293 70.2115L646.245 93.9328C642.979 91.4641 638.91 90 634.5 90C623.73 90 615 98.7304 615 109.5C615 120.27 623.73 129 634.5 129C645.27 129 654 120.27 654 109.5C654 106.781 653.444 104.192 652.438 101.841L678.17 77.4722Z" fill="#2AD2BE"/>
<path fill-rule="evenodd" clip-rule="evenodd" d="M891.858 286.007L886.986 277.274L866.675 288.606C863.172 283.414 857.235 280 850.5 280C839.73 280 831 288.73 831 299.5C831 310.27 839.73 319 850.5 319C861.27 319 870 310.27 870 299.5C870 299.071 869.986 298.646 869.959 298.225L891.858 286.007Z" fill="#F0CF28"/>
<circle cx="838.5" cy="390.5" r="19.5" fill="#F0CF28"/>
<circle cx="799.5" cy="464.5" r="19.5" fill="#F0CF28"/>
<path fill-rule="evenodd" clip-rule="evenodd" d="M652 102.25C648.521 102.084 645.02 102 641.5 102C521.93 102 425 198.93 425 318.5C425 362.166 437.927 402.813 460.164 436.822L469.361 431.349C447.868 398.856 435.354 359.904 435.354 318.029C435.354 204.438 527.438 112.354 641.029 112.354C644.71 112.354 648.367 112.451 652 112.642V102.25ZM704.367 525.731C793.277 498.794 858 416.206 858 318.5C858 306.06 856.951 293.866 854.936 282H843.559C845.626 293.698 846.704 305.738 846.704 318.029C846.704 410.677 785.447 489.017 701.225 514.755L704.367 525.731Z" fill="#E5E5E5" fill-opacity="0.2"/>
<circle cx="697.874" cy="57.8744" r="30.8744" fill="#2AD2BE" fill-opacity="0.5"/>
<circle cx="697.874" cy="57.8745" r="17.9072" fill="#E5E5E5" fill-opacity="0.5"/>
<path fill-rule="evenodd" clip-rule="evenodd" d="M444.473 432.759L438.165 425L125.744 679H141.596L444.473 432.759Z" fill="#2AD2BE"/>
<path fill-rule="evenodd" clip-rule="evenodd" d="M731.444 527.131C734.882 523.615 737 518.805 737 513.5C737 502.73 728.27 494 717.5 494C706.73 494 698 502.73 698 513.5C698 524.27 706.73 533 717.5 533C719.358 533 721.155 532.74 722.857 532.255L810.762 679H822.419L731.444 527.131Z" fill="#F8D42D"/>
<path fill-rule="evenodd" clip-rule="evenodd" d="M771.408 66.7796C772.57 63.5077 773.525 60.1377 774.258 56.6855C832.07 85.8976 878.657 134.094 905.822 193.08C902.176 193.684 898.614 194.535 895.152 195.615C869.272 140.212 825.564 94.8066 771.408 66.7796ZM464.932 89.5043C507.35 55.286 559.708 32.8966 616.995 27.3489C616.47 30.6519 616.147 34.0223 616.04 37.4468C562.748 42.8959 513.937 63.4796 473.975 94.83C471.091 92.8654 468.071 91.0846 464.932 89.5043ZM825.351 536.267L825.194 536.394L824.989 536.559L824.844 536.676C824.573 535.743 824.286 534.817 823.983 533.898L820 527L821.07 526.382C820.952 526.117 820.831 525.852 820.71 525.588C872.391 482.803 908.249 421.578 918.201 351.996L918.357 351.997L918.576 351.999L918.736 352C918.824 352 918.912 352 919 352C922.547 352 926.039 351.769 929.464 351.322C919.997 422.273 884.607 485.026 833.131 529.744L919.304 679H907.757L825.351 536.267ZM723.622 679L676.993 598.237C677.151 598.219 677.309 598.202 677.466 598.184C677.708 598.157 677.949 598.129 678.191 598.102C676.293 594.72 674.633 591.187 673.235 587.525C663.79 588.5 654.203 589 644.5 589C573.742 589 509.192 562.422 460.289 518.704L460.21 518.749L460.108 518.806L459.955 518.892L455.165 513L250.984 679H266.836L453.775 527.018C504.538 572.406 571.546 600 645 600C652.071 600 659.083 599.744 666.026 599.242L712.075 679H723.622ZM16.556 679H0.703857L366.293 381.774C360.874 359.74 358 336.706 358 313C358 280.037 363.557 248.372 373.785 218.891C376.338 221.326 379.05 223.594 381.906 225.677C372.883 252.982 368 282.171 368 312.5C368 336.597 371.083 359.974 376.875 382.259L376.727 382.357L376.593 382.447L378.473 384.759L16.556 679Z" fill="#E5E5E5" fill-opacity="0.2"/>
<path d="M829.267 622.14C830.077 622.317 830.876 621.804 831.053 620.995L833.938 607.807C834.115 606.997 833.602 606.198 832.793 606.021C831.984 605.844 831.184 606.356 831.007 607.166L828.443 618.888L816.72 616.325C815.911 616.148 815.111 616.66 814.934 617.469C814.757 618.279 815.27 619.078 816.079 619.255L829.267 622.14ZM806.737 587.81L828.325 621.484L830.851 619.865L809.263 586.19L806.737 587.81Z" fill="#EED34E"/>
<path d="M759.267 656.14C760.077 656.317 760.876 655.804 761.053 654.995L763.938 641.807C764.115 640.997 763.602 640.198 762.793 640.021C761.984 639.844 761.184 640.356 761.007 641.166L758.443 652.888L746.72 650.325C745.911 650.148 745.111 650.66 744.934 651.469C744.757 652.279 745.27 653.078 746.079 653.255L759.267 656.14ZM736.737 621.81L758.325 655.484L760.851 653.865L739.263 620.19L736.737 621.81Z" fill="#EED34E"/>
<path d="M348.885 554.135C348.965 553.311 348.362 552.578 347.537 552.498L334.1 551.195C333.276 551.115 332.542 551.719 332.462 552.543C332.383 553.368 332.986 554.101 333.811 554.181L345.755 555.339L344.597 567.283C344.517 568.108 345.12 568.841 345.945 568.921C346.77 569.001 347.503 568.397 347.583 567.572L348.885 554.135ZM317.464 580.572L348.346 555.149L346.439 552.833L315.557 578.256L317.464 580.572Z" fill="#2AD2BE"/>
</svg>
