<svg width="766" height="542" viewBox="0 0 766 542" fill="none" xmlns="http://www.w3.org/2000/svg">
<path d="M524.68 4.8H529.4C530.584 4.8 531.635 5.03467 532.552 5.504C533.469 5.97333 534.179 6.63467 534.68 7.488C535.192 8.33067 535.448 9.30133 535.448 10.4C535.448 11.4987 535.192 12.4747 534.68 13.328C534.179 14.1707 533.469 14.8267 532.552 15.296C531.635 15.7653 530.584 16 529.4 16H524.68V4.8ZM529.304 14.608C530.211 14.608 531.005 14.432 531.688 14.08C532.381 13.728 532.915 13.2373 533.288 12.608C533.661 11.968 533.848 11.232 533.848 10.4C533.848 9.568 533.661 8.83733 533.288 8.208C532.915 7.568 532.381 7.072 531.688 6.72C531.005 6.368 530.211 6.192 529.304 6.192H526.28V14.608H529.304ZM541.499 14.752C542.512 14.752 543.328 14.4107 543.947 13.728L544.779 14.72C544.405 15.168 543.931 15.5093 543.355 15.744C542.789 15.9787 542.155 16.096 541.451 16.096C540.555 16.096 539.76 15.9147 539.067 15.552C538.373 15.1787 537.835 14.6613 537.451 14C537.077 13.3387 536.891 12.592 536.891 11.76C536.891 10.9387 537.072 10.1973 537.435 9.536C537.808 8.87467 538.315 8.36267 538.955 8C539.605 7.62667 540.336 7.44 541.147 7.44C541.915 7.44 542.613 7.616 543.243 7.968C543.872 8.30933 544.373 8.79467 544.747 9.424C545.12 10.0533 545.312 10.7787 545.323 11.6L538.587 12.912C538.8 13.4987 539.157 13.952 539.659 14.272C540.171 14.592 540.784 14.752 541.499 14.752ZM541.147 8.736C540.613 8.736 540.133 8.85867 539.707 9.104C539.291 9.34933 538.965 9.696 538.731 10.144C538.496 10.5813 538.379 11.0933 538.379 11.68V11.84L543.803 10.816C543.664 10.1973 543.355 9.696 542.875 9.312C542.395 8.928 541.819 8.736 541.147 8.736ZM549.904 16.096C549.21 16.096 548.544 16.0053 547.904 15.824C547.264 15.632 546.762 15.392 546.4 15.104L547.04 13.888C547.413 14.1547 547.866 14.368 548.4 14.528C548.933 14.688 549.472 14.768 550.016 14.768C551.36 14.768 552.032 14.384 552.032 13.616C552.032 13.36 551.941 13.1573 551.76 13.008C551.578 12.8587 551.349 12.752 551.072 12.688C550.805 12.6133 550.421 12.5333 549.92 12.448C549.237 12.3413 548.677 12.2187 548.24 12.08C547.813 11.9413 547.445 11.7067 547.136 11.376C546.826 11.0453 546.672 10.5813 546.672 9.984C546.672 9.216 546.992 8.60267 547.632 8.144C548.272 7.67467 549.13 7.44 550.208 7.44C550.773 7.44 551.338 7.50933 551.904 7.648C552.469 7.78667 552.933 7.97333 553.296 8.208L552.64 9.424C551.946 8.976 551.13 8.752 550.192 8.752C549.541 8.752 549.045 8.85867 548.704 9.072C548.362 9.28533 548.192 9.568 548.192 9.92C548.192 10.1973 548.288 10.416 548.48 10.576C548.672 10.736 548.906 10.8533 549.184 10.928C549.472 11.0027 549.872 11.088 550.384 11.184C551.066 11.3013 551.616 11.4293 552.032 11.568C552.458 11.696 552.821 11.92 553.12 12.24C553.418 12.56 553.568 13.008 553.568 13.584C553.568 14.352 553.237 14.9653 552.576 15.424C551.925 15.872 551.034 16.096 549.904 16.096ZM559.951 15.504C559.727 15.696 559.45 15.8453 559.119 15.952C558.789 16.048 558.447 16.096 558.095 16.096C557.242 16.096 556.581 15.8667 556.111 15.408C555.642 14.9493 555.407 14.2933 555.407 13.44V5.664H556.943V7.52H559.375V8.784H556.943V13.376C556.943 13.8347 557.055 14.1867 557.279 14.432C557.514 14.6773 557.845 14.8 558.271 14.8C558.741 14.8 559.141 14.6667 559.471 14.4L559.951 15.504ZM561.8 7.52H563.336V16H561.8V7.52ZM562.568 5.888C562.269 5.888 562.018 5.792 561.816 5.6C561.624 5.408 561.528 5.17333 561.528 4.896C561.528 4.61867 561.624 4.384 561.816 4.192C562.018 3.98933 562.269 3.888 562.568 3.888C562.866 3.888 563.112 3.984 563.304 4.176C563.506 4.35733 563.608 4.58667 563.608 4.864C563.608 5.152 563.506 5.39733 563.304 5.6C563.112 5.792 562.866 5.888 562.568 5.888ZM570.797 7.44C571.874 7.44 572.727 7.75467 573.357 8.384C573.997 9.00267 574.317 9.91467 574.317 11.12V16H572.781V11.296C572.781 10.4747 572.583 9.856 572.189 9.44C571.794 9.024 571.229 8.816 570.493 8.816C569.661 8.816 569.005 9.06133 568.525 9.552C568.045 10.032 567.805 10.7253 567.805 11.632V16H566.269V7.52H567.741V8.8C568.05 8.36267 568.466 8.02667 568.989 7.792C569.522 7.55733 570.125 7.44 570.797 7.44ZM585.206 7.52V16H583.734V14.656C583.393 15.1253 582.961 15.4827 582.438 15.728C581.915 15.9733 581.339 16.096 580.71 16.096C579.889 16.096 579.153 15.9147 578.502 15.552C577.851 15.1893 577.339 14.6827 576.966 14.032C576.603 13.3707 576.422 12.6133 576.422 11.76C576.422 10.9067 576.603 10.1547 576.966 9.504C577.339 8.85333 577.851 8.34667 578.502 7.984C579.153 7.62133 579.889 7.44 580.71 7.44C581.318 7.44 581.878 7.55733 582.39 7.792C582.902 8.016 583.329 8.352 583.67 8.8V7.52H585.206ZM580.838 14.752C581.371 14.752 581.857 14.6293 582.294 14.384C582.731 14.128 583.073 13.776 583.318 13.328C583.563 12.8693 583.686 12.3467 583.686 11.76C583.686 11.1733 583.563 10.656 583.318 10.208C583.073 9.74933 582.731 9.39733 582.294 9.152C581.857 8.90667 581.371 8.784 580.838 8.784C580.294 8.784 579.803 8.90667 579.366 9.152C578.939 9.39733 578.598 9.74933 578.342 10.208C578.097 10.656 577.974 11.1733 577.974 11.76C577.974 12.3467 578.097 12.8693 578.342 13.328C578.598 13.776 578.939 14.128 579.366 14.384C579.803 14.6293 580.294 14.752 580.838 14.752ZM592.576 15.504C592.352 15.696 592.075 15.8453 591.744 15.952C591.414 16.048 591.072 16.096 590.72 16.096C589.867 16.096 589.206 15.8667 588.736 15.408C588.267 14.9493 588.032 14.2933 588.032 13.44V5.664H589.568V7.52H592V8.784H589.568V13.376C589.568 13.8347 589.68 14.1867 589.904 14.432C590.139 14.6773 590.47 14.8 590.896 14.8C591.366 14.8 591.766 14.6667 592.096 14.4L592.576 15.504ZM594.425 7.52H595.961V16H594.425V7.52ZM595.193 5.888C594.894 5.888 594.643 5.792 594.441 5.6C594.249 5.408 594.153 5.17333 594.153 4.896C594.153 4.61867 594.249 4.384 594.441 4.192C594.643 3.98933 594.894 3.888 595.193 3.888C595.491 3.888 595.737 3.984 595.929 4.176C596.131 4.35733 596.233 4.58667 596.233 4.864C596.233 5.152 596.131 5.39733 595.929 5.6C595.737 5.792 595.491 5.888 595.193 5.888ZM602.526 16.096C601.683 16.096 600.926 15.9093 600.254 15.536C599.582 15.1627 599.054 14.6507 598.67 14C598.296 13.3387 598.11 12.592 598.11 11.76C598.11 10.928 598.296 10.1867 598.67 9.536C599.054 8.87467 599.582 8.36267 600.254 8C600.926 7.62667 601.683 7.44 602.526 7.44C603.368 7.44 604.12 7.62667 604.782 8C605.454 8.36267 605.976 8.87467 606.35 9.536C606.734 10.1867 606.926 10.928 606.926 11.76C606.926 12.592 606.734 13.3387 606.35 14C605.976 14.6507 605.454 15.1627 604.782 15.536C604.12 15.9093 603.368 16.096 602.526 16.096ZM602.526 14.752C603.07 14.752 603.555 14.6293 603.982 14.384C604.419 14.128 604.76 13.776 605.006 13.328C605.251 12.8693 605.374 12.3467 605.374 11.76C605.374 11.1733 605.251 10.656 605.006 10.208C604.76 9.74933 604.419 9.39733 603.982 9.152C603.555 8.90667 603.07 8.784 602.526 8.784C601.982 8.784 601.491 8.90667 601.054 9.152C600.627 9.39733 600.286 9.74933 600.03 10.208C599.784 10.656 599.662 11.1733 599.662 11.76C599.662 12.3467 599.784 12.8693 600.03 13.328C600.286 13.776 600.627 14.128 601.054 14.384C601.491 14.6293 601.982 14.752 602.526 14.752ZM613.578 7.44C614.655 7.44 615.508 7.75467 616.138 8.384C616.778 9.00267 617.098 9.91467 617.098 11.12V16H615.562V11.296C615.562 10.4747 615.364 9.856 614.97 9.44C614.575 9.024 614.01 8.816 613.274 8.816C612.442 8.816 611.786 9.06133 611.306 9.552C610.826 10.032 610.586 10.7253 610.586 11.632V16H609.05V7.52H610.522V8.8C610.831 8.36267 611.247 8.02667 611.77 7.792C612.303 7.55733 612.906 7.44 613.578 7.44Z" fill="#E5E5E5"/>
<path d="M703.048 173.8C704.499 173.8 705.64 174.147 706.472 174.84C707.304 175.533 707.72 176.488 707.72 177.704C707.72 178.92 707.304 179.875 706.472 180.568C705.64 181.261 704.499 181.608 703.048 181.608H700.28V185H698.68V173.8H703.048ZM703 180.216C704.013 180.216 704.787 180.003 705.32 179.576C705.853 179.139 706.12 178.515 706.12 177.704C706.12 176.893 705.853 176.275 705.32 175.848C704.787 175.411 704.013 175.192 703 175.192H700.28V180.216H703ZM709.706 176.52H711.242V185H709.706V176.52ZM710.474 174.888C710.175 174.888 709.925 174.792 709.722 174.6C709.53 174.408 709.434 174.173 709.434 173.896C709.434 173.619 709.53 173.384 709.722 173.192C709.925 172.989 710.175 172.888 710.474 172.888C710.773 172.888 711.018 172.984 711.21 173.176C711.413 173.357 711.514 173.587 711.514 173.864C711.514 174.152 711.413 174.397 711.21 174.6C711.018 174.792 710.773 174.888 710.474 174.888ZM717.871 185.096C717.007 185.096 716.233 184.909 715.551 184.536C714.879 184.163 714.351 183.651 713.967 183C713.583 182.339 713.391 181.592 713.391 180.76C713.391 179.928 713.583 179.187 713.967 178.536C714.351 177.875 714.879 177.363 715.551 177C716.233 176.627 717.007 176.44 717.871 176.44C718.639 176.44 719.321 176.595 719.919 176.904C720.527 177.213 720.996 177.661 721.327 178.248L720.159 179C719.892 178.595 719.561 178.291 719.167 178.088C718.772 177.885 718.335 177.784 717.855 177.784C717.3 177.784 716.799 177.907 716.351 178.152C715.913 178.397 715.567 178.749 715.311 179.208C715.065 179.656 714.943 180.173 714.943 180.76C714.943 181.357 715.065 181.885 715.311 182.344C715.567 182.792 715.913 183.139 716.351 183.384C716.799 183.629 717.3 183.752 717.855 183.752C718.335 183.752 718.772 183.651 719.167 183.448C719.561 183.245 719.892 182.941 720.159 182.536L721.327 183.272C720.996 183.859 720.527 184.312 719.919 184.632C719.321 184.941 718.639 185.096 717.871 185.096ZM726.502 181.048L724.742 182.68V185H723.206V173.128H724.742V180.744L729.366 176.52H731.222L727.654 180.024L731.574 185H729.686L726.502 181.048ZM740.813 176.52V185H739.357V183.72C739.048 184.157 738.637 184.499 738.125 184.744C737.624 184.979 737.074 185.096 736.477 185.096C735.346 185.096 734.456 184.787 733.805 184.168C733.154 183.539 732.829 182.616 732.829 181.4V176.52H734.365V181.224C734.365 182.045 734.562 182.669 734.957 183.096C735.352 183.512 735.917 183.72 736.653 183.72C737.464 183.72 738.104 183.475 738.573 182.984C739.042 182.493 739.277 181.8 739.277 180.904V176.52H740.813ZM748.233 176.44C749.055 176.44 749.791 176.621 750.441 176.984C751.092 177.347 751.599 177.853 751.961 178.504C752.335 179.155 752.521 179.907 752.521 180.76C752.521 181.613 752.335 182.371 751.961 183.032C751.599 183.683 751.092 184.189 750.441 184.552C749.791 184.915 749.055 185.096 748.233 185.096C747.625 185.096 747.065 184.979 746.553 184.744C746.052 184.509 745.625 184.168 745.273 183.72V188.104H743.737V176.52H745.209V177.864C745.551 177.395 745.983 177.043 746.505 176.808C747.028 176.563 747.604 176.44 748.233 176.44ZM748.105 183.752C748.649 183.752 749.135 183.629 749.561 183.384C749.999 183.128 750.34 182.776 750.585 182.328C750.841 181.869 750.969 181.347 750.969 180.76C750.969 180.173 750.841 179.656 750.585 179.208C750.34 178.749 749.999 178.397 749.561 178.152C749.135 177.907 748.649 177.784 748.105 177.784C747.572 177.784 747.087 177.912 746.649 178.168C746.223 178.413 745.881 178.76 745.625 179.208C745.38 179.656 745.257 180.173 745.257 180.76C745.257 181.347 745.38 181.869 745.625 182.328C745.871 182.776 746.212 183.128 746.649 183.384C747.087 183.629 747.572 183.752 748.105 183.752Z" fill="#E5E5E5"/>
<circle cx="730.386" cy="214.351" r="24.6136" fill="#F0CF28" fill-opacity="0.5"/>
<circle cx="730.386" cy="214.351" r="14.2759" fill="#E5E5E5" fill-opacity="0.5"/>
<circle cx="360.977" cy="335.23" r="15.5457" fill="#2AD2BE"/>
<circle cx="343.438" cy="266.669" r="15.5457" fill="#2AD2BE"/>
<circle cx="353.802" cy="196.514" r="15.5457" fill="#2AD2BE"/>
<circle cx="392.865" cy="135.128" r="15.5457" fill="#2AD2BE"/>
<circle cx="443.887" cy="98.4562" r="15.5457" fill="#2AD2BE"/>
<path fill-rule="evenodd" clip-rule="evenodd" d="M540.087 61.7621L534.605 55.9738L514.636 74.8848C512.032 72.9167 508.789 71.7495 505.273 71.7495C496.687 71.7495 489.727 78.7095 489.727 87.2952C489.727 95.8809 496.687 102.841 505.273 102.841C513.858 102.841 520.818 95.8809 520.818 87.2952C520.818 85.1276 520.375 83.0637 519.573 81.1891L540.087 61.7621Z" fill="#2AD2BE"/>
<path fill-rule="evenodd" clip-rule="evenodd" d="M710.443 228.009L706.558 221.047L690.367 230.081C687.574 225.942 682.84 223.221 677.472 223.221C668.886 223.221 661.926 230.181 661.926 238.766C661.926 247.352 668.886 254.312 677.472 254.312C686.057 254.312 693.017 247.352 693.017 238.766C693.017 238.425 693.006 238.086 692.985 237.75L710.443 228.009Z" fill="#F0CF28"/>
<circle cx="667.905" cy="311.313" r="15.5457" fill="#F0CF28"/>
<circle cx="636.814" cy="370.307" r="15.5457" fill="#F0CF28"/>
<path fill-rule="evenodd" clip-rule="evenodd" d="M519.224 81.5155C516.45 81.3831 513.66 81.3161 510.853 81.3161C415.53 81.3161 338.256 158.591 338.256 253.913C338.256 288.725 348.562 321.129 366.289 348.242L373.621 343.879C356.487 317.975 346.51 286.921 346.51 253.538C346.51 162.981 419.921 89.5707 510.478 89.5707C513.412 89.5707 516.328 89.6478 519.224 89.8V81.5155ZM560.972 419.122C631.853 397.647 683.451 331.806 683.451 253.913C683.451 243.996 682.614 234.275 681.008 224.815H671.938C673.586 234.141 674.446 243.739 674.446 253.538C674.446 327.398 625.61 389.852 558.467 410.372L560.972 419.122Z" fill="#E5E5E5" fill-opacity="0.2"/>
<circle cx="555.796" cy="46.1385" r="24.6136" fill="#2AD2BE" fill-opacity="0.5"/>
<circle cx="555.796" cy="46.1385" r="14.2759" fill="#E5E5E5" fill-opacity="0.5"/>
<path fill-rule="evenodd" clip-rule="evenodd" d="M353.78 345.003L348.751 338.817L99.6841 541.31H112.322L353.78 345.003Z" fill="#2AD2BE"/>
<path fill-rule="evenodd" clip-rule="evenodd" d="M582.558 420.237C585.299 417.435 586.987 413.6 586.987 409.371C586.987 400.785 580.027 393.825 571.442 393.825C562.856 393.825 555.896 400.785 555.896 409.371C555.896 417.956 562.856 424.916 571.442 424.916C572.923 424.916 574.355 424.709 575.712 424.322L645.792 541.31H655.085L582.558 420.237Z" fill="#F8D42D"/>
<path fill-rule="evenodd" clip-rule="evenodd" d="M614.418 53.2378C615.345 50.6293 616.106 47.9428 616.69 45.1906C662.779 68.479 699.919 106.902 721.575 153.927C718.669 154.408 715.829 155.087 713.069 155.947C692.437 111.779 657.592 75.5813 614.418 53.2378ZM370.091 71.3543C403.907 44.0749 445.648 26.2257 491.317 21.803C490.899 24.4362 490.642 27.1231 490.556 29.8533C448.071 34.1974 409.158 50.6071 377.3 75.6001C375 74.0339 372.593 72.6142 370.091 71.3543ZM657.422 427.521C657.288 427.63 657.153 427.739 657.018 427.847C656.802 427.103 656.574 426.365 656.332 425.633L653.157 420.133L654.01 419.64C653.967 419.544 653.924 419.448 653.88 419.352C653.828 419.237 653.776 419.122 653.723 419.007C694.923 384.899 723.51 336.089 731.444 280.617C731.656 280.619 731.868 280.62 732.081 280.62C734.909 280.62 737.693 280.436 740.423 280.08C732.876 336.643 704.662 386.671 663.625 422.321L732.324 541.31H723.118L657.422 427.521ZM576.322 541.31L539.149 476.924C539.468 476.889 539.786 476.853 540.104 476.816C538.591 474.121 537.268 471.304 536.153 468.385C528.623 469.162 520.981 469.561 513.245 469.561C456.836 469.561 405.376 448.372 366.389 413.519L366.252 413.597L366.123 413.669L362.304 408.972L199.528 541.31H212.165L361.196 420.147C401.665 456.331 455.085 478.33 513.644 478.33C519.281 478.33 524.871 478.126 530.406 477.725L567.117 541.31H576.322ZM12.6376 541.31H0L291.454 304.356C287.134 286.791 284.843 268.427 284.843 249.529C284.843 223.25 289.273 198.006 297.427 174.504C299.462 176.445 301.624 178.253 303.901 179.913C296.708 201.681 292.815 224.951 292.815 249.13C292.815 268.341 295.272 286.978 299.89 304.743L299.8 304.803L299.665 304.893L301.164 306.736L12.6376 541.31Z" fill="#E5E5E5" fill-opacity="0.2"/>
<path d="M660.48 496.277C661.289 496.454 662.088 495.942 662.265 495.132L665.15 481.944C665.327 481.135 664.814 480.335 664.005 480.158C663.196 479.981 662.396 480.494 662.219 481.303L659.655 493.026L647.932 490.462C647.123 490.285 646.323 490.798 646.146 491.607C645.969 492.416 646.482 493.216 647.291 493.393L660.48 496.277ZM642.327 468.776L659.537 495.621L662.063 494.002L644.853 467.157L642.327 468.776Z" fill="#EED34E"/>
<path d="M604.674 523.383C605.484 523.56 606.283 523.047 606.46 522.238L609.345 509.049C609.522 508.24 609.009 507.441 608.2 507.264C607.391 507.087 606.591 507.599 606.414 508.408L603.85 520.131L592.127 517.567C591.318 517.39 590.518 517.903 590.341 518.712C590.164 519.522 590.677 520.321 591.486 520.498L604.674 523.383ZM586.522 495.881L603.732 522.727L606.258 521.108L589.047 494.262L586.522 495.881Z" fill="#EED34E"/>
<path d="M277.879 441.795C277.959 440.971 277.355 440.238 276.531 440.158L263.094 438.855C262.269 438.775 261.536 439.379 261.456 440.203C261.376 441.028 261.98 441.761 262.804 441.841L274.748 442.999L273.59 454.943C273.51 455.767 274.114 456.501 274.939 456.581C275.763 456.661 276.496 456.057 276.576 455.232L277.879 441.795ZM252.72 463.076L277.339 442.809L275.433 440.493L250.813 460.76L252.72 463.076Z" fill="#2AD2BE"/>
</svg>
