<svg width="70" height="35" viewBox="0 0 70 35" fill="none" xmlns="http://www.w3.org/2000/svg">
<path d="M11.6667 20.4167C14.875 20.4167 17.5 17.7917 17.5 14.5833C17.5 11.375 14.875 8.75 11.6667 8.75C8.45833 8.75 5.83333 11.375 5.83333 14.5833C5.83333 17.7917 8.45833 20.4167 11.6667 20.4167ZM14.9625 23.625C13.8833 23.45 12.8042 23.3333 11.6667 23.3333C8.77917 23.3333 6.0375 23.9458 3.55833 25.025C1.4 25.9583 0 28.0583 0 30.4208V35H13.125V30.3042C13.125 27.8833 13.7958 25.6083 14.9625 23.625ZM58.3333 20.4167C61.5417 20.4167 64.1667 17.7917 64.1667 14.5833C64.1667 11.375 61.5417 8.75 58.3333 8.75C55.125 8.75 52.5 11.375 52.5 14.5833C52.5 17.7917 55.125 20.4167 58.3333 20.4167ZM70 30.4208C70 28.0583 68.6 25.9583 66.4417 25.025C63.9625 23.9458 61.2208 23.3333 58.3333 23.3333C57.1958 23.3333 56.1167 23.45 55.0375 23.625C56.2042 25.6083 56.875 27.8833 56.875 30.3042V35H70V30.4208ZM47.3667 22.3125C43.9542 20.7958 39.7542 19.6875 35 19.6875C30.2458 19.6875 26.0458 20.825 22.6333 22.3125C19.4833 23.7125 17.5 26.8625 17.5 30.3042V35H52.5V30.3042C52.5 26.8625 50.5167 23.7125 47.3667 22.3125ZM23.5375 29.1667C23.8 28.4958 23.9167 28.0292 26.1917 27.1542C29.0208 26.0458 31.9958 25.5208 35 25.5208C38.0042 25.5208 40.9792 26.0458 43.8083 27.1542C46.0542 28.0292 46.1708 28.4958 46.4625 29.1667H23.5375ZM35 5.83333C36.6042 5.83333 37.9167 7.14583 37.9167 8.75C37.9167 10.3542 36.6042 11.6667 35 11.6667C33.3958 11.6667 32.0833 10.3542 32.0833 8.75C32.0833 7.14583 33.3958 5.83333 35 5.83333ZM35 0C30.1583 0 26.25 3.90833 26.25 8.75C26.25 13.5917 30.1583 17.5 35 17.5C39.8417 17.5 43.75 13.5917 43.75 8.75C43.75 3.90833 39.8417 0 35 0Z" fill="#00BAC4"/>
</svg>
