<svg width="154" height="41" viewBox="0 0 154 41" fill="none" xmlns="http://www.w3.org/2000/svg">
<path d="M19.9 40.6C16.3333 40.6 13.1 39.8333 10.2 38.3C7.33333 36.7333 5.06667 34.5833 3.4 31.85C1.76667 29.0833 0.95 25.9667 0.95 22.5C0.95 19.0333 1.76667 15.9333 3.4 13.2C5.06667 10.4333 7.33333 8.28333 10.2 6.75C13.1 5.18333 16.35 4.4 19.95 4.4C22.9833 4.4 25.7167 4.93333 28.15 6C30.6167 7.06667 32.6833 8.6 34.35 10.6L29.15 15.4C26.7833 12.6667 23.85 11.3 20.35 11.3C18.1833 11.3 16.25 11.7833 14.55 12.75C12.85 13.6833 11.5167 15 10.55 16.7C9.61667 18.4 9.15 20.3333 9.15 22.5C9.15 24.6667 9.61667 26.6 10.55 28.3C11.5167 30 12.85 31.3333 14.55 32.3C16.25 33.2333 18.1833 33.7 20.35 33.7C23.85 33.7 26.7833 32.3167 29.15 29.55L34.35 34.35C32.6833 36.3833 30.6167 37.9333 28.15 39C25.6833 40.0667 22.9333 40.6 19.9 40.6ZM65.6422 13.1V40H58.1922V36.9C56.2589 39.2333 53.4589 40.4 49.7922 40.4C47.2589 40.4 44.9589 39.8333 42.8922 38.7C40.8589 37.5667 39.2589 35.95 38.0922 33.85C36.9255 31.75 36.3422 29.3167 36.3422 26.55C36.3422 23.7833 36.9255 21.35 38.0922 19.25C39.2589 17.15 40.8589 15.5333 42.8922 14.4C44.9589 13.2667 47.2589 12.7 49.7922 12.7C53.2255 12.7 55.9089 13.7833 57.8422 15.95V13.1H65.6422ZM51.1422 34C53.1089 34 54.7422 33.3333 56.0422 32C57.3422 30.6333 57.9922 28.8167 57.9922 26.55C57.9922 24.2833 57.3422 22.4833 56.0422 21.15C54.7422 19.7833 53.1089 19.1 51.1422 19.1C49.1422 19.1 47.4922 19.7833 46.1922 21.15C44.8922 22.4833 44.2422 24.2833 44.2422 26.55C44.2422 28.8167 44.8922 30.6333 46.1922 32C47.4922 33.3333 49.1422 34 51.1422 34ZM80.3137 16.65C81.247 15.35 82.497 14.3667 84.0637 13.7C85.6637 13.0333 87.497 12.7 89.5637 12.7V19.9C88.697 19.8333 88.1137 19.8 87.8137 19.8C85.5803 19.8 83.8303 20.4333 82.5637 21.7C81.297 22.9333 80.6637 24.8 80.6637 27.3V40H72.8637V13.1H80.3137V16.65ZM94.2016 13.1H102.002V40H94.2016V13.1ZM98.1016 9.35C96.6682 9.35 95.5016 8.93333 94.6016 8.1C93.7016 7.26666 93.2516 6.23333 93.2516 5C93.2516 3.76666 93.7016 2.73333 94.6016 1.9C95.5016 1.06666 96.6682 0.649997 98.1016 0.649997C99.5349 0.649997 100.702 1.05 101.602 1.85C102.502 2.65 102.952 3.65 102.952 4.85C102.952 6.15 102.502 7.23333 101.602 8.1C100.702 8.93333 99.5349 9.35 98.1016 9.35Z" fill="#E5E5E5"/>
<path d="M118.891 40.4C115.857 40.4 113.491 39.6 111.791 38C110.091 36.3667 109.241 34.0667 109.241 31.1V2.9H117.041V30.65C117.041 31.7833 117.324 32.6667 117.891 33.3C118.491 33.9 119.324 34.2 120.391 34.2C120.791 34.2 121.191 34.15 121.591 34.05C122.024 33.95 122.357 33.8333 122.591 33.7L122.941 39.75C121.641 40.1833 120.291 40.4 118.891 40.4ZM139.082 40.4C136.248 40.4 133.698 39.8167 131.432 38.65C129.198 37.45 127.448 35.8 126.182 33.7C124.915 31.6 124.282 29.2167 124.282 26.55C124.282 23.8833 124.915 21.5 126.182 19.4C127.448 17.3 129.198 15.6667 131.432 14.5C133.698 13.3 136.248 12.7 139.082 12.7C141.915 12.7 144.448 13.3 146.682 14.5C148.915 15.6667 150.665 17.3 151.932 19.4C153.198 21.5 153.832 23.8833 153.832 26.55C153.832 29.2167 153.198 31.6 151.932 33.7C150.665 35.8 148.915 37.45 146.682 38.65C144.448 39.8167 141.915 40.4 139.082 40.4ZM139.082 34C141.082 34 142.715 33.3333 143.982 32C145.282 30.6333 145.932 28.8167 145.932 26.55C145.932 24.2833 145.282 22.4833 143.982 21.15C142.715 19.7833 141.082 19.1 139.082 19.1C137.082 19.1 135.432 19.7833 134.132 21.15C132.832 22.4833 132.182 24.2833 132.182 26.55C132.182 28.8167 132.832 30.6333 134.132 32C135.432 33.3333 137.082 34 139.082 34Z" fill="#F8D42D"/>
</svg>
