<svg width="81" height="66" viewBox="0 0 81 66" fill="none" xmlns="http://www.w3.org/2000/svg">
<path d="M80.6412 37.4174C80.299 36.5599 79.7331 35.8672 79.0154 35.352V10.1835C79.1507 9.66922 79.0688 9.1163 78.7578 8.66918L73.2952 0.791202C72.951 0.295321 72.3861 0 71.7825 0H21.2083C20.5854 0 20.0048 0.314641 19.6653 0.837202L14.5431 8.71517C14.5348 8.72897 14.5311 8.7437 14.5229 8.7575C14.4557 8.86698 14.4005 8.98474 14.3572 9.10894C14.3425 9.14942 14.3306 9.18898 14.3195 9.23038C14.2901 9.33802 14.2708 9.44934 14.2616 9.56342C14.2588 9.60114 14.2505 9.63794 14.2496 9.67566C14.2496 9.69038 14.2459 9.70326 14.2459 9.71798V28.4345H3.49638C1.56877 28.4345 0 30.0058 0 31.9369V61.7395C0 63.6669 1.56877 65.2346 3.49638 65.2346H15.673C17.5656 65.2346 19.1031 63.7202 19.1592 61.8416L49.2585 65.8114C49.2723 65.8123 49.356 65.8197 49.3707 65.8206L50.0948 65.8712C50.9662 65.9347 51.8679 66 52.7944 66C53.1468 66 53.5001 65.9908 53.8544 65.9687C57.336 65.7571 58.9609 64.2437 60.8425 62.4902C61.1931 62.1636 61.5639 61.8177 61.9733 61.457C61.9973 61.4368 62.0203 61.4147 62.0423 61.3935L77.017 46.7609C81.8309 42.1931 81.1556 38.7045 80.6412 37.4174ZM73.7313 7.87705H56.6064L55.6992 3.67909H70.8201L73.7313 7.87705ZM42.0854 11.5571H53.0162V21.597L48.1939 18.0891C47.87 17.8536 47.49 17.7367 47.111 17.7367C46.696 17.7367 46.282 17.8766 45.9434 18.1544L42.0854 21.321V11.5571ZM43.2281 3.67909H51.9332L52.8404 7.87705H42.4553L43.2281 3.67909ZM22.2066 3.67909H39.4861L38.7123 7.87705H19.4767L22.2066 3.67909ZM15.489 33.3574C15.489 33.3767 15.4834 33.3961 15.4834 33.4163L15.489 39.3779V61.5536H3.6804V32.1136H15.489V33.3574ZM19.1059 31.3049C19.1031 31.2883 19.0958 31.2736 19.093 31.258C19.0728 31.1595 19.0415 31.0657 19.0139 30.9691C18.9743 30.8329 18.9311 30.7005 18.8759 30.5707C18.8418 30.4935 18.8059 30.418 18.7673 30.3426C18.6909 30.1945 18.6053 30.0555 18.5097 29.9212C18.4728 29.8706 18.4406 29.8182 18.402 29.7685C18.2585 29.5863 18.102 29.4143 17.9254 29.2643V11.5571H38.4041V25.2117C38.4041 25.9229 38.8144 26.5715 39.4576 26.8751C39.7078 26.9938 39.9765 27.0517 40.2433 27.0517C40.662 27.0517 41.076 26.9091 41.4119 26.634L47.1781 21.9016L53.7725 26.6994C54.3328 27.1069 55.0754 27.1658 55.69 26.8512C56.3064 26.5374 56.6956 25.9036 56.6956 25.2117V11.5571H75.335V34.3713C73.3587 34.4734 71.2562 35.3603 69.2292 36.9712L57.5017 46.2954C57.1253 46.5935 56.8235 46.8189 56.553 47.0075C56.8327 45.8934 56.8199 44.7894 56.5098 43.7111C55.8078 41.3209 53.7412 39.6153 52.2709 38.5582L42.481 31.2736C41.548 30.6029 40.3657 30.1006 38.8705 29.7381C37.483 29.3959 35.0448 29.0536 33.5036 29.2717L19.1059 31.3049ZM74.4637 44.1095L59.5029 58.7283C59.0815 59.1018 58.6969 59.4588 58.3334 59.7973C56.6423 61.3724 55.793 62.1636 53.6299 62.2952C52.5497 62.3614 51.4998 62.2841 50.3608 62.2004L49.6624 62.1535L19.1868 58.1331L19.1694 39.4405V35.0125L34.0189 32.914C34.2075 32.8873 34.4384 32.8744 34.7043 32.8744C35.8232 32.8744 37.173 33.109 37.9955 33.3123C39.0132 33.5598 39.7989 33.8791 40.3077 34.2443L50.0976 41.528C51.1511 42.286 52.5957 43.4443 52.9748 44.7378C53.1312 45.2834 53.0971 45.8529 52.8726 46.4702C52.638 46.725 51.8375 47.2384 51.0978 47.2384C50.957 47.2384 50.8318 47.2191 50.7187 47.1814C50.531 47.0608 50.3543 46.9504 50.1887 46.8511C50.1841 46.8483 50.1795 46.8456 50.1749 46.8428C50.174 46.8428 50.174 46.8419 50.1731 46.8419C50.1528 46.8299 50.1326 46.8189 50.1114 46.8069C49.1545 46.2798 40.5387 41.872 38.8494 41.0164C37.9458 40.5592 36.8399 40.9189 36.378 41.8214C35.917 42.7249 36.2749 43.8316 37.1766 44.2944L48.2436 49.9828C48.4709 50.153 48.711 50.3011 48.9613 50.4262L49.0027 50.4529C50.3258 51.3076 52.1366 52.4787 53.9068 52.4787C54.7119 52.4787 55.4572 52.2359 56.0571 51.7814C56.7288 51.2754 57.1658 50.9985 57.6286 50.705C58.211 50.3361 58.8128 49.9542 59.7909 49.1768L71.5194 39.8535C73.5132 38.2693 75.0038 38.0329 75.715 38.0329C76.1668 38.0329 76.9636 38.1304 77.2231 38.7817C77.6141 39.7597 76.9185 41.781 74.4637 44.1095Z" fill="#E71E61"/>
</svg>
