<svg width="66" height="42" viewBox="0 0 66 42" fill="none" xmlns="http://www.w3.org/2000/svg">
<path d="M59.25 0.583313H6.74999C3.54199 0.583313 0.916992 3.20831 0.916992 6.41671V35.5833C0.916992 38.7917 3.54199 41.4167 6.74999 41.4167H59.25C62.458 41.4167 65.083 38.7917 65.083 35.5833V6.41671C65.083 3.20831 62.458 0.583313 59.25 0.583313ZM53.417 35.5833H12.583V6.41671H53.417V35.5833ZM27.167 32.6667H38.833C40.438 32.6667 41.75 31.3542 41.75 29.75V21C41.75 19.3958 40.438 18.0833 38.833 18.0833V15.1667C38.833 11.9292 36.208 9.33331 33 9.33331C29.763 9.33331 27.167 11.9583 27.167 15.1667V18.0833C25.563 18.0833 24.25 19.3958 24.25 21V29.75C24.25 31.3542 25.563 32.6667 27.167 32.6667ZM29.5 15.1667C29.5 13.2417 31.075 11.6667 33 11.6667C34.925 11.6667 36.5 13.2417 36.5 15.1667V18.0833H29.5V15.1667Z" fill="#9A275E"/>
</svg>
