<svg width="29" height="29" viewBox="0 0 29 29" fill="none" xmlns="http://www.w3.org/2000/svg">
<path d="M14.3568 0C6.50251 0 0.117683 6.39081 0.117683 14.2397C0.117683 16.8542 0.829638 19.4002 2.1852 21.6216L0.146154 27.7333C0.0778089 27.9383 0.129085 28.1605 0.282844 28.3143C0.391062 28.4225 0.539155 28.4795 0.687247 28.4795C0.749891 28.4795 0.806868 28.4737 0.869512 28.451L6.97523 26.4175C9.20224 27.7675 11.7482 28.4795 14.3568 28.4795C22.2111 28.4795 28.5959 22.0944 28.5959 14.2397C28.5959 6.39081 22.2111 0 14.3568 0ZM23.4698 20.004C23.4698 20.4995 23.2648 20.9894 22.9117 21.3425L21.4308 22.8064C21.0776 23.1595 20.5992 23.3531 20.1094 23.3531H20.0353C12.0785 23.0114 5.58549 16.5181 5.24376 8.56664C5.22099 8.0483 5.42033 7.53565 5.79056 7.16544L7.25434 5.68449C7.60747 5.33135 8.09729 5.1263 8.59851 5.1263H9.14527C9.92557 5.1263 10.6375 5.61614 10.9109 6.35093L12.2095 9.79694C12.4601 10.469 12.3064 11.238 11.8109 11.762L11.2755 12.3259C11.0305 12.5822 11.0021 12.9753 11.2014 13.2658C11.8621 14.2227 13.2746 16.0282 15.3364 17.418C15.6212 17.606 16.0085 17.5718 16.2592 17.3326L16.8401 16.7858C17.3584 16.2903 18.1273 16.1365 18.7994 16.3871L22.2452 17.6857C22.98 17.9649 23.4698 18.6711 23.4698 19.4515V20.004Z" fill="#F8D42D"/>
</svg>
