<svg width="143" height="38" viewBox="0 0 143 38" fill="none" xmlns="http://www.w3.org/2000/svg">
<rect width="143" height="38" rx="19" fill="#E5E5E5" fill-opacity="0.5"/>
<path d="M58.08 10.752H59.232V15H58.176V14.436C57.56 14.876 56.78 15.096 55.836 15.096C55.076 15.096 54.368 14.928 53.712 14.592C53.064 14.256 52.544 13.768 52.152 13.128C51.768 12.48 51.576 11.716 51.576 10.836C51.576 10.004 51.768 9.26 52.152 8.604C52.544 7.948 53.08 7.436 53.76 7.068C54.448 6.692 55.22 6.504 56.076 6.504C56.748 6.504 57.356 6.616 57.9 6.84C58.452 7.056 58.92 7.376 59.304 7.8L58.56 8.544C57.888 7.896 57.076 7.572 56.124 7.572C55.484 7.572 54.908 7.712 54.396 7.992C53.892 8.272 53.496 8.66 53.208 9.156C52.92 9.652 52.776 10.212 52.776 10.836C52.776 11.5 52.92 12.076 53.208 12.564C53.504 13.052 53.892 13.424 54.372 13.68C54.852 13.928 55.372 14.052 55.932 14.052C56.324 14.052 56.704 13.988 57.072 13.86C57.448 13.724 57.784 13.528 58.08 13.272V10.752ZM64.2295 14.064C64.9895 14.064 65.6015 13.808 66.0655 13.296L66.6895 14.04C66.4095 14.376 66.0535 14.632 65.6215 14.808C65.1975 14.984 64.7215 15.072 64.1935 15.072C63.5215 15.072 62.9255 14.936 62.4055 14.664C61.8855 14.384 61.4815 13.996 61.1935 13.5C60.9135 13.004 60.7735 12.444 60.7735 11.82C60.7735 11.204 60.9095 10.648 61.1815 10.152C61.4615 9.656 61.8415 9.272 62.3215 9C62.8095 8.72 63.3575 8.58 63.9655 8.58C64.5415 8.58 65.0655 8.712 65.5375 8.976C66.0095 9.232 66.3855 9.596 66.6655 10.068C66.9455 10.54 67.0895 11.084 67.0975 11.7L62.0455 12.684C62.2055 13.124 62.4735 13.464 62.8495 13.704C63.2335 13.944 63.6935 14.064 64.2295 14.064ZM63.9655 9.552C63.5655 9.552 63.2055 9.644 62.8855 9.828C62.5735 10.012 62.3295 10.272 62.1535 10.608C61.9775 10.936 61.8895 11.32 61.8895 11.76V11.88L65.9575 11.112C65.8535 10.648 65.6215 10.272 65.2615 9.984C64.9015 9.696 64.4695 9.552 63.9655 9.552ZM72.0572 14.628C71.8892 14.772 71.6812 14.884 71.4332 14.964C71.1852 15.036 70.9292 15.072 70.6652 15.072C70.0252 15.072 69.5292 14.9 69.1772 14.556C68.8252 14.212 68.6492 13.72 68.6492 13.08V7.248H69.8012V8.64H71.6252V9.588H69.8012V13.032C69.8012 13.376 69.8852 13.64 70.0532 13.824C70.2292 14.008 70.4772 14.1 70.7972 14.1C71.1492 14.1 71.4492 14 71.6972 13.8L72.0572 14.628ZM76.6662 8.64H77.8182V15H76.6662V8.64ZM77.2422 7.416C77.0182 7.416 76.8302 7.344 76.6782 7.2C76.5342 7.056 76.4622 6.88 76.4622 6.672C76.4622 6.464 76.5342 6.288 76.6782 6.144C76.8302 5.992 77.0182 5.916 77.2422 5.916C77.4662 5.916 77.6502 5.988 77.7942 6.132C77.9462 6.268 78.0222 6.44 78.0222 6.648C78.0222 6.864 77.9462 7.048 77.7942 7.2C77.6502 7.344 77.4662 7.416 77.2422 7.416ZM83.3658 14.628C83.1978 14.772 82.9898 14.884 82.7418 14.964C82.4938 15.036 82.2378 15.072 81.9738 15.072C81.3338 15.072 80.8378 14.9 80.4858 14.556C80.1338 14.212 79.9578 13.72 79.9578 13.08V7.248H81.1098V8.64H82.9338V9.588H81.1098V13.032C81.1098 13.376 81.1938 13.64 81.3618 13.824C81.5378 14.008 81.7858 14.1 82.1058 14.1C82.4578 14.1 82.7578 14 83.0058 13.8L83.3658 14.628ZM90.6988 15.072C90.0668 15.072 89.4988 14.932 88.9948 14.652C88.4908 14.372 88.0948 13.988 87.8068 13.5C87.5268 13.004 87.3868 12.444 87.3868 11.82C87.3868 11.196 87.5268 10.64 87.8068 10.152C88.0948 9.656 88.4908 9.272 88.9948 9C89.4988 8.72 90.0668 8.58 90.6988 8.58C91.3308 8.58 91.8948 8.72 92.3908 9C92.8948 9.272 93.2868 9.656 93.5668 10.152C93.8548 10.64 93.9988 11.196 93.9988 11.82C93.9988 12.444 93.8548 13.004 93.5668 13.5C93.2868 13.988 92.8948 14.372 92.3908 14.652C91.8948 14.932 91.3308 15.072 90.6988 15.072ZM90.6988 14.064C91.1068 14.064 91.4708 13.972 91.7908 13.788C92.1188 13.596 92.3748 13.332 92.5588 12.996C92.7428 12.652 92.8348 12.26 92.8348 11.82C92.8348 11.38 92.7428 10.992 92.5588 10.656C92.3748 10.312 92.1188 10.048 91.7908 9.864C91.4708 9.68 91.1068 9.588 90.6988 9.588C90.2908 9.588 89.9228 9.68 89.5948 9.864C89.2748 10.048 89.0188 10.312 88.8268 10.656C88.6428 10.992 88.5508 11.38 88.5508 11.82C88.5508 12.26 88.6428 12.652 88.8268 12.996C89.0188 13.332 89.2748 13.596 89.5948 13.788C89.9228 13.972 90.2908 14.064 90.6988 14.064ZM98.988 8.58C99.796 8.58 100.436 8.816 100.908 9.288C101.388 9.752 101.628 10.436 101.628 11.34V15H100.476V11.472C100.476 10.856 100.328 10.392 100.032 10.08C99.736 9.768 99.312 9.612 98.76 9.612C98.136 9.612 97.644 9.796 97.284 10.164C96.924 10.524 96.744 11.044 96.744 11.724V15H95.592V8.64H96.696V9.6C96.928 9.272 97.24 9.02 97.632 8.844C98.032 8.668 98.484 8.58 98.988 8.58ZM57.672 25.668H59.448V30H57.984V29.496C57.4 29.928 56.648 30.144 55.728 30.144C54.952 30.144 54.24 29.976 53.592 29.64C52.944 29.304 52.428 28.816 52.044 28.176C51.66 27.528 51.468 26.76 51.468 25.872C51.468 25.016 51.664 24.256 52.056 23.592C52.456 22.92 53.008 22.396 53.712 22.02C54.416 21.644 55.208 21.456 56.088 21.456C56.824 21.456 57.492 21.58 58.092 21.828C58.692 22.076 59.196 22.436 59.604 22.908L58.356 24.06C57.756 23.428 57.032 23.112 56.184 23.112C55.648 23.112 55.172 23.228 54.756 23.46C54.34 23.684 54.016 24.004 53.784 24.42C53.552 24.836 53.436 25.316 53.436 25.86C53.436 26.428 53.548 26.912 53.772 27.312C54.004 27.712 54.312 28.016 54.696 28.224C55.08 28.424 55.5 28.524 55.956 28.524C56.636 28.524 57.208 28.332 57.672 27.948V25.668ZM64.1938 30.096C63.5138 30.096 62.9018 29.956 62.3578 29.676C61.8218 29.388 61.4018 28.992 61.0978 28.488C60.7938 27.984 60.6418 27.412 60.6418 26.772C60.6418 26.132 60.7938 25.56 61.0978 25.056C61.4018 24.552 61.8218 24.16 62.3578 23.88C62.9018 23.592 63.5138 23.448 64.1938 23.448C64.8738 23.448 65.4818 23.592 66.0178 23.88C66.5538 24.16 66.9738 24.552 67.2778 25.056C67.5818 25.56 67.7338 26.132 67.7338 26.772C67.7338 27.412 67.5818 27.984 67.2778 28.488C66.9738 28.992 66.5538 29.388 66.0178 29.676C65.4818 29.956 64.8738 30.096 64.1938 30.096ZM64.1938 28.56C64.6738 28.56 65.0658 28.4 65.3698 28.08C65.6818 27.752 65.8378 27.316 65.8378 26.772C65.8378 26.228 65.6818 25.796 65.3698 25.476C65.0658 25.148 64.6738 24.984 64.1938 24.984C63.7138 24.984 63.3178 25.148 63.0058 25.476C62.6938 25.796 62.5378 26.228 62.5378 26.772C62.5378 27.316 62.6938 27.752 63.0058 28.08C63.3178 28.4 63.7138 28.56 64.1938 28.56ZM72.0571 30.096C71.3771 30.096 70.7651 29.956 70.2211 29.676C69.6851 29.388 69.2651 28.992 68.9611 28.488C68.6571 27.984 68.5051 27.412 68.5051 26.772C68.5051 26.132 68.6571 25.56 68.9611 25.056C69.2651 24.552 69.6851 24.16 70.2211 23.88C70.7651 23.592 71.3771 23.448 72.0571 23.448C72.7371 23.448 73.3451 23.592 73.8811 23.88C74.4171 24.16 74.8371 24.552 75.1411 25.056C75.4451 25.56 75.5971 26.132 75.5971 26.772C75.5971 27.412 75.4451 27.984 75.1411 28.488C74.8371 28.992 74.4171 29.388 73.8811 29.676C73.3451 29.956 72.7371 30.096 72.0571 30.096ZM72.0571 28.56C72.5371 28.56 72.9291 28.4 73.2331 28.08C73.5451 27.752 73.7011 27.316 73.7011 26.772C73.7011 26.228 73.5451 25.796 73.2331 25.476C72.9291 25.148 72.5371 24.984 72.0571 24.984C71.5771 24.984 71.1811 25.148 70.8691 25.476C70.5571 25.796 70.4011 26.228 70.4011 26.772C70.4011 27.316 70.5571 27.752 70.8691 28.08C71.1811 28.4 71.5771 28.56 72.0571 28.56ZM83.5084 23.544V28.92C83.5084 30.104 83.2004 30.984 82.5844 31.56C81.9684 32.136 81.0684 32.424 79.8844 32.424C79.2604 32.424 78.6684 32.348 78.1084 32.196C77.5484 32.044 77.0844 31.824 76.7164 31.536L77.4604 30.192C77.7324 30.416 78.0764 30.592 78.4924 30.72C78.9084 30.856 79.3244 30.924 79.7404 30.924C80.3884 30.924 80.8644 30.776 81.1684 30.48C81.4804 30.192 81.6364 29.752 81.6364 29.16V28.884C81.1484 29.42 80.4684 29.688 79.5964 29.688C79.0044 29.688 78.4604 29.56 77.9644 29.304C77.4764 29.04 77.0884 28.672 76.8004 28.2C76.5124 27.728 76.3684 27.184 76.3684 26.568C76.3684 25.952 76.5124 25.408 76.8004 24.936C77.0884 24.464 77.4764 24.1 77.9644 23.844C78.4604 23.58 79.0044 23.448 79.5964 23.448C80.5324 23.448 81.2444 23.756 81.7324 24.372V23.544H83.5084ZM79.9684 28.152C80.4644 28.152 80.8684 28.008 81.1804 27.72C81.5004 27.424 81.6604 27.04 81.6604 26.568C81.6604 26.096 81.5004 25.716 81.1804 25.428C80.8684 25.132 80.4644 24.984 79.9684 24.984C79.4724 24.984 79.0644 25.132 78.7444 25.428C78.4244 25.716 78.2644 26.096 78.2644 26.568C78.2644 27.04 78.4244 27.424 78.7444 27.72C79.0644 28.008 79.4724 28.152 79.9684 28.152ZM87.5667 30.096C86.8387 30.096 86.2707 29.904 85.8627 29.52C85.4547 29.128 85.2507 28.576 85.2507 27.864V21.096H87.1227V27.756C87.1227 28.028 87.1907 28.24 87.3267 28.392C87.4707 28.536 87.6707 28.608 87.9267 28.608C88.0227 28.608 88.1187 28.596 88.2147 28.572C88.3187 28.548 88.3987 28.52 88.4547 28.488L88.5387 29.94C88.2267 30.044 87.9027 30.096 87.5667 30.096ZM92.5926 28.596C92.9286 28.596 93.2246 28.548 93.4806 28.452C93.7446 28.348 93.9886 28.188 94.2126 27.972L95.2086 29.052C94.6006 29.748 93.7126 30.096 92.5446 30.096C91.8166 30.096 91.1726 29.956 90.6126 29.676C90.0526 29.388 89.6206 28.992 89.3166 28.488C89.0126 27.984 88.8606 27.412 88.8606 26.772C88.8606 26.14 89.0086 25.572 89.3046 25.068C89.6086 24.556 90.0206 24.16 90.5406 23.88C91.0686 23.592 91.6606 23.448 92.3166 23.448C92.9326 23.448 93.4926 23.58 93.9966 23.844C94.5006 24.1 94.9006 24.476 95.1966 24.972C95.5006 25.46 95.6526 26.04 95.6526 26.712L90.8766 27.636C91.0126 27.956 91.2246 28.196 91.5126 28.356C91.8086 28.516 92.1686 28.596 92.5926 28.596ZM92.3166 24.864C91.8446 24.864 91.4606 25.016 91.1646 25.32C90.8686 25.624 90.7126 26.044 90.6966 26.58L93.8406 25.968C93.7526 25.632 93.5726 25.364 93.3006 25.164C93.0286 24.964 92.7006 24.864 92.3166 24.864ZM104.077 21.6C104.821 21.6 105.465 21.724 106.009 21.972C106.561 22.22 106.985 22.572 107.281 23.028C107.577 23.484 107.725 24.024 107.725 24.648C107.725 25.264 107.577 25.804 107.281 26.268C106.985 26.724 106.561 27.076 106.009 27.324C105.465 27.564 104.821 27.684 104.077 27.684H102.385V30H100.441V21.6H104.077ZM103.969 26.1C104.553 26.1 104.997 25.976 105.301 25.728C105.605 25.472 105.757 25.112 105.757 24.648C105.757 24.176 105.605 23.816 105.301 23.568C104.997 23.312 104.553 23.184 103.969 23.184H102.385V26.1H103.969ZM111.414 30.096C110.686 30.096 110.118 29.904 109.71 29.52C109.302 29.128 109.098 28.576 109.098 27.864V21.096H110.97V27.756C110.97 28.028 111.038 28.24 111.174 28.392C111.318 28.536 111.518 28.608 111.774 28.608C111.87 28.608 111.966 28.596 112.062 28.572C112.166 28.548 112.246 28.52 112.302 28.488L112.386 29.94C112.074 30.044 111.75 30.096 111.414 30.096ZM119.74 23.544V30H117.952V29.256C117.488 29.816 116.816 30.096 115.936 30.096C115.328 30.096 114.776 29.96 114.28 29.688C113.792 29.416 113.408 29.028 113.128 28.524C112.848 28.02 112.708 27.436 112.708 26.772C112.708 26.108 112.848 25.524 113.128 25.02C113.408 24.516 113.792 24.128 114.28 23.856C114.776 23.584 115.328 23.448 115.936 23.448C116.76 23.448 117.404 23.708 117.868 24.228V23.544H119.74ZM116.26 28.56C116.732 28.56 117.124 28.4 117.436 28.08C117.748 27.752 117.904 27.316 117.904 26.772C117.904 26.228 117.748 25.796 117.436 25.476C117.124 25.148 116.732 24.984 116.26 24.984C115.78 24.984 115.384 25.148 115.072 25.476C114.76 25.796 114.604 26.228 114.604 26.772C114.604 27.316 114.76 27.752 115.072 28.08C115.384 28.4 115.78 28.56 116.26 28.56ZM127.977 23.544V28.92C127.977 30.104 127.677 30.984 127.077 31.56C126.477 32.136 125.605 32.424 124.461 32.424C123.853 32.424 123.277 32.348 122.733 32.196C122.197 32.044 121.745 31.824 121.377 31.536L122.121 30.192C122.393 30.416 122.725 30.592 123.117 30.72C123.509 30.848 123.905 30.912 124.305 30.912C124.929 30.912 125.385 30.768 125.673 30.48C125.961 30.192 126.105 29.752 126.105 29.16V28.944C125.865 29.184 125.581 29.368 125.253 29.496C124.925 29.624 124.573 29.688 124.197 29.688C123.349 29.688 122.677 29.448 122.181 28.968C121.685 28.48 121.437 27.752 121.437 26.784V23.544H123.309V26.508C123.309 27.556 123.745 28.08 124.617 28.08C125.065 28.08 125.425 27.936 125.697 27.648C125.969 27.352 126.105 26.916 126.105 26.34V23.544H127.977Z" fill="#E5E5E5"/>
<path d="M20.5498 31.8083L31.679 20.6791L35.3891 24.3892L20.5498 31.8083Z" fill="#E5E5E5"/>
<path d="M30.0001 19.0002L17.0002 32L17 6.00002L30.0001 19.0002Z" fill="#E5E5E5"/>
<path d="M37.6278 23.2698L33.358 19.0001L37.628 14.7301L46.1684 18.9998L37.6278 23.2698Z" fill="#E5E5E5"/>
<path d="M31.6791 17.3212L20.5497 6.19185L35.3893 13.6109L31.6791 17.3212Z" fill="#E5E5E5"/>
</svg>
