<svg width="29" height="29" viewBox="0 0 29 29" fill="none" xmlns="http://www.w3.org/2000/svg">
<path d="M24.2534 0H5.26708C4.00821 0 2.8009 0.500084 1.91075 1.39024C1.02059 2.2804 0.520508 3.48771 0.520508 4.74658L0.520508 23.7329C0.520508 24.9917 1.02059 26.1991 1.91075 27.0892C2.8009 27.9794 4.00821 28.4795 5.26708 28.4795H24.2534C25.5123 28.4795 26.7196 27.9794 27.6097 27.0892C28.4999 26.1991 29 24.9917 29 23.7329V4.74658C29 3.48771 28.4999 2.2804 27.6097 1.39024C26.7196 0.500084 25.5123 0 24.2534 0V0ZM26.6267 23.7329C26.6267 24.3623 26.3766 24.966 25.9316 25.411C25.4865 25.8561 24.8828 26.1062 24.2534 26.1062H5.26708C4.63765 26.1062 4.03399 25.8561 3.58892 25.411C3.14384 24.966 2.8938 24.3623 2.8938 23.7329V4.74658C2.8938 4.11714 3.14384 3.51349 3.58892 3.06841C4.03399 2.62333 4.63765 2.37329 5.26708 2.37329H24.2534C24.8828 2.37329 25.4865 2.62333 25.9316 3.06841C26.3766 3.51349 26.6267 4.11714 26.6267 4.74658V23.7329Z" fill="#F8D42D"/>
<path d="M14.7602 7.11987C13.352 7.11987 11.9755 7.53745 10.8046 8.31979C9.63378 9.10213 8.72121 10.2141 8.18232 11.5151C7.64344 12.8161 7.50244 14.2476 7.77716 15.6288C8.05188 17.0099 8.72998 18.2785 9.72571 19.2742C10.7214 20.27 11.9901 20.9481 13.3712 21.2228C14.7523 21.4975 16.1839 21.3565 17.4849 20.8176C18.7859 20.2787 19.8978 19.3662 20.6802 18.1953C21.4625 17.0245 21.8801 15.6479 21.8801 14.2397C21.8801 12.3514 21.13 10.5405 19.7947 9.20523C18.4595 7.87 16.6485 7.11987 14.7602 7.11987ZM14.7602 18.9863C13.8214 18.9863 12.9037 18.7079 12.1232 18.1864C11.3426 17.6648 10.7342 16.9235 10.375 16.0562C10.0157 15.1888 9.9217 14.2345 10.1048 13.3137C10.288 12.393 10.7401 11.5472 11.4039 10.8834C12.0677 10.2196 12.9135 9.76751 13.8342 9.58436C14.755 9.40122 15.7093 9.49521 16.5767 9.85447C17.444 10.2137 18.1853 10.8221 18.7069 11.6027C19.2284 12.3832 19.5068 13.301 19.5068 14.2397C19.5068 15.4986 19.0067 16.7059 18.1166 17.5961C17.2264 18.4862 16.0191 18.9863 14.7602 18.9863Z" fill="#F8D42D"/>
<path d="M22.4734 8.30651C23.4564 8.30651 24.2534 7.5096 24.2534 6.52655C24.2534 5.5435 23.4564 4.74658 22.4734 4.74658C21.4904 4.74658 20.6934 5.5435 20.6934 6.52655C20.6934 7.5096 21.4904 8.30651 22.4734 8.30651Z" fill="#F8D42D"/>
</svg>
