<svg width="70" height="70" viewBox="0 0 70 70" fill="none" xmlns="http://www.w3.org/2000/svg">
<path d="M35 17.5C35 15.8958 33.6875 14.5833 32.0833 14.5833H16.975L18.9 5.30833L18.9583 4.6375C18.9583 3.73333 18.5792 2.91667 17.9958 2.30417L15.6917 0L1.28333 14.4083C0.495833 15.1958 0 16.3042 0 17.5V36.4583C0 38.8792 1.95417 40.8333 4.375 40.8333H24.0625C25.8708 40.8333 27.4167 39.725 28.0875 38.1792L34.6792 22.75C34.8833 22.2542 35 21.7 35 21.1458V17.5V17.5ZM29.1667 20.7958L23.1 35H5.83333V18.1125L11.4625 12.4833L9.8 20.4167H29.1667V20.7958ZM65.625 29.1667H45.9375C44.1292 29.1667 42.5833 30.275 41.9125 31.8208L35.3208 47.25C35.1167 47.7458 35 48.3 35 48.8542V52.5C35 54.1042 36.3125 55.4167 37.9167 55.4167H53.025L51.1 64.6917L51.0417 65.3917C51.0417 66.2958 51.4208 67.1125 52.0042 67.725L54.3083 70L68.7167 55.5917C69.5042 54.8042 70 53.6958 70 52.5V33.5417C70 31.1208 68.0458 29.1667 65.625 29.1667ZM64.1667 51.8875L58.5375 57.5167L60.2 49.5833H40.8333V49.2042L46.9 35H64.1667V51.8875Z" fill="#0D5ED8"/>
</svg>
