<svg width="67" height="67" viewBox="0 0 67 67" fill="none" xmlns="http://www.w3.org/2000/svg">
<path d="M60.2474 0.000191072C59.5321 0.00559247 58.8424 0.112923 58.1888 0.327291C40.2801 6.19456 22.4392 12.2418 4.58375 18.1956C1.64976 19.174 2.31341e-05 21.9286 2.44722e-10 24.5588C-2.32006e-05 27.1891 1.64962 29.9265 4.58375 30.9045L28.1873 38.768C28.6154 40.0525 33.4417 54.5271 36.0682 62.4064C37.0462 65.3405 39.8011 66.9902 42.4313 66.9902C45.0616 66.9902 47.8162 65.3404 48.7945 62.4064C54.7506 44.5435 60.7067 26.6816 66.6629 8.81879C68.095 4.52375 64.7773 -0.0339895 60.2474 0.000191072ZM11.1257 40.168C10.5471 40.1864 9.99829 40.4288 9.59492 40.844L5.12892 45.3144C4.90752 45.5186 4.72974 45.7656 4.60626 46.0403C4.48278 46.3151 4.41617 46.612 4.41042 46.9131C4.40467 47.2143 4.45991 47.5135 4.57281 47.7928C4.68571 48.0721 4.85394 48.3256 5.06738 48.5382C5.28082 48.7507 5.53506 48.9179 5.81479 49.0296C6.09452 49.1414 6.39397 49.1954 6.69511 49.1884C6.99626 49.1814 7.29287 49.1135 7.56711 48.9889C7.84135 48.8643 8.08755 48.6855 8.29088 48.4632L12.7612 43.9929C13.0801 43.6777 13.2967 43.2738 13.3829 42.8338C13.4691 42.3937 13.4208 41.938 13.2443 41.5258C13.0679 41.1136 12.7714 40.764 12.3936 40.5226C12.0157 40.2813 11.5739 40.1592 11.1257 40.1724V40.168ZM22.2864 42.3966C21.7078 42.415 21.1589 42.6574 20.7556 43.0726L11.8192 52.0046C11.3993 52.4245 11.1634 52.994 11.1634 53.5878C11.1634 54.1816 11.3993 54.7511 11.8192 55.171C12.2391 55.5908 12.8086 55.8267 13.4024 55.8267C13.9962 55.8267 14.5656 55.5908 14.9855 55.171L23.9175 46.2346C24.2424 45.9207 24.4645 45.5157 24.5544 45.073C24.6443 44.6303 24.5979 44.1707 24.4212 43.7549C24.2445 43.3392 23.9459 42.9868 23.5647 42.7443C23.1836 42.5018 22.7378 42.3806 22.2864 42.3966ZM24.5281 53.5529C23.9495 53.5713 23.4006 53.8137 22.9973 54.2289L18.5269 58.6993C18.3047 58.9026 18.1259 59.1488 18.0012 59.423C17.8766 59.6973 17.8088 59.9939 17.8018 60.295C17.7948 60.5962 17.8488 60.8956 17.9605 61.1754C18.0723 61.4551 18.2394 61.7093 18.452 61.9228C18.6646 62.1362 18.9181 62.3045 19.1974 62.4174C19.4766 62.5303 19.7759 62.5855 20.077 62.5797C20.3782 62.574 20.6751 62.5074 20.9498 62.3839C21.2246 62.2604 21.4715 62.0826 21.6758 61.8612L26.1462 57.3952C26.4717 57.0824 26.6948 56.6782 26.7859 56.236C26.8771 55.7938 26.8321 55.3344 26.6569 54.9183C26.4817 54.5022 26.1845 54.149 25.8044 53.9052C25.4244 53.6615 24.9794 53.5386 24.5281 53.5529Z" fill="#482079"/>
</svg>
