<svg width="70" height="70" viewBox="0 0 70 70" fill="none" xmlns="http://www.w3.org/2000/svg">
<path d="M35 5.83331C23.7125 5.83331 14.5834 14.9625 14.5834 26.25C14.5834 41.5625 35 64.1667 35 64.1667C35 64.1667 55.4167 41.5625 55.4167 26.25C55.4167 14.9625 46.2875 5.83331 35 5.83331ZM20.4167 26.25C20.4167 18.2 26.95 11.6666 35 11.6666C43.05 11.6666 49.5834 18.2 49.5834 26.25C49.5834 34.65 41.1834 47.2208 35 55.0666C28.9334 47.2791 20.4167 34.5625 20.4167 26.25Z" fill="#B09F07"/>
<path d="M35 33.5416C39.0271 33.5416 42.2917 30.2771 42.2917 26.25C42.2917 22.2229 39.0271 18.9583 35 18.9583C30.973 18.9583 27.7084 22.2229 27.7084 26.25C27.7084 30.2771 30.973 33.5416 35 33.5416Z" fill="#B09F07"/>
</svg>
