<svg width="54" height="60" viewBox="0 0 54 60" fill="none" xmlns="http://www.w3.org/2000/svg">
<path d="M43.9458 8.03748C43.7124 8.03748 43.4791 7.97915 43.2749 7.86248C37.6749 4.97498 32.8333 3.74998 27.0291 3.74998C21.2541 3.74998 15.7708 5.12081 10.7833 7.86248C10.0833 8.24165 9.20827 7.97915 8.79994 7.27915C8.42077 6.57915 8.68327 5.67498 9.38327 5.29581C14.8083 2.34998 20.7583 0.833313 27.0291 0.833313C33.2416 0.833313 38.6666 2.20415 44.6166 5.26665C45.3458 5.64581 45.6083 6.52081 45.2291 7.22081C44.9666 7.74581 44.4708 8.03748 43.9458 8.03748V8.03748ZM2.20827 23.35C1.9166 23.35 1.62494 23.2625 1.36244 23.0875C0.691603 22.6208 0.545769 21.7166 1.01244 21.0458C3.89994 16.9625 7.57494 13.7541 11.9499 11.5083C21.1083 6.78331 32.8333 6.75415 42.0208 11.4791C46.3958 13.725 50.0708 16.9041 52.9583 20.9583C53.4249 21.6 53.2791 22.5333 52.6083 23C51.9374 23.4666 51.0333 23.3208 50.5666 22.65C47.9416 18.975 44.6166 16.0875 40.6791 14.075C32.3083 9.78748 21.6041 9.78748 13.2624 14.1041C9.29577 16.1458 5.97077 19.0625 3.34577 22.7375C3.11244 23.1458 2.67494 23.35 2.20827 23.35V23.35ZM20.4374 58.5542C20.0583 58.5542 19.6791 58.4083 19.4166 58.1167C16.8791 55.5792 15.5083 53.9458 13.5541 50.4167C11.5416 46.8292 10.4916 42.4542 10.4916 37.7583C10.4916 29.0958 17.8999 22.0375 26.9999 22.0375C36.0999 22.0375 43.5083 29.0958 43.5083 37.7583C43.5083 38.575 42.8666 39.2167 42.0499 39.2167C41.2333 39.2167 40.5916 38.575 40.5916 37.7583C40.5916 30.7 34.4958 24.9542 26.9999 24.9542C19.5041 24.9542 13.4083 30.7 13.4083 37.7583C13.4083 41.9583 14.3416 45.8375 16.1208 48.9875C17.9874 52.3417 19.2708 53.7708 21.5166 56.0458C22.0708 56.6292 22.0708 57.5333 21.5166 58.1167C21.1958 58.4083 20.8166 58.5542 20.4374 58.5542ZM41.3499 53.1583C37.8791 53.1583 34.8166 52.2833 32.3083 50.5625C27.9624 47.6166 25.3666 42.8333 25.3666 37.7583C25.3666 36.9416 26.0083 36.3 26.8249 36.3C27.6416 36.3 28.2833 36.9416 28.2833 37.7583C28.2833 41.8708 30.3833 45.75 33.9416 48.1416C36.0124 49.5416 38.4333 50.2125 41.3499 50.2125C42.0499 50.2125 43.2166 50.125 44.3833 49.9208C45.1708 49.775 45.9291 50.3 46.0749 51.1167C46.2208 51.9042 45.6958 52.6625 44.8791 52.8083C43.2166 53.1292 41.7583 53.1583 41.3499 53.1583V53.1583ZM35.4874 59.1667C35.3708 59.1667 35.2249 59.1375 35.1083 59.1083C30.4708 57.825 27.4374 56.1042 24.2583 52.9833C20.1749 48.9291 17.9291 43.5333 17.9291 37.7583C17.9291 33.0333 21.9541 29.1833 26.9124 29.1833C31.8708 29.1833 35.8958 33.0333 35.8958 37.7583C35.8958 40.8792 38.6083 43.4167 41.9624 43.4167C45.3166 43.4167 48.0291 40.8792 48.0291 37.7583C48.0291 26.7625 38.5499 17.8375 26.8833 17.8375C18.5999 17.8375 11.0166 22.4458 7.6041 29.5916C6.4666 31.9541 5.88327 34.725 5.88327 37.7583C5.88327 40.0333 6.08744 43.6208 7.83744 48.2875C8.1291 49.0458 7.74994 49.8917 6.9916 50.1542C6.23327 50.4458 5.38744 50.0375 5.12494 49.3083C3.69577 45.4875 2.99577 41.6958 2.99577 37.7583C2.99577 34.2583 3.6666 31.0791 4.9791 28.3083C8.85827 20.1708 17.4624 14.8916 26.8833 14.8916C40.1541 14.8916 50.9458 25.1291 50.9458 37.7291C50.9458 42.4541 46.9208 46.3042 41.9624 46.3042C37.0041 46.3042 32.9791 42.4541 32.9791 37.7291C32.9791 34.6083 30.2666 32.0708 26.9124 32.0708C23.5583 32.0708 20.8458 34.6083 20.8458 37.7291C20.8458 42.7166 22.7708 47.3833 26.2999 50.8833C29.0708 53.625 31.7249 55.1417 35.8374 56.2792C36.6249 56.4833 37.0624 57.3 36.8583 58.0583C36.7124 58.7292 36.0999 59.1667 35.4874 59.1667V59.1667Z" fill="#482079"/>
</svg>
